<svg width="214" height="201" viewBox="0 0 214 201" fill="none" xmlns="http://www.w3.org/2000/svg">
<path d="M170.344 85.1779C170.344 132.05 132.347 170.048 85.4743 170.048C38.602 170.048 0.604492 132.05 0.604492 85.1779C0.604492 38.3056 38.602 0.308105 85.4743 0.308105C132.347 0.308105 170.344 38.3056 170.344 85.1779Z" fill="white"/>
<path d="M30.5585 83.6802C30.5585 89.4703 25.8647 94.1641 20.0746 94.1641C14.2845 94.1641 9.5907 89.4703 9.5907 83.6802C9.5907 77.8901 14.2845 73.1963 20.0746 73.1963C25.8647 73.1963 30.5585 77.8901 30.5585 83.6802Z" fill="#000C48"/>
<path d="M144.384 50.2315C144.384 53.5402 141.702 56.2223 138.393 56.2223C135.084 56.2223 132.402 53.5402 132.402 50.2315C132.402 46.9229 135.084 44.2407 138.393 44.2407C141.702 44.2407 144.384 46.9229 144.384 50.2315Z" fill="#5397F5"/>
<path d="M41.3937 94.6745C51.2076 85.6709 63.2744 84.1582 71.0094 83.5918L94.5332 81.9107C107.352 79.4543 117.558 79.5873 123.703 86.2093C131.609 94.7299 142.714 123.72 148.343 138.945L168.378 77.6121L189.872 78.7635C188.08 85.058 184.022 99.3972 182.119 106.398C179.739 115.149 165.845 156.216 164.77 157.445C163.696 158.673 161.546 162.357 151.414 165.351C143.308 167.746 135.243 165.888 132.223 164.66L131.352 161.723C125.092 163.951 112.483 169.302 91.5659 169.999C74.7215 170.559 58.3299 166.203 52.2154 163.509V164.68C44.8785 161.564 36.4923 155.497 33.2163 152.853C33.6584 128.834 37.1121 98.6026 41.3937 94.6745Z" fill="#5397F5"/>
<path d="M148.518 138.928L169.926 77.7412H168.349L148.518 138.928Z" fill="white"/>
<path d="M127.473 163.198C128.511 153.793 119.86 119.211 115.405 103.095C118.204 108.264 127.265 144.452 131.446 161.901L127.473 163.198Z" fill="white"/>
<path d="M58.8581 135.062C57.4627 133.143 56.5809 117.983 56.3144 110.643L52.2758 163.6L63.4565 167.327C61.415 162.944 57.2156 153.275 56.7505 149.67C56.169 145.164 60.6023 137.46 58.8581 135.062Z" fill="#000C48"/>
<path d="M96.728 82.6894C95.8347 81.8519 94.5412 82.1544 94.0061 82.4103C92.8313 84.0969 90.4655 88.0658 85.3041 88.0658C80.2361 88.0658 75.1739 83.9805 73.8362 81.7471C73.1267 81.3749 71.5889 80.9864 71.1143 82.4103C70.5211 84.1901 74.7435 91.3086 84.5842 91.9019C94.4249 92.4951 97.8447 83.7363 96.728 82.6894Z" fill="#CDDEF5"/>
<path d="M72.0918 37.1935C71.4978 40.1405 72.5816 44.4359 73.1344 45.9694C69.519 44.1296 65.7208 46.8019 65.7604 50.3303C65.7921 53.153 70.3196 57.6646 72.5794 59.5676V63.9285C71.3768 64.4175 68.2025 64.9117 65.1261 62.9771C62.0496 61.0424 63.1609 54.1048 64.1011 50.8779C55.7892 21.4011 73.748 11.6072 86.5412 12.4354C99.3343 13.2635 107.473 19.8885 109.415 20.9451C111.356 22.0017 113.441 21.0021 113.898 22.6298C114.263 23.932 112.699 25.8948 111.87 26.7134C114.631 27.4273 120.209 29.312 120.437 31.1396C120.723 33.4241 109.415 37.264 98.8489 38.3643C90.7947 39.2031 77.6888 38.1739 72.0918 37.1935Z" fill="#000C48"/>
<path d="M87.9224 38.7356C107.904 37.6622 119.191 29.8878 119.385 29.5957C120.147 30.729 123.314 31.4104 114.214 34.7295C107.413 37.21 92.3384 39.3116 87.9224 38.7356Z" fill="white"/>
<path d="M103.445 75.2791C112.896 72.6392 110.682 49.0134 108.63 36.9749C106.816 37.28 103.037 38.1762 95.1903 38.7185C87.3435 39.2609 77.1238 38.0046 72.0884 37.2336C71.2889 41.2315 72.5739 45.1056 73.3164 46.5429C72.0599 45.296 68.9073 43.773 66.3487 47.6566C63.79 51.5402 69.3566 57.3276 72.4597 59.7359L73.6305 81.8383C74.8869 85.008 79.7415 88.5775 85.7668 88.4633C90.5871 88.3719 93.0486 84.5035 93.6769 82.5808L91.5496 72.6392C92.4934 73.8542 98.2306 75.7679 103.445 75.2791Z" fill="white"/>
<path d="M92.2339 75.5399C84.4904 72.8806 80.2732 66.6753 79.1326 63.905C82.1309 67.3466 88.8554 71.2705 91.8429 72.8022L92.2339 75.5399Z" fill="#BFCDE0"/>
<path fill-rule="evenodd" clip-rule="evenodd" d="M71.3505 83.5015C71.4327 83.7074 71.3326 83.9409 71.1267 84.0232C71.0899 84.038 71.0564 84.0447 71.0489 84.0462L71.0481 84.0464C71.0346 84.0492 71.0214 84.0514 71.0107 84.0531C70.9888 84.0565 70.9624 84.0601 70.9341 84.0636C70.8768 84.0708 70.7977 84.0798 70.7004 84.0906C70.6424 84.097 70.5775 84.1041 70.5056 84.112C70.3341 84.1308 70.1233 84.1539 69.8753 84.182C69.173 84.2617 68.1779 84.3812 66.9742 84.5534C64.5659 84.898 61.3255 85.4532 57.9274 86.3213C54.527 87.1899 50.9823 88.3684 47.9588 89.9545C44.9296 91.5437 42.4652 93.5204 41.167 95.964C40.1164 97.9417 39.1485 101.504 38.2801 106.032C37.4146 110.544 36.6561 115.967 36.0078 121.632C34.7232 132.858 33.8736 145.012 33.48 152.864C35.6101 154.402 39.0161 156.745 42.5312 158.935C45.9276 161.051 49.3955 163.004 51.9091 163.961L55.9008 110.81C55.9174 110.589 56.11 110.423 56.3311 110.44C56.5521 110.456 56.7179 110.649 56.7013 110.87L52.6311 165.068L52.1391 164.899C49.5029 163.991 45.7288 161.873 42.1067 159.617C38.4747 157.354 34.9608 154.93 32.8327 153.387L32.6566 153.259L32.6674 153.042C33.0567 145.186 33.9112 132.892 35.2102 121.541C35.8597 115.865 36.6209 110.42 37.4917 105.88C38.3596 101.356 39.3445 97.6835 40.458 95.5874C41.865 92.939 44.4919 90.8667 47.5859 89.2436C50.6856 87.6175 54.2961 86.4203 57.7287 85.5435C61.1636 84.666 64.4342 84.1059 66.8605 83.7587C68.0741 83.5851 69.0772 83.4646 69.7848 83.3843C70.0345 83.356 70.2482 83.3326 70.4202 83.3138C70.4914 83.306 70.5555 83.299 70.6121 83.2927C70.7096 83.2819 70.7833 83.2735 70.834 83.2671C70.8566 83.2643 70.872 83.2622 70.8818 83.2607C71.0733 83.2133 71.2752 83.3132 71.3505 83.5015Z" fill="#000C48"/>
<path fill-rule="evenodd" clip-rule="evenodd" d="M68.1285 49.368C68.156 49.148 68.3566 48.992 68.5766 49.0195C69.1571 49.0921 70.0366 49.3279 70.823 49.8077C71.6124 50.2892 72.349 51.0444 72.5352 52.1615C72.5716 52.3801 72.4239 52.587 72.2052 52.6234C71.9866 52.6598 71.7798 52.5121 71.7433 52.2935C71.6084 51.4839 71.0739 50.9011 70.4049 50.493C69.733 50.083 68.9668 49.8773 68.477 49.8161C68.257 49.7886 68.101 49.588 68.1285 49.368Z" fill="#000C48"/>
<path d="M87.7546 56.6314C86.9289 59.9721 95.5667 64.7765 94.9239 64.7765C91.8009 63.5753 89.8097 65.4228 89.2216 66.649C86.2488 62.9255 87.7546 56.2025 87.7546 56.6314Z" fill="#000C48"/>
<path fill-rule="evenodd" clip-rule="evenodd" d="M94.2308 64.5536C93.6545 64.4054 93.1221 64.3629 92.6358 64.3989C89.5079 62.9203 87.972 60.9595 87.3871 59.4229C87.4554 57.6705 87.7547 56.4402 87.7547 56.6314C87.139 59.1223 91.7844 62.4268 93.9213 63.9469C93.9779 63.9872 94.0327 64.0261 94.0856 64.0638L94.2308 64.5536Z" fill="white"/>
<path fill-rule="evenodd" clip-rule="evenodd" d="M88.1456 56.5306C88.1559 56.5776 88.156 56.6179 88.156 56.6315L88.156 56.6804L88.1443 56.7279C87.9829 57.3807 88.2729 58.1774 88.9391 59.0742C89.5935 59.9551 90.546 60.8443 91.525 61.6463C92.485 62.4327 93.4517 63.1205 94.1565 63.6218L94.1914 63.6467C94.5404 63.8949 94.8329 64.1033 95.0167 64.2497C95.0989 64.3153 95.1963 64.3966 95.2581 64.4768C95.2756 64.4994 95.3028 64.5377 95.3243 64.5882C95.3433 64.6329 95.3804 64.7392 95.3445 64.8694C95.3023 65.0225 95.1897 65.107 95.1014 65.1437C95.0256 65.1753 94.9572 65.178 94.9239 65.178H94.8494L94.7798 65.1512C93.3193 64.5895 92.1563 64.7485 91.2969 65.164C90.4231 65.5865 89.8412 66.2855 89.5836 66.8227C89.5238 66.9473 89.4043 67.0324 89.267 67.048C89.1298 67.0636 88.9942 67.0075 88.908 66.8996C87.3346 64.9289 86.9671 62.2023 86.972 60.0823C86.9745 59.0132 87.0718 58.0768 87.1689 57.4324C87.2174 57.1108 87.2665 56.8576 87.3051 56.694C87.3228 56.6188 87.3429 56.5425 87.3642 56.4874C87.3695 56.4738 87.3808 56.4457 87.3987 56.415C87.407 56.4007 87.4259 56.3699 87.4569 56.3372C87.4774 56.3156 87.5642 56.2262 87.7132 56.2123C87.909 56.1941 88.034 56.3134 88.0844 56.3877C88.1275 56.4512 88.1414 56.5111 88.1456 56.5306ZM89.1903 65.9208C89.5782 65.3763 90.1688 64.8178 90.9475 64.4413C91.6089 64.1215 92.3978 63.937 93.2994 63.9968C92.6439 63.5279 91.8287 62.9329 91.0163 62.2673C90.0194 61.4507 89.0075 60.5124 88.2947 59.5529C88.1209 59.3191 87.9608 59.0783 87.8219 58.8329C87.794 59.2173 87.7758 59.6387 87.7747 60.0841C87.7704 61.968 88.0745 64.211 89.1903 65.9208Z" fill="#000C48"/>
<path fill-rule="evenodd" clip-rule="evenodd" d="M108.626 19.9524C109.13 20.2637 109.467 20.4703 109.647 20.5604C110.252 20.8626 110.912 20.9773 111.596 21.0961C111.746 21.1223 111.898 21.1486 112.051 21.1772C112.845 21.3262 113.713 21.5457 114.217 22.3023C114.489 22.7097 114.406 23.2086 114.261 23.6167C114.109 24.0443 113.843 24.5041 113.561 24.9363C113.329 25.2903 113.076 25.6438 112.848 25.9611C112.796 26.0334 112.745 26.1039 112.696 26.172C112.565 26.3562 112.452 26.5182 112.36 26.6569C112.92 26.872 113.597 27.1103 114.327 27.3672C115.091 27.6361 115.913 27.9254 116.719 28.2296C117.595 28.5607 118.439 28.9059 119.126 29.2508C119.469 29.4232 119.78 29.5992 120.039 29.7772C120.293 29.9521 120.519 30.1441 120.671 30.355C120.784 30.5116 120.902 30.6838 120.978 30.8626C121.058 31.0516 121.102 31.2729 121.035 31.5139C120.971 31.7455 120.82 31.9399 120.626 32.1124C120.431 32.2852 120.166 32.4591 119.83 32.6452C118.497 33.3817 115.717 34.4767 110.417 36.5459C105.524 38.4561 98.1325 39.0558 90.9004 38.9871C83.8443 38.92 76.881 38.2152 72.4211 37.4329C72.3517 37.7543 72.3174 38.1861 72.3198 38.7102C72.3231 39.4137 72.3914 40.2368 72.4974 41.0897C72.7093 42.7947 73.0675 44.5864 73.3327 45.7133L73.5199 46.5089L72.7759 46.1707C72.1017 45.8643 70.9619 45.6023 69.776 45.8283C68.6099 46.0505 67.3752 46.7477 66.4708 48.4058C66.0528 49.1722 66.019 50.0608 66.2826 51.0351C66.5474 52.0137 67.1061 53.0512 67.8306 54.0723C69.2792 56.1141 71.3346 58.0132 72.786 59.1347L72.9314 59.2471L74.1425 81.451C74.6657 82.932 77.1468 86.3131 83.0593 87.5578C85.9881 88.1744 88.3184 87.4057 90.0522 86.1965C91.7385 85.0204 92.86 83.4265 93.3934 82.2861L91.4148 73.1847C91.3677 72.968 91.5052 72.7543 91.7218 72.7072C91.9384 72.6601 92.1522 72.7975 92.1993 73.0141L94.2341 82.3743L94.1808 82.4943C93.6199 83.7562 92.392 85.5434 90.5114 86.8549C88.6194 88.1745 86.0661 89.0112 82.8939 88.3434C76.6711 87.0333 73.9497 83.4126 73.364 81.6554L73.3469 81.6042L72.4145 64.5109C70.9812 65.1163 68.2531 65.4099 65.1002 63.4035C63.151 62.1631 62.5795 59.7317 62.5863 57.354C62.5929 55.0178 63.1554 52.5938 63.6882 51.0202C62.861 48.4414 61.4711 41.3302 62.1056 32.1306C62.9259 20.2353 72.7752 12.9023 84.5545 12.0899C90.4726 11.6818 96.3652 13.6194 100.956 15.7384C103.256 16.7997 105.238 17.9108 106.744 18.8058C107.446 19.2226 108.045 19.593 108.523 19.8887L108.626 19.9524ZM72.3674 63.6461L72.1498 59.6566C70.6679 58.4915 68.6358 56.5946 67.1759 54.5368C66.4219 53.4742 65.8065 52.3491 65.5077 51.2448C65.2077 50.136 65.2208 49.0211 65.7661 48.0214C66.7883 46.1472 68.2295 45.3058 69.6257 45.0397C70.6438 44.8457 71.6249 44.9593 72.3895 45.1784C72.1487 44.0633 71.8761 42.5995 71.7008 41.1887C71.5927 40.3189 71.5205 39.4612 71.5171 38.7139C71.5137 37.9799 71.5755 37.3033 71.7665 36.8257L71.8883 36.5212L72.211 36.5799C76.6017 37.3782 83.7036 38.1159 90.908 38.1843C98.126 38.253 105.385 37.6486 110.125 35.7981C115.46 33.7151 118.169 32.6458 119.441 31.9427C119.756 31.7689 119.962 31.6282 120.093 31.5119C120.224 31.3953 120.254 31.3261 120.261 31.3C120.266 31.2833 120.271 31.2528 120.239 31.1759C120.202 31.0888 120.133 30.9813 120.02 30.8244C119.946 30.7218 119.806 30.5914 119.584 30.4385C119.366 30.2885 119.09 30.1311 118.766 29.9681C118.117 29.6422 117.303 29.3086 116.435 28.9806C115.675 28.6936 114.864 28.4079 114.098 28.1378C113.143 27.8013 112.257 27.4891 111.627 27.2296L111.243 27.0714L111.414 26.6928C111.535 26.4254 111.784 26.0679 112.043 25.7055C112.094 25.6338 112.147 25.5609 112.2 25.4869C112.427 25.1703 112.668 24.835 112.888 24.4975C113.162 24.0788 113.385 23.6834 113.504 23.3482C113.63 22.9935 113.599 22.8219 113.549 22.7476C113.251 22.3001 112.713 22.1182 111.903 21.9662C111.773 21.942 111.638 21.9187 111.497 21.8945C110.811 21.7765 110.009 21.6388 109.288 21.2784C109.067 21.1678 108.69 20.9355 108.204 20.6353L108.102 20.572C107.623 20.2762 107.03 19.9091 106.334 19.4959C104.842 18.6097 102.886 17.5132 100.62 16.4673C96.0793 14.3717 90.3318 12.4962 84.6097 12.8908C73.1088 13.684 63.6916 20.8009 62.9064 32.1859C62.2674 41.4511 63.7078 48.5427 64.4923 50.8964L64.5355 51.0261L64.4906 51.1552C63.9657 52.6644 63.3956 55.0677 63.389 57.3563C63.3824 59.6681 63.9482 61.7188 65.5312 62.7262C68.7156 64.7527 71.3239 64.1996 72.3674 63.6461Z" fill="#000C48"/>
<path fill-rule="evenodd" clip-rule="evenodd" d="M108.595 36.5798C108.813 36.5408 109.021 36.6862 109.06 36.9044C110.067 42.5408 111.075 51.2002 110.822 58.8636C110.696 62.6932 110.255 66.298 109.329 69.1591C108.407 72.0077 106.975 74.208 104.8 75.0777C100.609 76.7541 95.4143 75.2018 90.7154 72.7013C85.9915 70.1875 81.6464 66.6501 79.0841 64.1553C78.9253 64.0006 78.9219 63.7465 79.0766 63.5877C79.2312 63.4288 79.4853 63.4255 79.6442 63.5801C82.1661 66.0356 86.4508 69.5225 91.0925 71.9926C95.7592 74.4759 100.666 75.867 104.502 74.3324C106.342 73.5965 107.669 71.6827 108.566 68.9119C109.458 66.1536 109.895 62.6339 110.02 58.8372C110.27 51.2479 109.27 42.6478 108.27 37.0455C108.231 36.8273 108.376 36.6188 108.595 36.5798Z" fill="#000C48"/>
<path fill-rule="evenodd" clip-rule="evenodd" d="M97.3478 46.2147C97.5651 46.1712 97.7766 46.3122 97.8201 46.5295C98.1519 48.1887 98.7899 50.8 99.6225 53.2315C100.039 54.4474 100.501 55.61 100.994 56.583C101.492 57.5647 102.003 58.317 102.504 58.7464C102.595 58.8242 102.646 58.9384 102.644 59.058C102.642 59.1775 102.587 59.2899 102.494 59.3646L100.487 60.9701C100.314 61.1086 100.061 61.0805 99.9227 60.9074C99.7843 60.7343 99.8123 60.4817 99.9854 60.3433L101.637 59.0218C101.148 58.4921 100.694 57.7662 100.278 56.946C99.7622 55.928 99.2862 54.7275 98.863 53.4916C98.0165 51.0195 97.37 48.3727 97.0329 46.687C96.9894 46.4696 97.1304 46.2581 97.3478 46.2147Z" fill="#000C48"/>
<path d="M98.0405 41.5815C97.7134 40.1911 101.032 39.2188 101.182 39.1434C103.118 38.515 105.682 37.8363 106.084 39.1434C106.486 40.4504 104.375 40.9783 102.515 41.5815C100.655 42.1846 98.3421 42.8635 98.0405 41.5815Z" fill="#000C48"/>
<path fill-rule="evenodd" clip-rule="evenodd" d="M105.549 38.1233C105.971 38.2657 106.321 38.55 106.467 39.0254C106.605 39.4731 106.526 39.8795 106.286 40.2216C106.061 40.5417 105.71 40.7854 105.333 40.9822C104.716 41.3046 103.899 41.5632 103.125 41.8079C102.96 41.8602 102.797 41.9118 102.638 41.9633C101.715 42.2627 100.631 42.598 99.733 42.6878C99.286 42.7325 98.8384 42.7221 98.4653 42.5834C98.0663 42.435 97.7594 42.1398 97.6497 41.6734C97.5249 41.1428 97.7641 40.6893 98.0781 40.3514C98.3908 40.0148 98.8258 39.7356 99.2448 39.5144C99.6691 39.2904 100.105 39.1116 100.44 38.9851C100.608 38.9216 100.753 38.8708 100.858 38.8339C100.872 38.8291 100.885 38.8247 100.897 38.8205C100.932 38.8081 100.961 38.7981 100.984 38.7899C101.001 38.7838 101.01 38.7803 101.014 38.7789L101.03 38.7709L101.058 38.7616C102.026 38.4474 103.189 38.1072 104.172 38.0179C104.661 37.9734 105.144 37.9869 105.549 38.1233ZM101.324 39.5194C101.299 39.5299 101.273 39.539 101.257 39.5447C101.256 39.5451 101.255 39.5456 101.254 39.546C101.228 39.5552 101.195 39.5666 101.159 39.5793C101.147 39.5833 101.135 39.5875 101.123 39.5917C101.02 39.6279 100.883 39.6762 100.724 39.7362C100.404 39.8567 100.003 40.022 99.6196 40.2243C99.231 40.4294 98.8884 40.6586 98.6662 40.8978C98.4453 41.1356 98.3924 41.3251 98.4311 41.4896C98.4722 41.6642 98.5675 41.7649 98.7451 41.831C98.9485 41.9066 99.2519 41.9292 99.6531 41.889C100.452 41.8092 101.454 41.5035 102.391 41.1997C102.565 41.1431 102.739 41.0879 102.911 41.0334C103.683 40.7886 104.413 40.5571 104.962 40.2706C105.295 40.0966 105.513 39.9256 105.629 39.7603C105.73 39.6169 105.763 39.4672 105.7 39.2614C105.645 39.0833 105.524 38.9623 105.292 38.884C105.042 38.7996 104.688 38.777 104.244 38.8174C103.366 38.8972 102.287 39.2072 101.324 39.5194Z" fill="#000C48"/>
<path d="M90.066 41.4402C90.2734 40.027 86.0298 40.2442 85.8623 40.225C83.8286 40.2971 80.9121 40.5847 80.9816 41.9504C81.0512 43.3162 83.9081 43.0419 85.8623 42.9719C87.8164 42.9018 89.8586 42.8534 90.066 41.4402Z" fill="#000C48"/>
<path fill-rule="evenodd" clip-rule="evenodd" d="M81.189 40.7931C80.821 41.0674 80.5545 41.4575 80.5807 41.971C80.607 42.4873 80.9107 42.8363 81.309 43.0499C81.6879 43.2531 82.1761 43.3509 82.6766 43.3992C83.4859 43.4774 84.4545 43.4345 85.2986 43.3972C85.4996 43.3883 85.6935 43.3797 85.8766 43.3732C85.9167 43.3717 85.9569 43.3703 85.9973 43.3689C86.9242 43.336 87.9206 43.3006 88.7175 43.099C89.5493 42.8886 90.3232 42.4518 90.4631 41.4986C90.505 41.213 90.4316 40.9551 90.2734 40.7431C90.124 40.5429 89.9121 40.4001 89.6942 40.2953C89.2612 40.0869 88.6909 39.9751 88.1518 39.9114C87.6037 39.8466 87.0481 39.8275 86.6231 39.823C86.4099 39.8208 86.228 39.8222 86.0953 39.8235C86.0775 39.8237 86.0608 39.8239 86.0451 39.8241C86.0015 39.8245 85.9659 39.8249 85.9374 39.825C85.9112 39.8252 85.899 39.8249 85.8957 39.825L85.878 39.8229L85.8479 39.824C84.8274 39.8602 83.5526 39.9509 82.5328 40.2141C82.0257 40.345 81.5456 40.5273 81.189 40.7931ZM85.8583 40.6269C85.8871 40.6281 85.9167 40.6279 85.9361 40.6278C85.9379 40.6278 85.9396 40.6278 85.9412 40.6278C85.9722 40.6277 86.0114 40.6272 86.0559 40.6268C86.0712 40.6266 86.0871 40.6264 86.1035 40.6263C86.2342 40.6249 86.4097 40.6236 86.6146 40.6258C87.026 40.6301 87.5497 40.6486 88.0576 40.7086C88.5744 40.7697 89.0365 40.8697 89.3461 41.0187C89.4995 41.0925 89.5864 41.1648 89.63 41.2232C89.6649 41.27 89.6787 41.3145 89.6688 41.3821C89.6013 41.8421 89.2504 42.1362 88.5207 42.3208C87.8089 42.5008 86.8884 42.5337 85.9216 42.5683C85.8971 42.5691 85.8724 42.57 85.8478 42.5709C85.6484 42.578 85.4428 42.5871 85.234 42.5962C84.3932 42.6331 83.5006 42.6723 82.7537 42.6002C82.287 42.5551 81.9259 42.4698 81.6884 42.3425C81.4704 42.2256 81.3909 42.0968 81.3824 41.9301C81.3738 41.7608 81.4459 41.6028 81.6687 41.4368C81.9029 41.2623 82.266 41.1121 82.7335 40.9914C83.6575 40.7529 84.8491 40.6633 85.8583 40.6269Z" fill="#000C48"/>
<path d="M87.6795 46.5088C87.6795 48.1154 87.1006 49.4177 86.3865 49.4177C85.6723 49.4177 85.0934 48.1154 85.0934 46.5088C85.0934 44.9022 85.6723 43.5999 86.3865 43.5999C87.1006 43.5999 87.6795 44.9022 87.6795 46.5088Z" fill="#000C48"/>
<path d="M104.631 45.5703C104.631 47.1769 104.052 48.4793 103.338 48.4793C102.624 48.4793 102.045 47.1769 102.045 45.5703C102.045 43.9638 102.624 42.6614 103.338 42.6614C104.052 42.6614 104.631 43.9638 104.631 45.5703Z" fill="#000C48"/>
<path fill-rule="evenodd" clip-rule="evenodd" d="M168.057 77.3315L190.29 78.4526L190.159 78.9343C186.782 91.2717 181.446 110.062 176.413 126.337C173.897 134.474 171.456 141.986 169.372 147.75C168.33 150.632 167.376 153.082 166.545 154.957C166.129 155.895 165.743 156.693 165.389 157.332C165.039 157.965 164.709 158.465 164.402 158.786C161.63 161.697 156.687 164.269 150.875 165.586C145.055 166.905 138.316 166.976 131.931 164.832L131.718 164.761L131.668 164.541C129.718 156.036 126.549 142.769 123.383 130.612C121.8 124.533 120.217 118.735 118.789 113.95C117.357 109.155 116.087 105.403 115.13 103.401C115.035 103.201 115.119 102.961 115.319 102.866C115.52 102.77 115.759 102.855 115.855 103.055C116.842 105.122 118.128 108.931 119.558 113.72C120.99 118.518 122.575 124.327 124.16 130.41C127.301 142.471 130.444 155.623 132.4 164.142C138.557 166.158 145.059 166.081 150.698 164.803C156.41 163.509 161.191 160.994 163.821 158.233C164.055 157.987 164.345 157.56 164.686 156.943C165.025 156.332 165.401 155.557 165.811 154.632C166.631 152.782 167.578 150.351 168.617 147.478C170.695 141.731 173.132 134.232 175.646 126.1C180.61 110.046 185.871 91.54 189.252 79.2041L168.629 78.1642L148.392 140.062L147.982 139.03C145.97 133.954 141.467 122.759 139.527 118.521C139.11 117.609 138.519 116.163 137.787 114.373C137.446 113.538 137.074 112.628 136.675 111.663C135.417 108.62 133.881 105.006 132.158 101.386C130.434 97.7642 128.527 94.1441 126.528 91.0858C124.523 88.019 122.449 85.5545 120.404 84.2052C117.122 82.0405 112.061 81.3034 106.999 81.2914C101.955 81.2795 96.9916 81.9867 93.9692 82.6418C93.7525 82.6888 93.5388 82.5512 93.4919 82.3346C93.4449 82.1179 93.5825 81.9042 93.7991 81.8573C96.869 81.1919 101.891 80.4766 107.001 80.4887C112.093 80.5007 117.357 81.2341 120.846 83.5351C123.032 84.977 125.178 87.5545 127.2 90.6466C129.227 93.7472 131.151 97.4031 132.883 101.041C134.615 104.68 136.157 108.308 137.417 111.356C137.822 112.336 138.198 113.255 138.54 114.093C139.267 115.87 139.847 117.291 140.257 118.187C142.084 122.179 146.159 132.275 148.319 137.702L168.057 77.3315Z" fill="#000C48"/>
<path fill-rule="evenodd" clip-rule="evenodd" d="M71.9985 81.2916C72.6515 81.149 73.3868 81.237 73.8618 81.3538C74.077 81.4067 74.2086 81.6241 74.1557 81.8394C74.1027 82.0547 73.8853 82.1863 73.67 82.1333C73.2619 82.0329 72.6597 81.9689 72.1698 82.0759C71.9284 82.1286 71.7418 82.2169 71.6149 82.3357C71.4962 82.4468 71.4057 82.6061 71.3868 82.8591C71.3763 82.9992 71.4109 83.2548 71.5297 83.6177C71.6454 83.9715 71.8313 84.398 72.0931 84.8685C72.6167 85.8092 73.4337 86.9074 74.5672 87.9329C76.8279 89.9781 80.3486 91.7355 85.3322 91.375C90.3339 91.0132 93.4141 89.0182 95.1053 87.0564C95.9545 86.0712 96.4518 85.0968 96.6706 84.3412C96.7806 83.9616 96.8155 83.6535 96.8005 83.4353C96.7864 83.2302 96.7347 83.168 96.7278 83.1596C96.7267 83.1583 96.7267 83.1583 96.7279 83.1592C96.3541 82.9003 95.8578 82.7676 95.3612 82.7172C94.8681 82.6671 94.4143 82.7023 94.1593 82.7469C93.941 82.7851 93.733 82.6391 93.6948 82.4207C93.6566 82.2023 93.8026 81.9943 94.021 81.9561C94.345 81.8994 94.8727 81.8607 95.4422 81.9185C96.0081 81.9759 96.6554 82.1326 97.1849 82.4991C97.4768 82.7012 97.5791 83.0576 97.6014 83.3801C97.6248 83.7205 97.5685 84.1266 97.4417 84.5646C97.1869 85.4443 96.6283 86.5192 95.7133 87.5806C93.8759 89.712 90.5939 91.7993 85.3901 92.1757C80.1681 92.5535 76.4364 90.7064 74.0286 88.5282C72.8278 87.4419 71.9566 86.2738 71.3917 85.2588C71.1093 84.7515 70.901 84.2779 70.7667 83.8674C70.6354 83.4661 70.5642 83.0933 70.5862 82.7991C70.6194 82.3573 70.792 82.0063 71.0663 81.7496C71.3323 81.5007 71.6685 81.3637 71.9985 81.2916Z" fill="#000C48"/>
<path fill-rule="evenodd" clip-rule="evenodd" d="M131.604 161.789C131.681 161.997 131.575 162.228 131.367 162.305C89.6297 177.727 58.8658 166.943 52.2168 164.21C52.0117 164.126 51.9139 163.891 51.9981 163.686C52.0824 163.481 52.317 163.383 52.522 163.467C59.0565 166.154 89.6024 176.882 131.088 161.552C131.296 161.475 131.527 161.581 131.604 161.789Z" fill="#000C48"/>
<path d="M174.58 72.7063C174.405 74.9335 172.317 76.971 171.295 77.7113L185.621 78.561C185.833 77.7119 186.852 75.4936 189.23 73.4133C192.202 70.8129 213.748 69.1146 213.27 68.2655C212.793 67.4164 206.212 67.1511 190.769 67.841C178.414 68.3929 176.633 64.4014 173.548 63.6974C170.462 62.9934 174.799 69.9223 174.58 72.7063Z" fill="white"/>
<path fill-rule="evenodd" clip-rule="evenodd" d="M174.459 69.9037C174.786 70.9301 175.042 71.9544 174.98 72.7379C174.884 73.9605 174.268 75.1 173.574 76.01C173.173 76.5362 172.735 76.9986 172.333 77.3709L185.328 78.1417C185.694 77.0695 186.777 75.0264 188.965 73.1114C189.401 72.7306 190.128 72.3993 191.006 72.1005C191.899 71.7968 192.998 71.5101 194.22 71.2396C196.665 70.6982 199.634 70.2139 202.484 69.7859C203.698 69.6036 204.888 69.4318 206.009 69.27C207.528 69.0507 208.92 68.8498 210.07 68.6662C211.012 68.5158 211.777 68.3791 212.308 68.2561C212.131 68.216 211.918 68.1775 211.667 68.1414C210.766 68.0113 209.435 67.9205 207.622 67.8775C204.001 67.7916 198.506 67.8973 190.787 68.2421C184.563 68.5201 180.966 67.6548 178.524 66.6093C177.425 66.1385 176.566 65.6338 175.829 65.2003C175.751 65.1547 175.675 65.1099 175.6 65.066C174.803 64.5995 174.162 64.2494 173.458 64.0889C173.116 64.0108 172.988 64.0663 172.949 64.0941C172.917 64.1177 172.851 64.1922 172.839 64.4374C172.826 64.6777 172.87 65.0043 172.966 65.4121C173.062 65.8149 173.203 66.2721 173.369 66.7658C173.503 67.1636 173.657 67.5931 173.814 68.0324C174.037 68.6573 174.268 69.3021 174.459 69.9037ZM172.48 63.4426C172.796 63.2153 173.207 63.2083 173.637 63.3062C174.476 63.4977 175.215 63.9106 176.005 64.3732C176.081 64.4173 176.157 64.4621 176.234 64.5074C176.973 64.9415 177.79 65.4216 178.84 65.8713C181.149 66.8596 184.62 67.714 190.751 67.4401C198.475 67.0951 203.992 66.9884 207.641 67.075C209.464 67.1182 210.833 67.2099 211.782 67.3468C212.255 67.4151 212.639 67.4967 212.929 67.5954C213.074 67.6448 213.207 67.7024 213.32 67.7721C213.43 67.8401 213.545 67.9348 213.62 68.0689C213.673 68.1626 213.695 68.2777 213.668 68.3958C213.643 68.5028 213.586 68.5785 213.542 68.6246C213.46 68.7108 213.355 68.7656 213.277 68.8007C213.108 68.8768 212.869 68.9469 212.591 69.0141C212.025 69.151 211.197 69.2992 210.197 69.4589C209.043 69.6431 207.639 69.8458 206.112 70.0662C204.992 70.228 203.805 70.3993 202.603 70.5797C199.755 71.0074 196.81 71.4884 194.394 72.0233C193.185 72.2909 192.118 72.5702 191.265 72.8604C190.398 73.1555 189.802 73.4462 189.494 73.7155C187.173 75.7466 186.201 77.8955 186.01 78.6585L185.93 78.9816L170.15 78.0456L171.06 77.3864C171.542 77.0373 172.29 76.3698 172.936 75.5231C173.585 74.6724 174.101 73.6797 174.18 72.675C174.227 72.0665 174.023 71.1807 173.694 70.1469C173.504 69.5471 173.286 68.939 173.069 68.3335C172.911 67.8936 172.754 67.455 172.608 67.0221C172.439 66.5197 172.289 66.0354 172.185 65.5971C172.083 65.1637 172.019 64.7497 172.037 64.3959C172.055 64.047 172.159 63.6739 172.48 63.4426Z" fill="#000C48"/>
<path d="M211.142 65.7671C210.1 65.0818 198.235 66.7379 192.432 67.6517H209.874C210.73 67.309 212.183 66.4524 211.142 65.7671Z" fill="white"/>
<path fill-rule="evenodd" clip-rule="evenodd" d="M197.874 67.2503H209.795C210.194 67.0833 210.669 66.8231 210.935 66.5551C211.079 66.4096 211.102 66.3222 211.102 66.2956C211.102 66.2892 211.102 66.2761 211.085 66.2495C211.065 66.2186 211.019 66.1669 210.921 66.1024C210.922 66.1033 210.922 66.1032 210.92 66.1021C210.909 66.098 210.863 66.0795 210.755 66.0607C210.633 66.0396 210.468 66.0237 210.26 66.0148C209.843 65.9971 209.286 66.0084 208.617 66.0447C207.279 66.1173 205.527 66.2875 203.619 66.5085C201.764 66.7233 199.768 66.9853 197.874 67.2503ZM210.892 65.2698C211.049 65.2971 211.225 65.3415 211.362 65.4318C211.688 65.6458 211.911 65.9392 211.905 66.3093C211.899 66.6468 211.7 66.9235 211.504 67.1206C211.106 67.5221 210.467 67.8466 210.023 68.0244L209.951 68.0531H192.433L192.37 67.2552C195.275 66.7978 199.697 66.1545 203.526 65.711C205.44 65.4894 207.211 65.317 208.573 65.2431C209.253 65.2063 209.839 65.1935 210.294 65.2128C210.52 65.2224 210.723 65.2404 210.892 65.2698Z" fill="#000C48"/>
<path d="M170.344 194.011C170.344 197.871 132.347 201 85.4743 201C38.602 201 0.604492 197.871 0.604492 194.011C0.604492 190.151 38.602 187.021 85.4743 187.021C132.347 187.021 170.344 190.151 170.344 194.011Z" fill="#D1D1D1"/>
</svg>
