<svg width="633" height="549" viewBox="0 0 633 549" fill="none" xmlns="http://www.w3.org/2000/svg">
<path d="M143 20C143 8.95431 151.954 0 163 0H633V549H163C151.954 549 143 540.046 143 529V20Z" fill="#EFEFEF"/>
<path d="M361.673 335.165C361.673 327.985 367.493 322.165 374.673 322.165H479.428C486.607 322.165 492.428 327.985 492.428 335.165V434.718C492.428 441.898 486.607 447.718 479.428 447.718H374.673C367.493 447.718 361.673 441.898 361.673 434.718V335.165Z" fill="white"/>
<path d="M404.402 391.856L425.075 369.059L442.066 367.926L460.756 386.333L464.644 442.117L417.57 443.254L404.402 425.98V391.856Z" fill="#000C48"/>
<path d="M469.292 374.796C463.2 368.948 448.376 367.79 441.725 367.943L459.086 387.453L461.997 426.751C454.885 423.59 424 428.66 429.137 428.199C433.246 427.83 435.18 437.627 435.633 442.571C449.137 443.028 476.846 443.15 479.648 439.982C483.151 436.022 476.907 382.107 469.292 374.796Z" fill="#000C48"/>
<path d="M421.458 430.803C422.586 431.169 428.966 430.447 432.015 430.041C433.646 431.05 435.622 437.046 436.053 440.175C434.942 439.612 430.517 439.508 426.774 439.75C423.03 439.993 418.501 441.077 416.424 441.813L409.972 432.547L416.058 432.059C415.147 432.081 413.142 432.014 413.806 431.214C415.669 428.971 420.048 430.346 421.458 430.803Z" fill="white"/>
<path fill-rule="evenodd" clip-rule="evenodd" d="M417.842 429.497C419.409 429.623 420.905 430.098 421.612 430.327C421.686 430.351 421.853 430.378 422.135 430.393C422.406 430.406 422.745 430.407 423.141 430.396C423.931 430.373 424.918 430.306 425.973 430.213C428.08 430.029 430.43 429.748 431.949 429.545L432.127 429.521L432.279 429.616C432.804 429.94 433.285 430.605 433.71 431.366C434.148 432.149 434.572 433.116 434.953 434.138C435.714 436.18 436.326 438.498 436.548 440.107L436.678 441.053L435.827 440.621C435.631 440.522 435.221 440.417 434.594 440.333C433.986 440.25 433.229 440.193 432.381 440.16C430.688 440.095 428.663 440.129 426.806 440.249C423.112 440.488 418.629 441.563 416.591 442.285L416.232 442.412L409.064 432.118L413.228 431.784C413.186 431.681 413.166 431.564 413.177 431.437C413.196 431.219 413.304 431.037 413.421 430.895C414.517 429.576 416.3 429.374 417.842 429.497ZM416.084 432.558C416.253 432.554 416.392 432.546 416.475 432.539C416.495 432.537 416.52 432.534 416.544 432.531C416.554 432.529 416.578 432.526 416.607 432.518C416.618 432.515 416.655 432.505 416.699 432.484C416.719 432.475 416.767 432.45 416.817 432.405C416.861 432.365 416.973 432.25 416.982 432.058C416.993 431.85 416.878 431.714 416.814 431.658C416.753 431.604 416.694 431.579 416.671 431.569C416.621 431.549 416.578 431.541 416.567 431.539C416.535 431.534 416.509 431.532 416.499 431.531C416.474 431.53 416.447 431.529 416.424 431.529H416.404L416.032 431.559C415.583 431.57 414.912 431.556 414.446 431.456C414.389 431.443 414.338 431.431 414.294 431.417C415.074 430.59 416.359 430.382 417.762 430.494C419.202 430.61 420.6 431.05 421.304 431.279C421.512 431.346 421.791 431.377 422.085 431.391C422.392 431.407 422.76 431.407 423.169 431.395C423.987 431.372 424.997 431.303 426.06 431.21C428.098 431.031 430.354 430.764 431.885 430.562C432.154 430.786 432.481 431.217 432.837 431.854C433.242 432.577 433.645 433.493 434.016 434.488C434.639 436.159 435.155 438.009 435.428 439.459C435.211 439.414 434.975 439.375 434.728 439.342C434.077 439.254 433.286 439.194 432.42 439.161C430.688 439.094 428.628 439.129 426.741 439.251C423.152 439.484 418.863 440.477 416.619 441.218L410.88 432.976L416.084 432.558ZM414.162 431.574C414.161 431.575 414.162 431.574 414.162 431.574V431.574Z" fill="#000C48"/>
<path fill-rule="evenodd" clip-rule="evenodd" d="M455.625 369.61C450.366 368.617 445.033 368.367 441.736 368.442C441.46 368.449 441.231 368.23 441.225 367.954C441.219 367.678 441.438 367.449 441.714 367.443C445.068 367.366 450.472 367.619 455.811 368.628C461.126 369.632 466.48 371.404 469.638 374.436C470.669 375.426 471.632 377.15 472.53 379.344C473.434 381.554 474.295 384.299 475.099 387.383C476.707 393.552 478.095 401.121 479.135 408.576C480.174 416.033 480.866 423.389 481.079 429.136C481.185 432.007 481.172 434.489 481.02 436.384C480.944 437.33 480.833 438.144 480.68 438.792C480.531 439.421 480.328 439.968 480.023 440.313C479.785 440.582 479.446 440.802 479.057 440.989C478.663 441.178 478.186 441.348 477.643 441.502C476.558 441.811 475.166 442.068 473.554 442.283C470.327 442.713 466.16 442.981 461.671 443.135C452.69 443.444 442.375 443.299 435.616 443.071L435.175 443.056L435.135 442.617C434.91 440.168 434.319 436.526 433.284 433.557C432.765 432.069 432.147 430.788 431.434 429.909C430.722 429.033 429.977 428.626 429.182 428.697C429.018 428.712 428.884 428.722 428.781 428.726C428.702 428.73 428.58 428.734 428.482 428.714C428.46 428.71 428.373 428.692 428.286 428.633C428.237 428.6 428.154 428.531 428.103 428.409C428.046 428.273 428.057 428.135 428.099 428.028C428.162 427.871 428.284 427.795 428.304 427.783L428.305 427.782C428.344 427.757 428.38 427.741 428.4 427.733C428.476 427.701 428.576 427.675 428.665 427.654C429.054 427.56 429.886 427.409 431.026 427.229C433.319 426.866 436.93 426.373 440.923 425.965C444.915 425.557 449.299 425.232 453.137 425.208C455.056 425.196 456.846 425.26 458.387 425.427C459.548 425.553 460.587 425.741 461.441 426.01L458.587 387.49C458.567 387.215 458.774 386.975 459.049 386.954C459.324 386.934 459.564 387.141 459.585 387.416L462.557 427.547L461.794 427.207C460.976 426.844 459.777 426.584 458.279 426.421C456.789 426.259 455.04 426.196 453.143 426.208C449.35 426.232 445.001 426.553 441.025 426.96C437.05 427.366 433.458 427.857 431.182 428.217C431.15 428.222 431.119 428.227 431.087 428.232C431.498 428.503 431.872 428.863 432.21 429.279C433.029 430.288 433.693 431.695 434.228 433.228C435.239 436.125 435.832 439.606 436.088 442.086C442.835 442.305 452.878 442.437 461.637 442.136C466.113 441.982 470.243 441.715 473.422 441.291C475.012 441.079 476.351 440.83 477.37 440.54C477.879 440.396 478.298 440.244 478.624 440.087C478.955 439.928 479.161 439.778 479.274 439.651C479.406 439.501 479.565 439.162 479.706 438.563C479.843 437.983 479.949 437.225 480.023 436.304C480.17 434.464 480.185 432.026 480.079 429.172C479.868 423.468 479.18 416.146 478.144 408.715C477.108 401.283 475.727 393.754 474.131 387.635C473.334 384.574 472.485 381.877 471.604 379.723C470.717 377.554 469.818 375.995 468.946 375.157C466.011 372.34 460.908 370.609 455.625 369.61Z" fill="white"/>
<path fill-rule="evenodd" clip-rule="evenodd" d="M455.625 369.61C450.366 368.617 445.033 368.367 441.736 368.442C441.46 368.449 441.231 368.23 441.225 367.954C441.219 367.678 441.438 367.449 441.714 367.443C445.068 367.366 450.472 367.619 455.811 368.628C461.125 369.632 466.48 371.404 469.638 374.436C470.669 375.426 471.632 377.15 472.53 379.344C473.434 381.554 474.295 384.299 475.099 387.383C476.707 393.552 478.095 401.121 479.135 408.576C480.174 416.033 480.866 423.389 481.079 429.136C481.185 432.007 481.172 434.489 481.02 436.384C480.944 437.33 480.833 438.144 480.68 438.792C480.531 439.421 480.328 439.968 480.023 440.313C479.785 440.582 479.446 440.802 479.057 440.989C478.663 441.178 478.186 441.348 477.643 441.502C476.558 441.811 475.166 442.068 473.554 442.283C470.327 442.713 466.16 442.981 461.671 443.135C452.69 443.444 442.375 443.299 435.616 443.071C435.34 443.061 435.124 442.83 435.133 442.554C435.142 442.278 435.374 442.062 435.65 442.071C442.395 442.299 452.686 442.444 461.637 442.136C466.113 441.982 470.243 441.715 473.422 441.291C475.012 441.079 476.351 440.83 477.37 440.54C477.879 440.396 478.298 440.244 478.624 440.087C478.955 439.928 479.161 439.778 479.274 439.651C479.406 439.501 479.565 439.162 479.706 438.563C479.843 437.983 479.949 437.225 480.023 436.304C480.17 434.464 480.185 432.026 480.079 429.172C479.868 423.468 479.18 416.146 478.144 408.715C477.108 401.283 475.727 393.754 474.131 387.635C473.334 384.574 472.485 381.877 471.604 379.723C470.717 377.554 469.818 375.995 468.946 375.157C466.011 372.34 460.908 370.609 455.625 369.61Z" fill="#000C48"/>
<path d="M398.148 374.832C403.025 371.449 418.143 369.751 425.092 369.325L404.539 392.041L404.539 425.993L385.527 410.851C387.396 401.28 393.27 378.215 398.148 374.832Z" fill="#000C48"/>
<path fill-rule="evenodd" clip-rule="evenodd" d="M425.591 369.295C425.608 369.57 425.398 369.807 425.123 369.824C421.662 370.036 416.164 370.566 410.927 371.463C408.309 371.911 405.765 372.45 403.577 373.085C401.379 373.722 399.584 374.445 398.432 375.243C397.906 375.608 397.324 376.291 396.705 377.28C396.092 378.261 395.467 379.504 394.839 380.947C393.585 383.833 392.341 387.476 391.188 391.325C388.932 398.856 387.034 407.129 386.08 411.954L404.04 424.799V392.041C404.04 391.765 404.263 391.541 404.54 391.541C404.816 391.541 405.04 391.765 405.04 392.041V426.744L384.975 412.393L385.036 412.077C385.973 407.279 387.912 398.773 390.23 391.038C391.388 387.172 392.645 383.486 393.922 380.548C394.561 379.08 395.209 377.788 395.858 376.75C396.501 375.721 397.169 374.902 397.863 374.421C399.15 373.528 401.073 372.77 403.299 372.124C405.535 371.476 408.119 370.929 410.759 370.477C416.038 369.573 421.573 369.04 425.062 368.826C425.337 368.809 425.574 369.019 425.591 369.295Z" fill="white"/>
<path d="M361.673 155.179C361.673 147.999 367.493 142.179 374.673 142.179H479.428C486.607 142.179 492.428 147.999 492.428 155.179V247.065C492.428 254.245 486.607 260.065 479.428 260.065H374.673C367.493 260.065 361.673 254.245 361.673 247.065V155.179Z" fill="white"/>
<path d="M325.235 179.774C325.235 177.012 327.473 174.774 330.235 174.774H396.814C399.576 174.774 401.814 177.012 401.814 179.774V207.943C401.814 210.705 399.576 212.943 396.814 212.943H330.235C327.473 212.943 325.235 210.705 325.235 207.943V179.774Z" fill="#5397F5"/>
<path d="M460.622 172.79C456.92 167.011 451.053 167.99 448.582 169.202L442.833 190.142C445.019 191.121 449.532 195.445 451.333 207.27C453.585 222.051 462.884 222.737 466.506 222.835C470.128 222.932 468.66 218.919 465.527 212.067C462.395 205.214 465.249 180.014 460.622 172.79Z" fill="#17202E"/>
<path d="M460.622 172.79C456.92 167.011 451.053 167.99 448.582 169.202L442.833 190.142C445.019 191.121 449.532 195.445 451.333 207.27C453.585 222.051 462.884 222.737 466.506 222.835C470.128 222.932 468.66 218.919 465.527 212.067C462.395 205.214 465.249 180.014 460.622 172.79Z" fill="#17202E"/>
<path fill-rule="evenodd" clip-rule="evenodd" d="M449.003 169.556L443.423 189.879C445.905 191.247 450.107 195.898 451.827 207.195C452.937 214.478 455.765 218.205 458.682 220.142C461.619 222.092 464.729 222.286 466.52 222.335C467.346 222.357 467.725 222.143 467.91 221.874C468.118 221.57 468.204 221.03 468.056 220.139C467.764 218.37 466.647 215.719 465.073 212.274C464.247 210.468 463.836 207.521 463.591 204.09C463.395 201.342 463.303 198.224 463.21 195.038C463.186 194.223 463.162 193.403 463.135 192.584C463.007 188.554 462.833 184.533 462.404 181.073C461.972 177.592 461.292 174.763 460.201 173.06C458.432 170.297 456.17 169.175 454.068 168.869C452.063 168.577 450.182 169.026 449.003 169.556ZM454.212 167.879C456.588 168.225 459.111 169.503 461.043 172.52C462.266 174.43 462.964 177.46 463.396 180.95C463.831 184.46 464.007 188.522 464.135 192.552C464.161 193.378 464.185 194.202 464.21 195.02C464.303 198.204 464.394 201.294 464.589 204.019C464.835 207.466 465.242 210.239 465.982 211.859C467.54 215.266 468.724 218.048 469.043 219.975C469.201 220.931 469.171 221.805 468.734 222.44C468.273 223.11 467.477 223.361 466.493 223.334C464.662 223.285 461.311 223.088 458.129 220.975C454.928 218.85 451.981 214.844 450.839 207.345C449.05 195.602 444.594 191.479 442.628 190.599L442.237 190.423L448.159 168.852L448.361 168.753C449.673 168.109 451.859 167.536 454.212 167.879Z" fill="#000C48"/>
<path d="M379.309 255.513C381.87 247.074 402.54 220.62 405.764 217.206L407.281 229.153C397.104 240.753 377.261 262.264 379.309 255.513Z" fill="white"/>
<path fill-rule="evenodd" clip-rule="evenodd" d="M406.126 216.094L407.805 229.314L407.657 229.483C402.565 235.286 395.052 243.573 389.064 249.568C386.077 252.559 383.445 255.004 381.677 256.279C381.234 256.599 380.831 256.855 380.48 257.029C380.15 257.193 379.789 257.324 379.458 257.292C379.274 257.274 379.083 257.204 378.93 257.05C378.781 256.901 378.71 256.714 378.681 256.539C378.626 256.21 378.698 255.805 378.831 255.368C379.493 253.185 381.301 249.897 383.647 246.18C386.003 242.447 388.935 238.233 391.883 234.181C397.774 226.086 403.764 218.595 405.4 216.863L406.126 216.094ZM384.492 246.714C382.142 250.438 380.406 253.621 379.788 255.658C379.695 255.963 379.665 256.162 379.662 256.281C379.741 256.261 379.863 256.219 380.036 256.133C380.317 255.994 380.67 255.772 381.092 255.468C382.787 254.246 385.367 251.854 388.357 248.861C394.265 242.946 401.674 234.78 406.756 228.993L405.406 218.358C403.16 220.965 397.9 227.612 392.692 234.769C389.75 238.812 386.832 243.007 384.492 246.714Z" fill="#000C48"/>
<path d="M405.816 217.389C411.924 211.703 422.227 209.491 426.615 209.096H444.518L457.629 218.311L463.21 251.878L438.989 260.435H411.082L405.816 217.389Z" fill="white"/>
<path fill-rule="evenodd" clip-rule="evenodd" d="M426.593 208.596H444.676L458.088 218.022L463.772 252.21L439.075 260.935H410.639L405.289 217.197L405.476 217.023C408.602 214.112 412.779 212.109 416.701 210.785C420.626 209.459 424.338 208.799 426.57 208.598L426.593 208.596ZM426.638 209.596C424.479 209.793 420.857 210.436 417.021 211.732C413.247 213.007 409.305 214.899 406.344 217.584L411.524 259.935H438.903L462.648 251.547L457.17 218.599L444.36 209.596H426.638Z" fill="#000C48"/>
<path d="M452.701 227.319L458.621 250.598L439.351 260.41H413.863C412.084 260.443 411.023 260.41 411.023 260.41H413.863C420.16 260.291 435.452 259.33 444.487 253.055C456.073 245.008 452.701 227.319 452.701 227.319Z" fill="#C7CFDA"/>
<path fill-rule="evenodd" clip-rule="evenodd" d="M426.593 208.596H444.676L458.088 218.022L463.772 252.21L439.075 260.935H410.639L405.289 217.197L405.476 217.023C408.602 214.112 412.779 212.109 416.701 210.785C420.626 209.459 424.338 208.799 426.57 208.598L426.593 208.596ZM426.638 209.596C424.479 209.793 420.857 210.436 417.021 211.732C413.247 213.007 409.305 214.899 406.344 217.584L411.524 259.935H438.903L462.648 251.547L457.17 218.599L444.36 209.596H426.638Z" fill="#000C48"/>
<path d="M405.883 212.68C405.846 211.551 406.752 210.616 407.882 210.616H417.495C418.586 210.616 419.476 211.49 419.495 212.581L419.853 233.115C419.873 234.233 418.972 235.15 417.854 235.15H408.541C407.461 235.15 406.576 234.293 406.542 233.214L405.883 212.68Z" fill="#5397F5"/>
<path fill-rule="evenodd" clip-rule="evenodd" d="M417.495 211.616H407.882C407.317 211.616 406.864 212.083 406.882 212.648L407.541 233.182C407.558 233.722 408.001 234.15 408.541 234.15H417.854C418.413 234.15 418.863 233.692 418.853 233.132L418.495 212.598C418.485 212.053 418.04 211.616 417.495 211.616ZM407.882 210.616C406.752 210.616 405.846 211.551 405.883 212.68L406.542 233.214C406.576 234.293 407.461 235.15 408.541 235.15H417.854C418.972 235.15 419.873 234.233 419.853 233.115L419.495 212.581C419.476 211.49 418.586 210.616 417.495 210.616H407.882Z" fill="#000C48"/>
<path fill-rule="evenodd" clip-rule="evenodd" d="M409.749 213.338H409.679C409.126 213.338 408.679 213.786 408.679 214.338V214.408C408.679 214.96 409.126 215.408 409.679 215.408H409.749C410.301 215.408 410.749 214.96 410.749 214.408V214.338C410.749 213.786 410.301 213.338 409.749 213.338ZM409.679 212.338C408.574 212.338 407.679 213.234 407.679 214.338V214.408C407.679 215.513 408.574 216.408 409.679 216.408H409.749C410.853 216.408 411.749 215.513 411.749 214.408V214.338C411.749 213.234 410.853 212.338 409.749 212.338H409.679Z" fill="#000C48"/>
<path d="M462.162 213.991C459.217 211.047 449.342 209.803 444.773 209.549L455.942 227.445L458.354 250.419L421.292 229.222L413.93 239.63L438.681 260.065H472.189C470.073 245.934 465.106 216.936 462.162 213.991Z" fill="white"/>
<path fill-rule="evenodd" clip-rule="evenodd" d="M444.274 209.521C444.289 209.245 444.525 209.034 444.801 209.05C447.104 209.178 450.741 209.555 454.179 210.272C455.897 210.63 457.578 211.076 459.022 211.623C460.456 212.166 461.704 212.827 462.515 213.638C462.751 213.874 462.971 214.211 463.179 214.606C463.39 215.007 463.603 215.496 463.818 216.058C464.248 217.183 464.697 218.63 465.156 220.314C466.073 223.684 467.038 228.039 467.976 232.735C469.853 242.13 471.625 252.921 472.683 259.991L472.769 260.565H438.501L413.254 239.72L421.146 228.563L457.591 249.406L452.158 227.227C452.092 226.959 452.256 226.688 452.524 226.622C452.792 226.557 453.063 226.721 453.129 226.989L459.117 251.431L421.438 229.882L414.606 239.54L438.86 259.565H471.608C470.543 252.504 468.818 242.054 466.996 232.931C466.06 228.243 465.099 223.914 464.191 220.577C463.736 218.907 463.297 217.496 462.884 216.415C462.677 215.875 462.48 215.426 462.294 215.071C462.104 214.711 461.94 214.477 461.808 214.345C461.147 213.684 460.056 213.084 458.668 212.558C457.289 212.036 455.664 211.603 453.974 211.25C450.596 210.546 447.011 210.174 444.745 210.048C444.469 210.033 444.258 209.797 444.274 209.521Z" fill="#000C48"/>
<path d="M428.539 175.735C419.905 176.447 412.721 174.83 409.494 173.735C413.02 161.404 426.94 154.861 440.154 160.618C450.726 165.225 446.063 186.016 442.615 196.098L440.624 187.34L441.279 174.233C440.63 174.437 437.174 175.023 428.539 175.735Z" fill="#222D3D"/>
<path fill-rule="evenodd" clip-rule="evenodd" d="M407.585 173.206C411.204 160.548 426.489 153.774 439.946 159.637C442.746 160.857 444.541 163.179 445.608 166.073C446.672 168.959 447.025 172.44 446.938 176.055C446.763 183.287 444.822 191.189 443.088 196.259L442.518 197.926L440.121 187.384L440.747 174.868C440.166 174.98 439.261 175.123 437.968 175.29C435.934 175.552 432.903 175.877 428.58 176.234C419.86 176.953 411.178 174.926 407.905 173.817L407.454 173.664L407.585 173.206ZM408.685 173.019C412.171 174.121 420.332 175.911 428.498 175.237C432.81 174.881 435.825 174.558 437.84 174.298C439.874 174.036 440.855 173.843 441.13 173.756L441.815 173.541L441.127 187.297L442.701 194.221C444.248 189.251 445.785 182.363 445.938 176.031C446.024 172.482 445.674 169.141 444.67 166.419C443.67 163.707 442.032 161.637 439.546 160.554C426.742 154.975 412.355 161.308 408.685 173.019Z" fill="#000C48"/>
<path d="M420.693 205.39C411.255 206.254 411.277 185.313 412.468 174.734C422.94 176.814 436.05 175.336 441.296 174.337L440.806 183.396C441.247 182.53 442.792 180.749 445.451 180.549C448.774 180.3 447.943 184.953 446.697 187.113C445.7 188.841 443.747 190.145 442.861 190.256C442.29 191.072 442.339 191.036 441.472 192.07C440.311 193.454 438.058 195.317 436.477 196.815C432.141 200.921 426.456 204.863 420.693 205.39Z" fill="white"/>
<path fill-rule="evenodd" clip-rule="evenodd" d="M445.299 183.227C445.406 183.482 445.287 183.775 445.032 183.882C442.912 184.773 442.589 186.308 442.635 186.836C442.659 187.111 442.456 187.354 442.181 187.378C441.906 187.402 441.663 187.199 441.639 186.924C441.554 185.959 442.127 184.019 444.645 182.96C444.899 182.853 445.192 182.973 445.299 183.227Z" fill="#000C48"/>
<path fill-rule="evenodd" clip-rule="evenodd" d="M441.83 173.726L441.391 181.837C442.257 181.005 443.597 180.187 445.413 180.051C446.37 179.979 447.11 180.262 447.604 180.842C448.076 181.397 448.259 182.153 448.287 182.909C448.343 184.421 447.792 186.216 447.13 187.363C446.589 188.3 445.695 189.209 444.839 189.892C444.408 190.236 443.975 190.532 443.585 190.752C443.211 190.963 442.826 191.133 442.503 191.173C442.229 191.207 441.979 191.013 441.945 190.739C441.911 190.465 442.105 190.215 442.379 190.181C442.5 190.166 442.744 190.078 443.094 189.881C443.43 189.692 443.818 189.428 444.216 189.11C445.017 188.471 445.808 187.653 446.264 186.863C446.849 185.849 447.336 184.238 447.288 182.946C447.264 182.301 447.109 181.804 446.842 181.49C446.596 181.2 446.193 180.995 445.488 181.048C443.043 181.231 441.633 182.874 441.252 183.623L440.307 183.369L440.762 174.943C435.229 175.922 422.976 177.198 412.906 175.327C412.353 180.579 412.107 188.1 413.088 194.275C413.597 197.474 414.428 200.26 415.678 202.18C416.912 204.076 418.52 205.087 420.647 204.892C426.238 204.381 431.819 200.538 436.133 196.452C436.333 196.262 436.65 196.271 436.84 196.471C437.029 196.672 437.021 196.988 436.82 197.178C432.464 201.304 426.675 205.345 420.738 205.888C418.147 206.126 416.218 204.843 414.84 202.725C413.476 200.631 412.617 197.682 412.101 194.432C411.066 187.92 411.373 179.99 411.971 174.678L412.032 174.137L412.565 174.243C422.946 176.306 435.983 174.84 441.202 173.846L441.83 173.726Z" fill="#000C48"/>
<path d="M0.755127 130.565C0.755127 122.281 7.47086 115.565 15.7551 115.565H258.428C266.712 115.565 273.428 122.281 273.428 130.565V383.028C273.428 391.312 266.712 398.028 258.428 398.028H15.7551C7.47084 398.028 0.755127 391.312 0.755127 383.028V130.565Z" fill="white"/>
<path d="M40.4171 233.497L74.0258 248.359L52.5731 296.871L18.9644 282.009L40.4171 233.497Z" fill="white"/>
<path fill-rule="evenodd" clip-rule="evenodd" d="M72.7068 248.869L40.9272 234.816L20.2834 281.499L52.063 295.552L72.7068 248.869ZM40.4171 233.497L18.9644 282.009L52.5731 296.871L74.0258 248.359L40.4171 233.497Z" fill="#000C48"/>
<path d="M223.382 282.686C216.542 276.719 198.796 272.813 190.778 271.607L154.746 272.453C149.174 273.812 134.415 279.466 119.954 291.208C105.494 302.95 94.7588 333.519 91.6783 345.523L75.4083 312.073L66.9666 288.705L64.008 282.574C64.9694 280.018 66.8006 274.682 66.4335 273.79C65.9746 272.676 57.3872 266.973 55.8139 270.185C54.5553 272.754 59.1374 274.994 61.5857 275.793L53.1335 296.367L48.7777 294.768C59.1533 324.127 80.3655 383.444 82.2101 385.842C84.5157 388.839 93.7384 394.373 103.422 387.456C111.169 381.922 122.498 343.581 127.194 325.102V328.134L122.888 397.555H218.137L212.476 323.593C214.866 329.567 219.835 343.102 220.59 349.442C221.344 355.781 220.275 384.158 219.646 397.555H243.797C246.061 391.454 249.759 371.894 246.439 342.46C242.288 305.668 231.932 290.145 223.382 282.686Z" fill="#5397F5"/>
<path d="M205.854 380.521C202.744 359.17 212.023 323.612 212.023 323.612L217.896 396.821H212.756C212.756 396.821 208.964 401.871 205.854 380.521Z" fill="#000C48"/>
<path fill-rule="evenodd" clip-rule="evenodd" d="M58.0241 269.734C57.0736 269.642 56.5197 269.881 56.263 270.405C56.0256 270.889 56.0572 271.346 56.2881 271.81C56.5301 272.296 56.9935 272.786 57.6117 273.254C58.8451 274.189 60.5455 274.927 61.7408 275.317L62.2529 275.484L53.4131 297.002L49.6035 295.604C54.7916 310.276 62.4868 331.87 69.163 350.244C72.578 359.643 75.7258 368.198 78.1347 374.551C79.3393 377.729 80.3581 380.353 81.1326 382.256C81.5201 383.208 81.8448 383.976 82.1002 384.541C82.3662 385.129 82.5336 385.443 82.6064 385.537C83.6818 386.935 86.4593 389.01 90.1637 389.88C93.84 390.744 98.4167 390.417 103.132 387.049C104.025 386.411 105.009 385.268 106.057 383.671C107.101 382.083 108.186 380.081 109.293 377.762C111.507 373.124 113.789 367.255 115.98 360.969C120.362 348.4 124.364 334.209 126.709 324.979L127.69 325.164L118.704 397.055H217.597L211.978 323.631L212.941 323.407C214.139 326.402 215.982 331.289 217.621 336.223C219.255 341.143 220.702 346.156 221.086 349.382C221.469 352.597 221.388 361.321 221.137 370.865C220.891 380.185 220.482 390.342 220.17 397.055H243.446C245.684 390.694 249.199 371.388 245.942 342.517C241.799 305.798 231.477 290.412 223.053 283.063C219.722 280.157 213.67 277.713 207.379 275.84C201.133 273.982 194.739 272.711 190.746 272.107L154.812 272.952C149.27 274.317 134.625 279.939 120.27 291.596C113.127 297.397 107.107 306.987 102.48 316.671C97.8585 326.344 94.655 336.051 93.1221 342.025L92.782 343.35L63.4646 282.599L63.54 282.398C64.0183 281.127 64.7124 279.164 65.2402 277.413C65.5045 276.537 65.724 275.723 65.8546 275.08C65.92 274.757 65.9607 274.489 65.9753 274.283C65.9897 274.081 65.974 273.996 65.9714 273.982C65.9712 273.982 65.9711 273.981 65.9711 273.981C65.9709 273.98 65.9706 273.98 65.9703 273.979C65.9654 273.971 65.942 273.932 65.8779 273.858C65.8066 273.776 65.7054 273.673 65.5735 273.553C65.3103 273.314 64.9473 273.025 64.5105 272.711C63.6372 272.085 62.496 271.383 61.3235 270.815C60.1424 270.243 58.9701 269.826 58.0241 269.734ZM66.6339 273.203C66.7327 273.318 66.8359 273.454 66.8958 273.6C66.9895 273.827 66.9902 274.111 66.9728 274.354C66.9539 274.621 66.9042 274.936 66.8346 275.279C66.695 275.966 66.4654 276.814 66.1977 277.702C65.6886 279.391 65.03 281.264 64.5512 282.549L92.5004 340.465C94.1563 334.387 97.2491 325.3 101.578 316.24C106.224 306.515 112.322 296.762 119.639 290.82C134.159 279.03 148.985 273.344 154.627 271.968L154.68 271.955L190.809 271.106L190.852 271.112C194.88 271.718 201.344 273.001 207.664 274.882C213.96 276.756 220.202 279.248 223.711 282.309C232.387 289.878 242.776 305.538 246.935 342.404C250.262 371.889 246.565 391.533 244.266 397.729L244.145 398.055H219.122L219.147 397.531C219.461 390.835 219.886 380.396 220.137 370.839C220.389 361.26 220.465 352.625 220.093 349.501C219.723 346.387 218.308 341.463 216.672 336.538C215.528 333.095 214.284 329.674 213.232 326.909L218.677 398.055H117.571L125.771 332.455C123.429 341.045 120.289 351.645 116.924 361.298C114.728 367.599 112.432 373.508 110.196 378.193C109.078 380.535 107.97 382.581 106.893 384.22C105.821 385.852 104.757 387.117 103.713 387.863C98.744 391.412 93.8674 391.777 89.9351 390.854C86.0307 389.937 83.0441 387.746 81.8138 386.147C81.656 385.942 81.4415 385.511 81.189 384.953C80.926 384.371 80.5957 383.59 80.2064 382.633C79.4273 380.718 78.4052 378.086 77.1996 374.906C74.7882 368.546 71.6386 359.986 68.2231 350.586C61.3918 331.785 53.4944 309.615 48.3063 294.934L47.952 293.932L52.854 295.732L60.9221 276.092C59.7189 275.655 58.1887 274.946 57.0077 274.051C56.3317 273.539 55.7326 272.938 55.393 272.256C55.0422 271.552 54.973 270.765 55.3649 269.965C55.8948 268.883 57.0043 268.63 58.1208 268.739C59.2417 268.848 60.5399 269.324 61.7597 269.915C62.9881 270.51 64.1781 271.242 65.0932 271.899C65.5505 272.227 65.946 272.54 66.2464 272.814C66.3963 272.95 66.5282 273.081 66.6339 273.203Z" fill="#000C48"/>
<path fill-rule="evenodd" clip-rule="evenodd" d="M66.7999 288.36L50.0153 298.266C49.588 297.059 49.1749 295.892 48.7777 294.768L53.1335 296.367L61.5857 275.793C59.1374 274.994 54.5553 272.754 55.8139 270.185C57.3872 266.973 65.9746 272.676 66.4335 273.79C66.8006 274.682 64.9694 280.018 64.008 282.574L66.7999 288.36Z" fill="white"/>
<path fill-rule="evenodd" clip-rule="evenodd" d="M66.6339 273.203C66.7327 273.318 66.8359 273.454 66.8958 273.6C66.9895 273.827 66.9902 274.111 66.9728 274.354C66.9539 274.621 66.9042 274.936 66.8346 275.279C66.695 275.966 66.4654 276.814 66.1977 277.702C65.6886 279.391 65.03 281.264 64.5512 282.549L67.4501 288.556L53.5004 296.79L53.4131 297.002L53.2449 296.941L49.7466 299.006L49.5439 298.433C49.1166 297.226 48.7035 296.058 48.3063 294.934L47.952 293.932L52.854 295.732L60.9221 276.092C59.7189 275.655 58.1887 274.946 57.0077 274.051C56.3317 273.539 55.7326 272.938 55.393 272.256C55.0422 271.552 54.973 270.765 55.3649 269.965C55.8948 268.883 57.0043 268.63 58.1208 268.739C59.2417 268.848 60.5399 269.324 61.7597 269.915C62.9881 270.51 64.1781 271.242 65.0932 271.899C65.5505 272.227 65.946 272.54 66.2464 272.814C66.3963 272.95 66.5282 273.081 66.6339 273.203ZM52.0321 296.495L49.6035 295.604C49.8258 296.232 50.0528 296.874 50.284 297.527L52.0321 296.495ZM54.1301 295.257L62.2529 275.484L61.7408 275.317C60.5455 274.927 58.8451 274.189 57.6117 273.254C56.9935 272.786 56.5301 272.296 56.2881 271.81C56.0572 271.346 56.0256 270.889 56.263 270.405C56.5197 269.881 57.0736 269.642 58.0241 269.734C58.9701 269.826 60.1424 270.243 61.3235 270.815C62.496 271.383 63.6372 272.085 64.5105 272.711C64.9473 273.025 65.3103 273.314 65.5735 273.553C65.7054 273.673 65.8066 273.776 65.8779 273.858C65.942 273.932 65.9654 273.971 65.9703 273.979C65.9706 273.98 65.9709 273.98 65.9711 273.981C65.9711 273.981 65.9712 273.982 65.9714 273.982C65.974 273.996 65.9897 274.081 65.9753 274.283C65.9607 274.489 65.92 274.757 65.8546 275.08C65.724 275.723 65.5045 276.537 65.2402 277.413C64.7124 279.164 64.0183 281.127 63.54 282.398L63.4646 282.599L66.1498 288.163L54.1301 295.257Z" fill="#000C48"/>
<path d="M148.629 263.931C128.629 265.931 127.561 228.084 129.394 209.084C136.972 211.361 136.189 212.607 151.749 213.278C167.309 213.949 179.514 203.38 183.331 204.219C186.384 204.89 185.802 212.64 185.129 216.431C195.129 209.931 197.129 217.931 195.629 223.431C194.429 227.831 189.129 230.931 186.629 231.931C182.296 241.765 168.629 261.931 148.629 263.931Z" fill="white"/>
<path fill-rule="evenodd" clip-rule="evenodd" d="M181.38 203.914C182.134 203.699 182.839 203.599 183.438 203.731C184.43 203.948 185.063 204.733 185.457 205.686C185.852 206.64 186.049 207.854 186.126 209.125C186.255 211.228 186.059 213.59 185.795 215.43C187.914 214.18 189.694 213.584 191.175 213.51C192.895 213.424 194.19 214.048 195.076 215.111C195.944 216.153 196.387 217.576 196.525 219.057C196.664 220.544 196.501 222.135 196.111 223.563C195.472 225.908 193.756 227.865 191.932 229.345C190.101 230.83 188.106 231.879 186.815 232.396L186.443 231.467C187.652 230.984 189.557 229.983 191.302 228.568C193.052 227.148 194.586 225.355 195.147 223.3C195.507 221.977 195.656 220.507 195.53 219.15C195.402 217.787 195.002 216.584 194.307 215.751C193.631 214.939 192.644 214.438 191.224 214.509C189.778 214.581 187.865 215.249 185.402 216.851L184.435 217.479L184.637 216.344C184.969 214.471 185.277 211.628 185.128 209.185C185.054 207.961 184.866 206.874 184.533 206.068C184.198 205.26 183.759 204.825 183.224 204.707C182.869 204.629 182.358 204.675 181.653 204.876C180.959 205.073 180.135 205.403 179.179 205.831C178.308 206.222 177.344 206.687 176.286 207.197C176.185 207.246 176.083 207.295 175.981 207.344C174.806 207.911 173.524 208.525 172.148 209.142C166.651 211.606 159.624 214.118 151.727 213.778C143.941 213.442 140.204 212.961 137.456 212.268C136.081 211.921 134.962 211.523 133.725 211.076C133.654 211.05 133.582 211.023 133.509 210.997C132.463 210.618 131.315 210.202 129.834 209.741C128.971 219.206 128.844 233.004 131.312 244.276C132.574 250.037 134.504 255.086 137.317 258.562C140.11 262.014 143.77 263.915 148.579 263.434C160.085 262.283 169.501 255.018 176.224 247.176L176.984 247.827C170.18 255.762 160.548 263.242 148.679 264.429C143.489 264.948 139.515 262.868 136.54 259.192C133.585 255.54 131.612 250.315 130.336 244.49C127.782 232.832 127.977 218.562 128.896 209.036L128.955 208.43L129.538 208.605C131.336 209.145 132.668 209.628 133.847 210.056C133.921 210.083 133.994 210.109 134.066 210.135C135.3 210.582 136.379 210.965 137.7 211.298C140.345 211.965 143.997 212.443 151.77 212.779C159.434 213.109 166.29 210.672 171.739 208.229C173.101 207.619 174.372 207.01 175.547 206.443C175.65 206.394 175.752 206.344 175.854 206.295C176.908 205.787 177.885 205.315 178.77 204.919C179.738 204.485 180.615 204.131 181.38 203.914Z" fill="#000C48"/>
<path d="M159.151 272.094L159.57 261.111C175.466 252.928 184.415 238.362 186.902 232.102C186.678 240.765 185.997 259.451 185.058 264.884C184.118 270.317 171.925 273.833 165.944 275.37L164.628 281.048L164.349 275.196L159.151 272.094Z" fill="white"/>
<path d="M159.671 269.802C171.366 264.924 177.465 251.12 179.053 244.827C169.581 255.583 162.185 260.082 159.671 260.987V269.802Z" fill="#C7CFDA"/>
<path fill-rule="evenodd" clip-rule="evenodd" d="M186.747 249.729C186.432 256.152 186.026 262.216 185.55 264.969C185.286 266.498 184.243 267.833 182.832 268.985C181.415 270.142 179.572 271.16 177.596 272.044C173.769 273.756 169.357 275.002 166.363 275.778L165.115 281.161L164.129 281.072L163.862 275.488L158.64 272.371L159.081 260.8L159.341 260.666C166.236 257.117 174.144 249.525 178.477 244.725C178.662 244.52 178.978 244.504 179.183 244.689C179.388 244.874 179.405 245.19 179.219 245.395C174.922 250.155 167.057 257.732 160.058 261.42L159.662 271.817L164.835 274.904L164.955 277.421L165.526 274.961L165.82 274.886C168.806 274.118 173.315 272.863 177.187 271.131C179.124 270.265 180.879 269.289 182.2 268.211C183.526 267.127 184.36 265.986 184.565 264.799C185.028 262.119 185.432 256.123 185.749 249.68C186.064 243.251 186.29 236.418 186.402 232.089L187.402 232.115C187.29 236.449 187.063 243.291 186.747 249.729Z" fill="#000C48"/>
<path d="M194.247 233.418C193.522 237.679 189.315 239.759 186.758 240.242L187.121 231.606C190.937 230.157 192.777 228.184 193.22 227.379C193.381 227.601 194.917 229.477 194.247 233.418Z" fill="#222D3D"/>
<path fill-rule="evenodd" clip-rule="evenodd" d="M193.161 226.448L193.624 227.085C193.63 227.093 193.638 227.103 193.647 227.115C193.772 227.283 194.198 227.853 194.521 228.85C194.866 229.917 195.088 231.453 194.74 233.502C194.351 235.787 193.028 237.475 191.492 238.644C189.962 239.81 188.197 240.479 186.851 240.734L186.232 240.85L186.635 231.256L186.943 231.139C190.686 229.718 192.413 227.809 192.782 227.138L193.161 226.448ZM193.198 228.271C192.349 229.286 190.565 230.777 187.607 231.954L187.285 239.609C188.396 239.311 189.719 238.737 190.887 237.849C192.275 236.792 193.418 235.309 193.754 233.334C194.076 231.443 193.865 230.07 193.57 229.158C193.452 228.793 193.319 228.499 193.198 228.271Z" fill="#000C48"/>
<path d="M124.5 195C120.878 203.472 125.047 213.82 128.631 217.943L129.277 209.051C130.679 210.533 136.812 213.481 150.134 213.416C166.787 213.335 180.045 203.554 183.682 204.443C186.593 205.154 185.811 212.662 185.057 216.327C188.161 213.287 191.632 213.874 192.979 214.548C192.979 214.225 193.302 211.977 194.596 205.575C196.213 197.572 195.081 179.14 177.054 173.643C162.632 169.246 147.563 180.15 141.5 185C134.386 185.566 129.027 184.41 124.5 195Z" fill="#222D3D"/>
<path fill-rule="evenodd" clip-rule="evenodd" d="M155.972 175.176C149.537 177.363 144.139 180.696 141.15 183.088L141.03 183.184L140.877 183.196C137.322 183.478 133.939 183.899 130.886 185.523C127.853 187.137 125.093 189.97 122.866 195.181C121.126 199.25 121.746 203.813 123.284 207.92C124.603 211.438 126.577 214.567 128.223 216.662L128.861 207.883L129.641 208.708C130.245 209.347 132.02 210.424 135.366 211.331C138.688 212.231 143.506 212.949 150.132 212.916C158.364 212.876 165.773 210.438 171.603 208.102C173.06 207.518 174.417 206.941 175.664 206.41L175.788 206.357C176.985 205.848 178.083 205.38 179.065 204.993C180.078 204.594 180.984 204.275 181.76 204.085C182.524 203.897 183.226 203.817 183.801 203.957C184.759 204.192 185.348 204.975 185.699 205.909C186.051 206.845 186.206 208.027 186.244 209.262C186.302 211.182 186.081 213.317 185.8 215.044C188.369 213.183 191.018 213.334 192.555 213.838C192.606 213.475 192.688 212.959 192.81 212.256C193.053 210.847 193.458 208.68 194.106 205.476C194.899 201.549 195.019 195.037 192.722 188.843C190.434 182.671 185.75 176.818 176.908 174.122C169.832 171.964 162.408 172.988 155.972 175.176ZM155.65 174.229C162.201 172.002 169.853 170.925 177.199 173.165C186.384 175.966 191.28 182.076 193.66 188.495C196.032 194.893 195.909 201.598 195.086 205.674C194.44 208.872 194.037 211.03 193.795 212.426C193.674 213.125 193.594 213.631 193.545 213.98C193.52 214.155 193.503 214.289 193.493 214.386C193.487 214.435 193.484 214.473 193.482 214.502C193.481 214.511 193.48 214.519 193.48 214.526C193.48 214.529 193.48 214.533 193.479 214.535L193.479 214.545C193.479 214.547 193.479 214.548 193.479 214.548V215.357L192.755 214.995C191.56 214.398 188.329 213.822 185.407 216.684L184.237 217.829L184.567 216.226C184.94 214.416 185.317 211.664 185.244 209.293C185.208 208.103 185.059 207.047 184.763 206.261C184.466 205.472 184.061 205.05 183.564 204.929C183.23 204.847 182.722 204.878 181.999 205.056C181.289 205.23 180.432 205.53 179.431 205.924C178.463 206.305 177.376 206.768 176.173 207.28L176.056 207.33C174.809 207.861 173.443 208.442 171.975 209.03C166.104 211.383 158.557 213.875 150.136 213.916C143.439 213.949 138.53 213.224 135.104 212.296C132.527 211.598 130.758 210.775 129.706 210.051L129.042 219.179L128.253 218.271C126.429 216.172 123.933 212.5 122.348 208.27C120.765 204.046 120.064 199.192 121.946 194.788C124.246 189.409 127.145 186.381 130.417 184.641C133.623 182.935 137.137 182.494 140.645 182.211C143.741 179.761 149.182 176.427 155.65 174.229Z" fill="#142030"/>
<path fill-rule="evenodd" clip-rule="evenodd" d="M192.93 219.302C193.028 219.56 192.898 219.849 192.64 219.947C188.83 221.392 187.45 224.176 187.021 225.895C186.954 226.162 186.682 226.325 186.414 226.258C186.146 226.191 185.984 225.92 186.051 225.652C186.54 223.695 188.101 220.599 192.285 219.012C192.543 218.914 192.832 219.043 192.93 219.302Z" fill="#000C48"/>
<path fill-rule="evenodd" clip-rule="evenodd" d="M189.492 222.472C189.047 222.606 188.74 222.78 188.636 222.861C188.418 223.03 188.104 222.99 187.934 222.771C187.765 222.553 187.805 222.239 188.024 222.07C188.25 221.895 188.676 221.674 189.202 221.515C189.737 221.353 190.411 221.244 191.134 221.331C191.408 221.364 191.603 221.613 191.57 221.887C191.538 222.161 191.289 222.357 191.014 222.324C190.461 222.257 189.928 222.34 189.492 222.472Z" fill="#000C48"/>
<path d="M161.749 223.246C161.749 225.54 160.689 227.4 159.382 227.4C158.074 227.4 157.015 225.54 157.015 223.246C157.015 220.952 158.074 219.093 159.382 219.093C160.689 219.093 161.749 220.952 161.749 223.246Z" fill="#142030"/>
<path d="M136.818 223.987C136.818 226.281 135.758 228.141 134.451 228.141C133.144 228.141 132.084 226.281 132.084 223.987C132.084 221.693 133.144 219.833 134.451 219.833C135.758 219.833 136.818 221.693 136.818 223.987Z" fill="#142030"/>
<path d="M419.038 185.362C419.038 186.812 418.368 187.988 417.541 187.988C416.714 187.988 416.044 186.812 416.044 185.362C416.044 183.911 416.714 182.735 417.541 182.735C418.368 182.735 419.038 183.911 419.038 185.362Z" fill="#000C48"/>
<path d="M432.85 184.861C432.85 186.311 432.18 187.488 431.353 187.488C430.526 187.488 429.856 186.311 429.856 184.861C429.856 183.41 430.526 182.234 431.353 182.234C432.18 182.234 432.85 183.41 432.85 184.861Z" fill="#000C48"/>
<path fill-rule="evenodd" clip-rule="evenodd" d="M424.371 182.966C424.646 182.987 424.852 183.227 424.831 183.503C424.582 186.711 423.721 188.907 423.084 190.412C423.035 190.527 422.988 190.637 422.943 190.741C422.689 191.336 422.507 191.765 422.425 192.107C422.379 192.299 422.378 192.417 422.393 192.489C422.404 192.546 422.428 192.595 422.496 192.653C423.323 193.357 424.542 193.547 425.038 193.547C425.314 193.547 425.538 193.771 425.538 194.047C425.538 194.324 425.314 194.547 425.038 194.547C424.417 194.547 422.925 194.332 421.847 193.414C421.617 193.218 421.47 192.973 421.412 192.686C421.358 192.415 421.389 192.138 421.452 191.875C421.556 191.442 421.78 190.919 422.03 190.334C422.074 190.231 422.118 190.127 422.163 190.021C422.782 188.561 423.597 186.479 423.834 183.425C423.855 183.15 424.096 182.944 424.371 182.966Z" fill="#000C48"/>
<path d="M141.283 216.904C141.217 217.609 140.336 218.037 135.94 217.896C131.825 217.558 130.004 216.704 130.49 215.427C130.976 214.15 133.992 214.629 136.93 215.216C139.868 215.803 141.349 216.199 141.283 216.904Z" fill="#293B55"/>
<path d="M421.21 179.913C421.191 180.349 420.663 180.64 417.955 180.694C415.414 180.617 414.266 180.15 414.525 179.349C414.783 178.548 416.653 178.747 418.479 179.014C420.304 179.281 421.228 179.478 421.21 179.913Z" fill="#222D3D"/>
<path fill-rule="evenodd" clip-rule="evenodd" d="M421.346 179.226C421.544 179.373 421.723 179.609 421.709 179.934C421.7 180.158 421.617 180.386 421.418 180.574C421.24 180.744 420.999 180.851 420.728 180.928C420.187 181.081 419.32 181.167 417.965 181.194L417.953 181.194L417.94 181.194C416.658 181.155 415.663 181.018 415.006 180.758C414.678 180.628 414.377 180.446 414.185 180.174C413.975 179.875 413.941 179.53 414.049 179.196C414.177 178.798 414.497 178.574 414.82 178.453C415.136 178.335 415.516 178.29 415.902 178.281C416.678 178.263 417.642 178.386 418.551 178.519C419.457 178.652 420.181 178.772 420.679 178.922C420.925 178.995 421.163 179.089 421.346 179.226ZM420.392 179.879C419.976 179.755 419.326 179.643 418.406 179.509C417.49 179.375 416.605 179.265 415.926 179.281C415.584 179.289 415.333 179.329 415.17 179.39C415.016 179.447 415.002 179.497 415.001 179.502C415.001 179.503 415.001 179.503 415.001 179.503C414.98 179.566 414.991 179.581 415.002 179.596C415.002 179.597 415.003 179.598 415.003 179.599C415.034 179.642 415.13 179.732 415.374 179.828C415.86 180.021 416.705 180.155 417.958 180.194C419.303 180.167 420.051 180.08 420.455 179.966C420.493 179.955 420.527 179.944 420.556 179.934C420.51 179.917 420.456 179.899 420.392 179.879Z" fill="#000C48"/>
<path d="M152.078 217.066C152.246 217.753 153.18 218.049 157.508 217.267C161.529 216.332 163.206 215.221 162.539 214.028C161.871 212.836 158.958 213.751 156.137 214.76C153.317 215.77 151.91 216.378 152.078 217.066Z" fill="#293B55"/>
<path d="M427.774 180.683C427.805 181.118 428.342 181.393 431.05 181.366C433.588 181.212 434.721 180.711 434.439 179.918C434.156 179.125 432.293 179.38 430.476 179.702C428.66 180.024 427.743 180.248 427.774 180.683Z" fill="#222D3D"/>
<path fill-rule="evenodd" clip-rule="evenodd" d="M427.617 180C427.423 180.153 427.252 180.394 427.275 180.719C427.291 180.943 427.381 181.168 427.585 181.35C427.769 181.514 428.013 181.614 428.286 181.683C428.831 181.82 429.7 181.879 431.055 181.866L431.068 181.865L431.08 181.865C432.36 181.787 433.351 181.62 434 181.341C434.324 181.201 434.62 181.01 434.802 180.732C435.004 180.427 435.027 180.081 434.91 179.75C434.769 179.356 434.443 179.142 434.117 179.031C433.797 178.922 433.416 178.889 433.03 178.892C432.253 178.897 431.294 179.049 430.389 179.21C429.487 179.369 428.767 179.512 428.274 179.676C428.031 179.757 427.796 179.858 427.617 180ZM428.59 180.625C429.002 180.487 429.648 180.357 430.564 180.194C431.476 180.033 432.356 179.896 433.036 179.892C433.378 179.89 433.63 179.922 433.795 179.978C433.95 180.031 433.966 180.08 433.967 180.085C433.968 180.086 433.968 180.086 433.968 180.086C433.99 180.149 433.98 180.164 433.969 180.179C433.969 180.18 433.968 180.181 433.968 180.182C433.938 180.226 433.845 180.318 433.604 180.422C433.124 180.629 432.283 180.789 431.032 180.866C429.687 180.879 428.937 180.815 428.53 180.713C428.491 180.703 428.457 180.693 428.428 180.684C428.473 180.666 428.526 180.646 428.59 180.625Z" fill="#000C48"/>
<path fill-rule="evenodd" clip-rule="evenodd" d="M141.258 225.12C141.534 225.134 141.747 225.368 141.734 225.644C141.628 227.834 141.37 231.288 140.938 234.543C140.723 236.171 140.463 237.756 140.155 239.111C139.85 240.453 139.489 241.618 139.052 242.374C138.701 242.979 138.736 243.323 138.836 243.522C138.952 243.753 139.242 243.978 139.762 244.154C140.792 244.503 142.322 244.524 143.443 244.421C143.718 244.395 143.961 244.598 143.987 244.873C144.012 245.148 143.81 245.391 143.535 245.417C142.371 245.524 140.672 245.518 139.442 245.101C138.831 244.895 138.234 244.553 137.942 243.97C137.634 243.355 137.743 242.637 138.186 241.872C138.543 241.257 138.878 240.218 139.18 238.89C139.478 237.575 139.734 236.023 139.947 234.412C140.374 231.191 140.63 227.765 140.735 225.596C140.748 225.32 140.982 225.107 141.258 225.12Z" fill="#000C48"/>
<path fill-rule="evenodd" clip-rule="evenodd" d="M164.369 236.456L164.623 237.393C165.04 238.932 165.13 241.41 164.083 243.921C163.03 246.449 160.837 248.979 156.751 250.613L156.08 250.882L156.065 250.16C156.045 249.184 155.803 247.775 155.177 246.703C154.867 246.173 154.476 245.747 153.993 245.483C153.517 245.222 152.915 245.099 152.14 245.231L151.946 244.251C154.416 243.692 160.245 241.487 163.754 237.207L164.369 236.456ZM154.39 244.561C154.418 244.576 154.446 244.59 154.473 244.605C155.157 244.979 155.666 245.558 156.04 246.199C156.629 247.206 156.915 248.419 157.019 249.415C160.451 247.879 162.269 245.676 163.16 243.536C163.912 241.732 164.014 239.953 163.845 238.62C161.013 241.661 157.149 243.576 154.39 244.561Z" fill="#000C48"/>
<path d="M163.922 242.701C160.492 243.24 157.438 245.901 156.304 247.768L157.048 249.646C160.138 248.313 163.178 245.11 163.922 242.701Z" fill="#000C48"/>
<path d="M190.119 273.095C193.627 265.559 185.658 261.602 185.334 261.343C185.897 261.927 185.444 266.477 182.629 268.807C178.018 272.624 170.627 275.023 166.591 275.499C168.722 277.942 167.362 286.519 167.059 289.529C173.577 286.563 187.313 279.123 190.119 273.095Z" fill="white"/>
<path d="M189.533 271.957C193.04 264.422 185.658 261.602 185.334 261.343C185.897 261.927 185.444 266.477 182.629 268.807C178.018 272.624 170.627 275.023 166.591 275.499C168.722 277.942 167.82 284.494 167.516 287.503C174.034 284.537 186.726 277.985 189.533 271.957Z" fill="#5397F5"/>
<path fill-rule="evenodd" clip-rule="evenodd" d="M186.045 262.377C186.045 262.396 186.045 262.415 186.044 262.434C186.037 263.026 185.938 263.763 185.732 264.547C185.321 266.109 184.464 267.938 182.948 269.193C180.587 271.147 177.534 272.724 174.575 273.872C171.977 274.88 169.425 275.567 167.441 275.885C167.776 276.545 167.979 277.361 168.101 278.229C168.274 279.466 168.294 280.895 168.237 282.321C168.153 284.453 167.897 286.637 167.711 288.219C167.691 288.387 167.672 288.549 167.654 288.703C170.888 287.187 175.496 284.774 179.709 282.04C181.996 280.556 184.157 278.984 185.916 277.415C187.683 275.84 189.007 274.299 189.666 272.883C190.503 271.086 190.644 269.53 190.405 268.205C190.165 266.874 189.534 265.74 188.776 264.805C188.016 263.87 187.137 263.145 186.422 262.636C186.29 262.542 186.163 262.456 186.045 262.377ZM191.389 268.027C191.668 269.571 191.49 271.336 190.573 273.306C189.828 274.905 188.384 276.554 186.582 278.161C184.772 279.776 182.566 281.379 180.253 282.879C175.629 285.88 170.543 288.493 167.266 289.984L166.475 290.344L166.562 289.479C166.601 289.086 166.658 288.607 166.722 288.065C166.907 286.486 167.156 284.37 167.238 282.282C167.293 280.882 167.272 279.521 167.111 278.368C166.946 277.197 166.648 276.325 166.214 275.828L165.591 275.114L166.532 275.003C168.499 274.771 171.315 274.065 174.214 272.94C177.113 271.815 180.06 270.285 182.31 268.422C183.61 267.346 184.386 265.735 184.765 264.293C184.953 263.576 185.038 262.92 185.045 262.421C185.048 262.171 185.031 261.972 185.004 261.831C184.981 261.715 184.958 261.674 184.959 261.674C184.96 261.673 184.964 261.679 184.974 261.689L185.646 260.952C185.638 260.946 185.639 260.946 185.656 260.957C185.671 260.966 185.695 260.981 185.736 261.005C185.752 261.015 185.77 261.026 185.789 261.037C185.856 261.077 185.941 261.127 186.037 261.186C186.286 261.338 186.62 261.55 187.002 261.821C187.762 262.363 188.717 263.147 189.552 264.175C190.387 265.204 191.112 266.489 191.389 268.027Z" fill="#000C48"/>
<path d="M162.528 288.517C162.528 287.988 162.754 278.274 164.094 275.269L159.142 271.925V264.561C158.818 264.673 157.906 265.297 156.856 266.889C155.544 268.878 153.978 272.729 155.544 277.809C157.11 282.888 160.426 286.725 162.528 288.517Z" fill="#5397F5"/>
<path fill-rule="evenodd" clip-rule="evenodd" d="M159.642 263.857V271.659L164.722 275.089L164.551 275.473C164.245 276.159 163.987 277.273 163.778 278.61C163.571 279.933 163.418 281.432 163.307 282.86C163.084 285.719 163.028 288.267 163.028 288.517V289.6L162.204 288.897C160.048 287.06 156.667 283.147 155.067 277.956C153.446 272.7 155.066 268.695 156.439 266.613C156.984 265.787 157.5 265.202 157.932 264.803C158.353 264.414 158.721 264.177 158.978 264.088L159.642 263.857ZM158.61 265.537C158.244 265.876 157.779 266.398 157.274 267.164C156.023 269.061 154.511 272.758 156.022 277.661C157.367 282.023 160.037 285.456 162.056 287.41C162.091 286.339 162.166 284.623 162.31 282.783C162.423 281.341 162.578 279.814 162.79 278.455C162.969 277.31 163.193 276.251 163.48 275.458L158.642 272.191V265.508C158.632 265.518 158.621 265.528 158.61 265.537Z" fill="#000C48"/>
<path fill-rule="evenodd" clip-rule="evenodd" d="M164.625 279.636C164.901 279.636 165.125 279.86 165.125 280.136V397.064C165.125 397.34 164.901 397.564 164.625 397.564C164.348 397.564 164.125 397.34 164.125 397.064V280.136C164.125 279.86 164.348 279.636 164.625 279.636Z" fill="#000C48"/>
<path d="M429.04 210.451V202.44C432.867 200.971 439.536 194.039 442.392 190.757V206.279C441.242 207.892 438.019 211.308 434.325 212.065C430.631 212.821 429.262 211.304 429.04 210.451Z" fill="white"/>
<path d="M428.996 204.866C432.359 202.942 435.483 198.576 436.626 196.631L429.286 202.45L428.996 204.866Z" fill="#C7CFDA"/>
<path fill-rule="evenodd" clip-rule="evenodd" d="M442.392 190.257C442.668 190.257 442.892 190.48 442.892 190.757V206.439L442.799 206.569C442.199 207.411 441.076 208.701 439.629 209.881C438.185 211.057 436.382 212.154 434.425 212.554C430.583 213.342 428.871 211.785 428.556 210.577L428.54 210.515V202.295L428.778 202.148C430.312 201.208 433.609 198.812 436.172 196.403C436.373 196.214 436.689 196.224 436.879 196.425C437.068 196.626 437.058 196.943 436.857 197.132C434.368 199.472 431.208 201.794 429.54 202.852V210.378C429.725 210.92 430.799 212.277 434.225 211.575C435.962 211.219 437.618 210.229 438.997 209.105C440.299 208.044 441.32 206.891 441.892 206.116V190.757C441.892 190.48 442.116 190.257 442.392 190.257Z" fill="#000C48"/>
<path d="M449.568 172.376C449.353 168.986 446.975 167.888 445.813 167.763L446.725 177.58C447.762 177.258 449.782 175.766 449.568 172.376Z" fill="#5397F5"/>
<path fill-rule="evenodd" clip-rule="evenodd" d="M445.258 167.2L445.866 167.266C447.219 167.411 449.834 168.663 450.067 172.345C450.297 175.986 448.11 177.673 446.873 178.057L446.284 178.24L445.258 167.2ZM446.374 168.404L447.157 176.828C448.056 176.269 449.229 174.937 449.069 172.408C448.908 169.863 447.434 168.771 446.374 168.404Z" fill="#000C48"/>
<path fill-rule="evenodd" clip-rule="evenodd" d="M432.877 191.988C433.137 192.08 433.274 192.366 433.182 192.626C432.037 195.877 429.87 197.145 428.796 197.36C428.525 197.414 428.262 197.239 428.208 196.968C428.153 196.697 428.329 196.434 428.6 196.379C429.289 196.242 431.197 195.252 432.239 192.294C432.331 192.033 432.616 191.897 432.877 191.988Z" fill="#000C48"/>
<path d="M426.104 212.511C425.116 210.097 427.491 208.06 428.802 207.343C427.839 208.517 428.025 212.146 431.638 212.146C436.333 212.146 440.804 208.426 442.523 205.926C447.554 209.081 442.523 214.576 437.172 215.941C431.821 217.307 427.339 215.53 426.104 212.511Z" fill="white"/>
<path fill-rule="evenodd" clip-rule="evenodd" d="M442.382 205.247L442.789 205.502C444.136 206.347 444.876 207.395 445.056 208.553C445.233 209.697 444.849 210.848 444.156 211.883C442.778 213.942 440.068 215.719 437.296 216.426C434.54 217.129 431.982 217.03 429.936 216.345C427.893 215.661 426.328 214.379 425.641 212.701C425.062 211.285 425.486 209.991 426.182 209.003C426.871 208.024 427.859 207.289 428.563 206.905L429.189 207.661C429.026 207.86 428.881 208.207 428.827 208.649C428.774 209.084 428.814 209.569 428.975 210.016C429.134 210.459 429.408 210.86 429.822 211.151C430.236 211.442 430.821 211.646 431.638 211.646C433.857 211.646 436.055 210.764 437.925 209.554C439.795 208.343 441.292 206.833 442.111 205.642L442.382 205.247ZM442.643 206.611C441.71 207.837 440.24 209.246 438.468 210.393C436.499 211.667 434.114 212.646 431.638 212.646C430.649 212.646 429.855 212.396 429.248 211.969C428.641 211.544 428.252 210.963 428.033 210.353C427.832 209.793 427.773 209.202 427.82 208.662C427.524 208.931 427.239 209.239 427 209.578C426.428 210.391 426.158 211.323 426.567 212.322C427.115 213.663 428.408 214.778 430.253 215.396C432.094 216.013 434.453 216.119 437.048 215.457C439.627 214.799 442.108 213.145 443.325 211.327C443.93 210.422 444.194 209.523 444.068 208.707C443.958 207.998 443.541 207.275 442.643 206.611Z" fill="#000C48"/>
<path d="M420.109 231.163L420.107 231.17L413.623 239.597C413.623 239.597 405.795 232.106 403.704 228.656C401.612 225.206 403.102 221.202 405.267 221.202C407.431 221.202 414.954 224.811 417.239 226.594L419.493 222.291C421.655 222.916 420.59 228.595 420.109 231.163Z" fill="white"/>
<path fill-rule="evenodd" clip-rule="evenodd" d="M402.406 223.507C402.81 221.99 403.844 220.702 405.267 220.702C405.902 220.702 406.851 220.956 407.894 221.322C408.959 221.695 410.189 222.208 411.417 222.775C413.567 223.768 415.759 224.947 417.065 225.848L419.239 221.698L419.631 221.811C420.409 222.036 420.83 222.704 421.048 223.437C421.267 224.174 421.32 225.085 421.292 226.014C421.235 227.872 420.842 229.963 420.603 231.242L420.6 231.255L420.577 231.38L413.679 240.343L413.277 239.958L413.623 239.597C413.277 239.958 413.277 239.958 413.277 239.958L413.254 239.936L413.187 239.872C413.129 239.816 413.044 239.734 412.934 239.627C412.715 239.415 412.4 239.108 412.016 238.729C411.247 237.97 410.2 236.923 409.087 235.767C406.877 233.472 404.356 230.696 403.276 228.915C402.159 227.072 401.99 225.068 402.406 223.507ZM413.568 238.849L419.638 230.96C419.88 229.666 420.239 227.707 420.292 225.983C420.32 225.093 420.264 224.307 420.09 223.723C419.985 223.373 419.852 223.134 419.697 222.979L417.404 227.357L416.931 226.988C415.837 226.134 413.429 224.806 410.998 223.683C409.789 223.125 408.59 222.625 407.564 222.265C406.516 221.898 405.713 221.702 405.267 221.702C404.525 221.702 403.732 222.416 403.372 223.764C403.025 225.067 403.157 226.79 404.131 228.397C405.143 230.066 407.581 232.761 409.808 235.073C410.913 236.222 411.954 237.263 412.718 238.017C413.065 238.359 413.355 238.642 413.568 238.849Z" fill="#000C48"/>
<path d="M379.334 256.167C381.13 251.558 396.785 236.656 404.466 229.973L410.75 236.556L392.629 259.973C387.398 260.497 377.539 260.775 379.334 256.167Z" fill="white"/>
<path fill-rule="evenodd" clip-rule="evenodd" d="M404.497 229.282L411.411 236.525L392.891 260.059L392.679 260.08C390.054 260.343 386.192 260.551 383.194 260.102C381.709 259.88 380.351 259.485 379.475 258.786C379.026 258.427 378.687 257.976 378.542 257.417C378.397 256.86 378.46 256.251 378.712 255.602C378.813 255.345 379.103 255.217 379.36 255.318C379.617 255.418 379.744 255.708 379.644 255.965C379.448 256.468 379.43 256.859 379.51 257.166C379.59 257.471 379.78 257.749 380.099 258.004C380.759 258.531 381.895 258.896 383.343 259.113C386.135 259.531 389.772 259.356 392.368 259.106L410.089 236.588L404.434 230.664C399.092 235.33 393.38 240.723 387.799 246.861C387.613 247.065 387.297 247.08 387.092 246.894C386.888 246.708 386.873 246.392 387.059 246.188C392.798 239.876 398.671 234.352 404.137 229.595L404.497 229.282Z" fill="#000C48"/>
<path d="M419.311 221.945C417.988 220.377 414.451 222.415 412.849 223.63L417.167 226.539L419.311 221.945Z" fill="white"/>
<path fill-rule="evenodd" clip-rule="evenodd" d="M413.725 223.617L416.961 225.798L418.701 222.069C418.51 221.946 418.265 221.882 417.959 221.876C417.504 221.867 416.955 221.991 416.359 222.212C415.431 222.558 414.471 223.111 413.725 223.617ZM417.978 220.876C418.619 220.889 419.243 221.09 419.693 221.623L419.899 221.867L417.373 227.281L411.989 223.654L412.547 223.231C413.372 222.606 414.7 221.763 416.01 221.275C416.664 221.032 417.347 220.864 417.978 220.876Z" fill="#000C48"/>
<path d="M441.196 368.334L441.901 350.792L424.976 364.632V369.304C424.477 371.273 424.941 375.193 430.794 375.122C436.647 375.051 440.168 370.568 441.196 368.334Z" fill="white"/>
<path fill-rule="evenodd" clip-rule="evenodd" d="M442.446 349.702L441.692 368.454L441.65 368.544C440.579 370.871 436.922 375.548 430.8 375.622C427.757 375.659 425.988 374.651 425.083 373.249C424.217 371.906 424.219 370.316 424.476 369.243V364.395L442.446 349.702ZM425.476 364.869V369.366L425.461 369.427C425.233 370.323 425.236 371.641 425.923 372.707C426.589 373.738 427.978 374.656 430.788 374.622C436.297 374.556 439.665 370.38 440.701 368.214L441.357 351.883L425.476 364.869Z" fill="#000C48"/>
<path d="M425.244 371.183C431.969 370.367 435.501 361.211 436.426 356.736L425.244 364.408V371.183Z" fill="#C7CFDA"/>
<path d="M414.932 367.232C403.729 367.146 403.801 342.923 405.237 330.822C408.426 329.616 410.444 327.949 411.054 327.267C415.708 332.352 431.521 331.325 438.846 330.176V341.486C441.647 339.871 447.399 337.608 448.003 341.486C448.606 345.364 444.483 349.688 442.078 351.196C437.876 356.69 426.135 367.318 414.932 367.232Z" fill="white"/>
<path fill-rule="evenodd" clip-rule="evenodd" d="M411.05 326.522L411.423 326.93C412.492 328.098 414.245 328.954 416.459 329.545C418.662 330.133 421.265 330.443 423.97 330.559C429.38 330.793 435.13 330.252 438.769 329.682L439.346 329.591V340.643C440.728 339.925 442.538 339.18 444.174 338.932C445.146 338.784 446.124 338.802 446.921 339.169C447.756 339.554 448.323 340.292 448.497 341.41C448.829 343.544 447.786 345.895 446.44 347.841C445.084 349.801 443.336 351.475 442.064 352.272C441.83 352.419 441.521 352.348 441.374 352.114C441.228 351.88 441.299 351.571 441.533 351.425C442.666 350.714 444.322 349.145 445.618 347.272C446.924 345.383 447.78 343.307 447.509 341.563C447.381 340.742 447.003 340.308 446.502 340.077C445.963 339.829 445.215 339.785 444.324 339.921C442.548 340.19 440.472 341.126 439.096 341.92L438.346 342.352V330.757C434.648 331.301 429.14 331.783 423.927 331.558C421.181 331.44 418.5 331.125 416.201 330.511C414.124 329.957 412.311 329.147 411.054 327.976C410.168 328.798 408.336 330.138 405.699 331.18C405.007 337.202 404.665 346.06 405.839 353.454C406.436 357.217 407.419 360.554 408.913 362.943C410.397 365.316 412.354 366.712 414.936 366.732C418.313 366.758 422.246 365.287 426.031 363.205C429.804 361.129 433.372 358.479 435.999 356.219C436.209 356.039 436.524 356.063 436.704 356.272C436.884 356.482 436.861 356.798 436.651 356.978C433.984 359.271 430.36 361.965 426.513 364.081C422.679 366.19 418.563 367.76 414.928 367.732C411.909 367.709 409.673 366.045 408.065 363.473C406.467 360.918 405.457 357.427 404.851 353.611C403.638 345.969 404.02 336.838 404.741 330.763L404.776 330.462L405.06 330.354C408.183 329.173 410.131 327.549 410.682 326.934L411.05 326.522Z" fill="#000C48"/>
<path d="M401.444 331.33L405.317 330.695H438.906V341.362C441.649 338.873 445.382 339.267 446.906 339.775C446.927 340.05 446.957 338.479 446.906 329.997C446.843 319.393 444.557 311.964 428.683 310.313C415.984 308.992 407.815 315.731 405.317 319.266C403.336 318.86 400.428 319.435 399.222 319.774L401.889 323.076C397.444 327.457 399.158 330.377 399.222 329.616C399.273 329.006 400.725 328.303 401.444 328.028V331.33Z" fill="#5397F5"/>
<path fill-rule="evenodd" clip-rule="evenodd" d="M428.632 310.81C416.139 309.511 408.135 316.144 405.726 319.554L405.537 319.821L405.217 319.756C404.305 319.569 403.145 319.604 402.039 319.737C401.323 319.823 400.647 319.948 400.103 320.07L402.562 323.114L402.24 323.432C400.08 325.561 399.467 327.284 399.362 328.324C399.352 328.425 399.347 328.519 399.345 328.607C399.492 328.486 399.655 328.374 399.818 328.272C400.312 327.964 400.886 327.707 401.266 327.561L401.944 327.302V330.741L405.277 330.195H439.406V340.331C441.86 338.653 444.761 338.749 446.428 339.126C446.43 338.886 446.432 338.573 446.433 338.169C446.437 336.752 446.432 334.241 446.406 330C446.375 324.709 445.783 320.348 443.325 317.099C440.881 313.869 436.505 311.629 428.632 310.81ZM447.405 339.736C447.405 339.739 447.405 339.74 447.405 339.736V339.736ZM405.097 318.719C407.881 315.007 416.128 308.505 428.735 309.816C436.735 310.648 441.439 312.948 444.122 316.496C446.792 320.025 447.374 324.68 447.406 329.994C447.432 334.235 447.437 336.75 447.433 338.171C447.431 338.881 447.427 339.32 447.422 339.566C447.42 339.684 447.417 339.771 447.413 339.823C447.412 339.833 447.41 339.861 447.404 339.893C447.402 339.9 447.392 339.96 447.359 340.026L447.358 340.027C447.348 340.048 447.28 340.189 447.109 340.263C446.996 340.311 446.867 340.318 446.745 340.275C446.692 340.257 446.649 340.232 446.615 340.207C445.103 339.751 441.72 339.484 439.242 341.732L438.406 342.491V331.195H405.358L400.944 331.919V328.793C400.743 328.891 400.536 329.003 400.347 329.121C400.133 329.254 399.961 329.384 399.844 329.501C399.737 329.61 399.721 329.664 399.72 329.663C399.719 329.663 399.72 329.661 399.72 329.657C399.713 329.737 399.692 329.887 399.588 330.021C399.53 330.097 399.439 330.175 399.31 330.214C399.181 330.252 399.062 330.237 398.971 330.205C398.81 330.149 398.711 330.034 398.664 329.971C398.608 329.896 398.563 329.811 398.527 329.727C398.386 329.396 398.302 328.877 398.367 328.224C398.494 326.963 399.182 325.155 401.219 323.042L398.356 319.498L399.087 319.292C399.713 319.117 400.767 318.883 401.919 318.744C402.952 318.62 404.098 318.567 405.097 318.719Z" fill="#0B0B09"/>
<path d="M412.414 332.773C412.396 333.208 411.868 333.5 409.16 333.554C406.618 333.477 405.471 333.01 405.729 332.209C405.988 331.408 407.858 331.607 409.683 331.874C411.509 332.141 412.432 332.337 412.414 332.773Z" fill="#5397F5"/>
<path fill-rule="evenodd" clip-rule="evenodd" d="M412.551 332.085C412.749 332.233 412.927 332.469 412.914 332.794C412.904 333.018 412.822 333.246 412.623 333.434C412.444 333.603 412.203 333.711 411.932 333.788C411.392 333.941 410.525 334.027 409.17 334.054L409.157 334.054L409.145 334.054C407.863 334.015 406.868 333.878 406.211 333.618C405.883 333.488 405.581 333.305 405.39 333.034C405.18 332.735 405.146 332.389 405.253 332.055C405.382 331.658 405.702 331.433 406.024 331.313C406.341 331.194 406.721 331.15 407.107 331.141C407.883 331.123 408.847 331.246 409.756 331.379C410.662 331.512 411.386 331.632 411.884 331.781C412.129 331.855 412.367 331.949 412.551 332.085ZM411.597 332.739C411.181 332.614 410.53 332.503 409.611 332.368C408.694 332.234 407.81 332.125 407.13 332.141C406.788 332.149 406.538 332.188 406.375 332.249C406.221 332.307 406.207 332.357 406.205 332.362C406.205 332.362 406.205 332.362 406.205 332.362C406.185 332.426 406.195 332.441 406.206 332.456C406.207 332.457 406.207 332.458 406.208 332.458C406.239 332.502 406.334 332.591 406.579 332.688C407.065 332.88 407.91 333.015 409.162 333.054C410.507 333.027 411.256 332.94 411.659 332.826C411.698 332.815 411.731 332.804 411.76 332.794C411.715 332.777 411.661 332.758 411.597 332.739Z" fill="#000C48"/>
<path d="M423.876 333.128C423.908 333.563 424.444 333.839 427.153 333.811C429.691 333.658 430.824 333.156 430.541 332.364C430.259 331.571 428.396 331.826 426.579 332.148C424.762 332.47 423.845 332.694 423.876 333.128Z" fill="#5397F5"/>
<path fill-rule="evenodd" clip-rule="evenodd" d="M423.719 332.445C423.526 332.599 423.354 332.84 423.377 333.164C423.394 333.388 423.483 333.613 423.688 333.796C423.871 333.959 424.115 334.059 424.389 334.128C424.934 334.265 425.802 334.325 427.158 334.311L427.17 334.311L427.183 334.31C428.463 334.233 429.454 334.066 430.102 333.786C430.426 333.647 430.722 333.455 430.905 333.178C431.106 332.873 431.13 332.526 431.012 332.196C430.872 331.802 430.545 331.588 430.219 331.477C429.899 331.368 429.518 331.335 429.132 331.338C428.356 331.343 427.396 331.495 426.492 331.655C425.59 331.815 424.87 331.957 424.377 332.121C424.133 332.202 423.898 332.303 423.719 332.445ZM424.692 333.07C425.104 332.933 425.751 332.802 426.666 332.64C427.578 332.478 428.459 332.342 429.139 332.338C429.481 332.335 429.732 332.367 429.897 332.423C430.053 332.476 430.068 332.526 430.07 332.531C430.07 332.531 430.07 332.531 430.07 332.531C430.092 332.594 430.082 332.609 430.072 332.625C430.071 332.626 430.071 332.626 430.07 332.627C430.041 332.672 429.948 332.764 429.707 332.868C429.227 333.075 428.386 333.235 427.135 333.311C425.79 333.325 425.039 333.261 424.632 333.158C424.593 333.149 424.56 333.139 424.53 333.13C424.575 333.111 424.629 333.091 424.692 333.07Z" fill="#000C48"/>
<path fill-rule="evenodd" clip-rule="evenodd" d="M417.673 336.675C417.949 336.675 418.173 336.898 418.173 337.175C418.173 339.126 418.085 342.204 417.863 345.063C417.752 346.492 417.608 347.873 417.423 349.035C417.241 350.179 417.012 351.169 416.709 351.774C416.468 352.256 416.501 352.472 416.53 352.543C416.552 352.596 416.624 352.688 416.889 352.75C417.435 352.878 418.314 352.754 418.997 352.568C419.263 352.495 419.538 352.651 419.611 352.918C419.684 353.184 419.527 353.459 419.261 353.532C418.546 353.727 417.463 353.912 416.661 353.724C416.251 353.628 415.802 353.406 415.604 352.92C415.413 352.451 415.527 351.903 415.815 351.327C416.042 350.874 416.253 350.023 416.435 348.878C416.614 347.753 416.756 346.401 416.866 344.985C417.085 342.155 417.173 339.104 417.173 337.175C417.173 336.898 417.397 336.675 417.673 336.675Z" fill="#000C48"/>
<path fill-rule="evenodd" clip-rule="evenodd" d="M431.25 352.248C431.503 352.359 431.619 352.653 431.509 352.906C430.499 355.224 429.266 356.477 428.21 357.163C427.685 357.505 427.213 357.699 426.849 357.816C426.668 357.874 426.516 357.912 426.402 357.939C426.363 357.948 426.341 357.953 426.322 357.958C426.306 357.961 426.291 357.965 426.268 357.97C426.248 357.975 426.238 357.978 426.236 357.978C425.98 358.068 425.698 357.937 425.602 357.682C425.505 357.423 425.636 357.135 425.895 357.038C425.962 357.013 426.048 356.993 426.151 356.968C426.475 356.891 426.976 356.773 427.666 356.325C428.54 355.756 429.653 354.664 430.592 352.507C430.702 352.254 430.997 352.138 431.25 352.248Z" fill="#000C48"/>
<path fill-rule="evenodd" clip-rule="evenodd" d="M407.339 347.719C410.849 347.719 413.695 344.873 413.695 341.362C413.695 337.852 410.849 335.006 407.339 335.006C403.828 335.006 400.982 337.852 400.982 341.362C400.982 344.873 403.828 347.719 407.339 347.719ZM407.339 348.719C411.401 348.719 414.695 345.425 414.695 341.362C414.695 337.299 411.401 334.006 407.339 334.006C403.276 334.006 399.982 337.299 399.982 341.362C399.982 345.425 403.276 348.719 407.339 348.719Z" fill="#000C48"/>
<path fill-rule="evenodd" clip-rule="evenodd" d="M428.56 347.719C432.071 347.719 434.917 344.873 434.917 341.362C434.917 337.852 432.071 335.006 428.56 335.006C425.05 335.006 422.204 337.852 422.204 341.362C422.204 344.873 425.05 347.719 428.56 347.719ZM428.56 348.719C432.623 348.719 435.917 345.425 435.917 341.362C435.917 337.299 432.623 334.006 428.56 334.006C424.497 334.006 421.204 337.299 421.204 341.362C421.204 345.425 424.497 348.719 428.56 348.719Z" fill="#000C48"/>
<path fill-rule="evenodd" clip-rule="evenodd" d="M417.85 339.659C416.221 339.659 415.075 340.687 414.728 341.17C414.567 341.395 414.255 341.446 414.03 341.285C413.806 341.124 413.755 340.811 413.916 340.587C414.392 339.924 415.81 338.659 417.85 338.659C419.89 338.659 421.308 339.924 421.784 340.587C421.945 340.811 421.894 341.124 421.669 341.285C421.445 341.446 421.133 341.395 420.972 341.17C420.624 340.687 419.479 339.659 417.85 339.659Z" fill="#000C48"/>
<path fill-rule="evenodd" clip-rule="evenodd" d="M400.149 340.662C400.171 340.387 400.411 340.181 400.687 340.203L404.496 340.502C404.772 340.524 404.977 340.764 404.956 341.04C404.934 341.315 404.693 341.52 404.418 341.499L400.608 341.2C400.333 341.178 400.127 340.937 400.149 340.662Z" fill="#000C48"/>
<path fill-rule="evenodd" clip-rule="evenodd" d="M435.025 340.324C435.025 340.048 435.249 339.824 435.525 339.824H439.351C439.627 339.824 439.851 340.048 439.851 340.324C439.851 340.6 439.627 340.824 439.351 340.824H435.525C435.249 340.824 435.025 340.6 435.025 340.324Z" fill="#000C48"/>
<path d="M257 381C257 378.239 259.239 376 262 376H309.706C312.467 376 314.706 378.239 314.706 381V424.794C314.706 427.555 312.467 429.794 309.706 429.794H262C259.239 429.794 257 427.555 257 424.794V381Z" fill="#5397F5"/>
<path fill-rule="evenodd" clip-rule="evenodd" d="M309.706 377H262C259.791 377 258 378.791 258 381V424.794C258 427.003 259.791 428.794 262 428.794H309.706C311.915 428.794 313.706 427.003 313.706 424.794V381C313.706 378.791 311.915 377 309.706 377ZM262 376C259.239 376 257 378.239 257 381V424.794C257 427.555 259.239 429.794 262 429.794H309.706C312.467 429.794 314.706 427.555 314.706 424.794V381C314.706 378.239 312.467 376 309.706 376H262Z" fill="#000C48"/>
<path fill-rule="evenodd" clip-rule="evenodd" d="M444.782 342.298C444.861 342.562 444.711 342.841 444.447 342.92C443.819 343.109 443.241 343.591 442.759 344.17C442.282 344.745 441.942 345.366 441.779 345.748C441.671 346.002 441.378 346.121 441.123 346.013C440.869 345.905 440.751 345.611 440.859 345.357C441.056 344.893 441.446 344.187 441.99 343.532C442.53 342.882 443.263 342.231 444.16 341.963C444.424 341.883 444.703 342.033 444.782 342.298Z" fill="#000C48"/>
<path d="M416.64 433.584C414.088 433.272 412.271 433.522 411.084 433.584L411.617 434.359L416.64 433.584Z" fill="#0B0B09"/>
<path d="M418.377 435.719C415.825 435.406 413.094 435.656 411.907 435.718L412.44 436.493L418.377 435.719Z" fill="#0B0B09"/>
<path d="M420.279 438.328C417.726 438.016 415.475 438.638 414.288 438.7L414.822 439.475L420.279 438.328Z" fill="#0B0B09"/>
<path fill-rule="evenodd" clip-rule="evenodd" d="M110.762 145.373H26.9548C25.8503 145.373 24.9548 146.269 24.9548 147.373V179.677C24.9548 180.781 25.8503 181.677 26.9548 181.677H110.762C111.867 181.677 112.762 180.781 112.762 179.677V147.373C112.762 146.269 111.867 145.373 110.762 145.373ZM26.9548 144.373C25.298 144.373 23.9548 145.716 23.9548 147.373V179.677C23.9548 181.334 25.298 182.677 26.9548 182.677H110.762C112.419 182.677 113.762 181.334 113.762 179.677V147.373C113.762 145.716 112.419 144.373 110.762 144.373H26.9548Z" fill="#000C48"/>
<path d="M458.14 319.719C458.14 318.062 459.484 316.719 461.14 316.719H520C521.657 316.719 523 318.062 523 319.719V349.488C523 351.145 521.657 352.488 520 352.488H461.14C459.484 352.488 458.14 351.145 458.14 349.488V319.719Z" fill="white"/>
<path fill-rule="evenodd" clip-rule="evenodd" d="M520 317.719H461.14C460.036 317.719 459.14 318.614 459.14 319.719V349.488C459.14 350.592 460.036 351.488 461.14 351.488H520C521.105 351.488 522 350.592 522 349.488V319.719C522 318.614 521.105 317.719 520 317.719ZM461.14 316.719C459.484 316.719 458.14 318.062 458.14 319.719V349.488C458.14 351.145 459.484 352.488 461.14 352.488H520C521.657 352.488 523 351.145 523 349.488V319.719C523 318.062 521.657 316.719 520 316.719H461.14Z" fill="#000C48"/>
<path d="M342.644 186.683C342.644 185.538 343.572 184.61 344.717 184.61H374.016C375.161 184.61 376.089 185.538 376.089 186.683C376.089 187.828 375.161 188.756 374.016 188.756H344.717C343.572 188.756 342.644 187.828 342.644 186.683Z" fill="white"/>
<path d="M500.954 330.669C500.954 329.817 501.645 329.126 502.497 329.126H517.909C518.761 329.126 519.451 329.817 519.451 330.669C519.451 331.521 518.761 332.211 517.909 332.211H502.497C501.645 332.211 500.954 331.521 500.954 330.669Z" fill="#5397F5"/>
<path d="M265.165 385.918C265.165 385.066 265.855 384.375 266.707 384.375H282.119C282.971 384.375 283.662 385.066 283.662 385.918C283.662 386.77 282.971 387.46 282.119 387.46H266.707C265.855 387.46 265.165 386.77 265.165 385.918Z" fill="#0B0B09"/>
<path d="M272.458 393.991C272.458 393.139 273.148 392.448 274 392.448H304.998C305.85 392.448 306.541 393.139 306.541 393.991C306.541 394.843 305.85 395.533 304.998 395.533H274C273.148 395.533 272.458 394.843 272.458 393.991Z" fill="white"/>
<path d="M265.165 402.064C265.165 401.212 265.855 400.521 266.707 400.521H280.814C281.666 400.521 282.357 401.212 282.357 402.064C282.357 402.916 281.666 403.607 280.814 403.607H266.707C265.855 403.607 265.165 402.916 265.165 402.064Z" fill="white"/>
<path d="M280.032 418.21C280.032 417.358 280.723 416.668 281.575 416.668H305.752C306.604 416.668 307.295 417.358 307.295 418.21C307.295 419.062 306.604 419.753 305.752 419.753H281.575C280.723 419.753 280.032 419.062 280.032 418.21Z" fill="#0B0B09"/>
<path d="M482.826 345.678C482.826 344.826 483.516 344.136 484.368 344.136H515.835C516.687 344.136 517.377 344.826 517.377 345.678C517.377 346.53 516.687 347.221 515.835 347.221H484.368C483.516 347.221 482.826 346.53 482.826 345.678Z" fill="#0B0B09"/>
<path d="M482.826 339.458C482.826 338.606 483.516 337.915 484.368 337.915H497.465C498.317 337.915 499.008 338.606 499.008 339.458C499.008 340.31 498.317 341 497.465 341H484.368C483.516 341 482.826 340.31 482.826 339.458Z" fill="#0B0B09"/>
<path d="M352.629 193.858C352.629 192.714 353.557 191.786 354.702 191.786H360.737C361.881 191.786 362.809 192.714 362.809 193.858C362.809 195.003 361.881 195.931 360.736 195.931H354.702C353.557 195.931 352.629 195.003 352.629 193.858Z" fill="#0B0B09"/>
<path d="M367.017 204.742C367.017 203.597 367.945 202.669 369.09 202.669H387.357C388.502 202.669 389.43 203.597 389.43 204.742C389.43 205.887 388.502 206.815 387.357 206.815H369.09C367.945 206.815 367.017 205.887 367.017 204.742Z" fill="#0B0B09"/>
<path fill-rule="evenodd" clip-rule="evenodd" d="M465.747 323.329C466.263 323.329 466.68 322.911 466.68 322.396C466.68 321.881 466.263 321.463 465.747 321.463C465.232 321.463 464.815 321.881 464.815 322.396C464.815 322.911 465.232 323.329 465.747 323.329ZM465.747 324.329C466.815 324.329 467.68 323.464 467.68 322.396C467.68 321.329 466.815 320.463 465.747 320.463C464.68 320.463 463.815 321.329 463.815 322.396C463.815 323.464 464.68 324.329 465.747 324.329Z" fill="#000C48"/>
<path fill-rule="evenodd" clip-rule="evenodd" d="M475.255 323.329C475.77 323.329 476.187 322.911 476.187 322.396C476.187 321.881 475.77 321.463 475.255 321.463C474.739 321.463 474.322 321.881 474.322 322.396C474.322 322.911 474.739 323.329 475.255 323.329ZM475.255 324.329C476.322 324.329 477.187 323.464 477.187 322.396C477.187 321.329 476.322 320.463 475.255 320.463C474.187 320.463 473.322 321.329 473.322 322.396C473.322 323.464 474.187 324.329 475.255 324.329Z" fill="#000C48"/>
<path fill-rule="evenodd" clip-rule="evenodd" d="M484.761 323.329C485.277 323.329 485.694 322.911 485.694 322.396C485.694 321.881 485.277 321.463 484.761 321.463C484.246 321.463 483.829 321.881 483.829 322.396C483.829 322.911 484.246 323.329 484.761 323.329ZM484.761 324.329C485.829 324.329 486.694 323.464 486.694 322.396C486.694 321.329 485.829 320.463 484.761 320.463C483.694 320.463 482.829 321.329 482.829 322.396C482.829 323.464 483.694 324.329 484.761 324.329Z" fill="#000C48"/>
<path fill-rule="evenodd" clip-rule="evenodd" d="M42.8717 243.525C43.0138 243.288 43.321 243.211 43.5577 243.353C43.5575 243.353 43.5575 243.353 43.5578 243.354C43.5587 243.354 43.5633 243.357 43.5729 243.362C43.5841 243.368 43.5991 243.375 43.6185 243.385C43.6574 243.405 43.709 243.43 43.7737 243.46C43.903 243.522 44.0781 243.603 44.2953 243.702C44.7292 243.899 45.3246 244.165 46.0444 244.483C47.4835 245.12 49.4148 245.965 51.534 246.888C55.7724 248.733 60.7596 250.888 64.0592 252.309C64.3128 252.418 64.4298 252.712 64.3206 252.966C64.2113 253.22 63.9172 253.337 63.6636 253.227C60.3633 251.806 55.3748 249.65 51.1349 247.805C49.0151 246.882 47.0816 246.036 45.6397 245.398C44.9189 245.079 44.3198 244.811 43.8811 244.612C43.4609 244.421 43.1505 244.275 43.0432 244.211C42.8065 244.069 42.7297 243.762 42.8717 243.525Z" fill="#000C48"/>
<path fill-rule="evenodd" clip-rule="evenodd" d="M40.1303 249.769C40.2724 249.533 40.5795 249.456 40.8163 249.598C40.8161 249.598 40.8161 249.598 40.8163 249.598C40.8173 249.598 40.8218 249.601 40.8314 249.606C40.8426 249.612 40.8577 249.62 40.8771 249.63C40.9159 249.649 40.9676 249.674 41.0323 249.705C41.1616 249.766 41.3367 249.847 41.5538 249.946C41.9877 250.143 42.5832 250.409 43.3029 250.728C44.7421 251.365 46.6733 252.209 48.7926 253.132C53.0309 254.977 58.0182 257.132 61.3177 258.553C61.5714 258.663 61.6884 258.957 61.5791 259.21C61.4699 259.464 61.1757 259.581 60.9221 259.472C57.6219 258.05 52.6333 255.895 48.3934 254.049C46.2736 253.126 44.3402 252.28 42.8983 251.642C42.1775 251.323 41.5783 251.056 41.1397 250.856C40.7195 250.665 40.409 250.52 40.3018 250.455C40.065 250.313 39.9882 250.006 40.1303 249.769Z" fill="#000C48"/>
<path fill-rule="evenodd" clip-rule="evenodd" d="M37.3888 256.014C37.5309 255.777 37.838 255.7 38.0748 255.842C38.0746 255.842 38.0746 255.842 38.0749 255.842C38.0758 255.843 38.0804 255.845 38.09 255.85C38.1012 255.856 38.1162 255.864 38.1356 255.874C38.1745 255.893 38.2261 255.919 38.2908 255.949C38.4201 256.011 38.5952 256.092 38.8123 256.19C39.2463 256.388 39.8417 256.654 40.5615 256.972C42.0006 257.609 43.9319 258.454 46.0511 259.376C50.2894 261.221 55.2767 263.376 58.5763 264.798C58.8299 264.907 58.9469 265.201 58.8377 265.455C58.7284 265.708 58.4343 265.825 58.1807 265.716C54.8804 264.294 49.8919 262.139 45.652 260.293C43.5322 259.371 41.5987 258.525 40.1568 257.887C39.436 257.568 38.8368 257.3 38.3982 257.101C37.978 256.909 37.6676 256.764 37.5603 256.7C37.3235 256.558 37.2468 256.251 37.3888 256.014Z" fill="#000C48"/>
<path fill-rule="evenodd" clip-rule="evenodd" d="M45.5143 273.826C45.733 273.319 46.3215 273.085 46.8286 273.304L52.4235 275.717C52.9306 275.936 53.1643 276.524 52.9456 277.031C52.7268 277.539 52.1384 277.772 51.6313 277.554L46.0364 275.14C45.5293 274.921 45.2955 274.333 45.5143 273.826Z" fill="#000C48"/>
<path d="M267.088 122.438L310.899 97.6227C311.706 97.1656 312.646 97.958 312.333 98.8308L306.674 114.585C306.518 115.02 306.68 115.505 307.066 115.759L320.416 124.528C321.263 125.084 320.84 126.403 319.828 126.363L267.542 124.307C266.536 124.267 266.212 122.934 267.088 122.438Z" fill="white"/>
<path fill-rule="evenodd" clip-rule="evenodd" d="M311.862 98.6618C312.019 98.2254 311.549 97.8292 311.145 98.0577L267.335 122.873C266.897 123.121 267.058 123.788 267.561 123.807L319.847 125.863C320.354 125.883 320.565 125.224 320.141 124.946L306.792 116.177C306.212 115.796 305.969 115.068 306.203 114.416L311.862 98.6618ZM310.652 97.1876C311.863 96.502 313.274 97.6906 312.803 98.9999L307.145 114.754C307.066 114.972 307.148 115.214 307.341 115.341L320.69 124.11C321.961 124.945 321.327 126.922 319.808 126.863L267.522 124.807C266.013 124.747 265.528 122.747 266.842 122.003L310.652 97.1876Z" fill="#000C48"/>
<path fill-rule="evenodd" clip-rule="evenodd" d="M266.856 124.003C266.449 123.57 266.464 122.791 267.088 122.438L310.899 97.6227C311.706 97.1656 312.646 97.958 312.333 98.8308L306.674 114.585C306.637 114.688 306.618 114.793 306.615 114.898C294.053 117.784 274.543 122.26 266.856 124.003Z" fill="#222D3D"/>
<path fill-rule="evenodd" clip-rule="evenodd" d="M311.862 98.6618C312.019 98.2254 311.549 97.8292 311.145 98.0577L267.335 122.873C267.119 122.995 267.041 123.228 267.095 123.436C274.941 121.656 293.797 117.33 306.181 114.485C306.188 114.462 306.195 114.439 306.203 114.416L311.862 98.6618ZM310.652 97.1876C311.863 96.502 313.274 97.6906 312.803 98.9999L307.145 114.754C307.126 114.806 307.116 114.859 307.115 114.911L307.105 115.298L306.727 115.385C294.165 118.271 274.654 122.748 266.966 124.49L266.687 124.554L266.491 124.345C265.896 123.713 265.894 122.539 266.842 122.003L310.652 97.1876Z" fill="black"/>
<path d="M336.975 282.901C336.975 302.8 320.844 318.931 300.945 318.931C281.046 318.931 264.915 302.8 264.915 282.901C264.915 263.002 281.046 246.871 300.945 246.871C320.844 246.871 336.975 263.002 336.975 282.901Z" fill="#000C48"/>
<path fill-rule="evenodd" clip-rule="evenodd" d="M300.945 317.931C320.292 317.931 335.975 302.248 335.975 282.901C335.975 263.554 320.292 247.871 300.945 247.871C281.599 247.871 265.915 263.554 265.915 282.901C265.915 302.248 281.599 317.931 300.945 317.931ZM300.945 318.931C320.844 318.931 336.975 302.8 336.975 282.901C336.975 263.002 320.844 246.871 300.945 246.871C281.046 246.871 264.915 263.002 264.915 282.901C264.915 302.8 281.046 318.931 300.945 318.931Z" fill="#000C48"/>
<path d="M332.1 282.901C332.1 300.107 318.151 314.055 300.945 314.055C283.739 314.055 269.791 300.107 269.791 282.901C269.791 265.695 283.739 251.747 300.945 251.747C318.151 251.747 332.1 265.695 332.1 282.901Z" fill="white"/>
<path fill-rule="evenodd" clip-rule="evenodd" d="M300.945 313.055C317.599 313.055 331.1 299.555 331.1 282.901C331.1 266.247 317.599 252.747 300.945 252.747C284.291 252.747 270.791 266.247 270.791 282.901C270.791 299.555 284.291 313.055 300.945 313.055ZM300.945 314.055C318.151 314.055 332.1 300.107 332.1 282.901C332.1 265.695 318.151 251.747 300.945 251.747C283.739 251.747 269.791 265.695 269.791 282.901C269.791 300.107 283.739 314.055 300.945 314.055Z" fill="#000C48"/>
<path d="M303.852 282.901C303.852 284.506 302.551 285.808 300.945 285.808C299.34 285.808 298.038 284.506 298.038 282.901C298.038 281.296 299.34 279.994 300.945 279.994C302.551 279.994 303.852 281.296 303.852 282.901Z" fill="#000C48"/>
<path fill-rule="evenodd" clip-rule="evenodd" d="M300.945 256.351C301.497 256.351 301.945 256.799 301.945 257.351V281.728C301.945 282.281 301.497 282.728 300.945 282.728C300.393 282.728 299.945 282.281 299.945 281.728V257.351C299.945 256.799 300.393 256.351 300.945 256.351Z" fill="#000C48"/>
<path fill-rule="evenodd" clip-rule="evenodd" d="M299.955 282.07C300.297 281.636 300.925 281.561 301.359 281.903L314.449 292.202C314.883 292.544 314.958 293.172 314.616 293.606C314.275 294.041 313.646 294.116 313.212 293.774L300.123 283.475C299.688 283.133 299.613 282.504 299.955 282.07Z" fill="#000C48"/>
<path d="M34.1172 154.365C34.1172 153.22 35.0452 152.292 36.19 152.292H86.9761C88.1209 152.292 89.049 153.22 89.049 154.365C89.049 155.509 88.1209 156.437 86.9761 156.437H36.19C35.0452 156.437 34.1172 155.509 34.1172 154.365Z" fill="#5397F5"/>
<path d="M34.1172 163.166C34.1172 162.022 35.0452 161.094 36.19 161.094H102.729C103.874 161.094 104.802 162.022 104.802 163.166V173.276C104.802 174.421 103.874 175.349 102.729 175.349H36.19C35.0452 175.349 34.1172 174.421 34.1172 173.276V163.166Z" fill="#0B0B09"/>
<path d="M99.2839 154.349C99.2839 155.502 98.3488 156.437 97.1953 156.437C96.0418 156.437 95.1067 155.502 95.1067 154.349C95.1067 153.195 96.0418 152.26 97.1953 152.26C98.3488 152.26 99.2839 153.195 99.2839 154.349Z" fill="#000C48"/>
<path d="M106.932 154.349C106.932 155.502 105.997 156.437 104.843 156.437C103.69 156.437 102.755 155.502 102.755 154.349C102.755 153.195 103.69 152.26 104.843 152.26C105.997 152.26 106.932 153.195 106.932 154.349Z" fill="#000C48"/>
<path d="M409.875 340.223C409.875 341.674 409.205 342.85 408.378 342.85C407.552 342.85 406.881 341.674 406.881 340.223C406.881 338.773 407.552 337.596 408.378 337.596C409.205 337.596 409.875 338.773 409.875 340.223Z" fill="#000C48"/>
<path d="M428.953 340.58C428.953 342.03 428.283 343.206 427.456 343.206C426.629 343.206 425.959 342.03 425.959 340.58C425.959 339.129 426.629 337.953 427.456 337.953C428.283 337.953 428.953 339.129 428.953 340.58Z" fill="#000C48"/>
<path d="M348.24 445.229C348.24 443.854 349.355 442.74 350.73 442.74H442.909C444.284 442.74 445.399 443.854 445.399 445.229C445.399 446.604 444.284 447.718 442.909 447.718H350.73C349.355 447.718 348.24 446.604 348.24 445.229Z" fill="white"/>
<path fill-rule="evenodd" clip-rule="evenodd" d="M442.909 443.74H350.73C349.907 443.74 349.24 444.407 349.24 445.229C349.24 446.052 349.907 446.718 350.73 446.718H442.909C443.732 446.718 444.399 446.052 444.399 445.229C444.399 444.407 443.732 443.74 442.909 443.74ZM350.73 442.74C349.355 442.74 348.24 443.854 348.24 445.229C348.24 446.604 349.355 447.718 350.73 447.718H442.909C444.284 447.718 445.399 446.604 445.399 445.229C445.399 443.854 444.284 442.74 442.909 442.74H350.73Z" fill="#000C48"/>
<path fill-rule="evenodd" clip-rule="evenodd" d="M442.909 443.74H414.469C413.646 443.74 412.979 444.407 412.979 445.229C412.979 446.052 413.646 446.718 414.469 446.718H442.909C443.732 446.718 444.399 446.052 444.399 445.229C444.399 444.407 443.732 443.74 442.909 443.74ZM414.469 442.74C413.094 442.74 411.979 443.854 411.979 445.229C411.979 446.604 413.094 447.718 414.469 447.718H442.909C444.284 447.718 445.399 446.604 445.399 445.229C445.399 443.854 444.284 442.74 442.909 442.74H414.469Z" fill="#000C48"/>
<path d="M333.573 412.3C334.046 411.197 335.13 410.481 336.33 410.481L393.445 410.481C394.401 410.481 395.3 410.937 395.865 411.709L418.573 442.723H354.782C353.897 442.723 353.058 442.332 352.488 441.656L332.802 418.296C332.071 417.428 331.892 416.223 332.338 415.181L333.573 412.3Z" fill="white"/>
<path fill-rule="evenodd" clip-rule="evenodd" d="M393.445 411.481L336.33 411.481C335.53 411.481 334.807 411.958 334.492 412.694L333.257 415.575C332.96 416.27 333.079 417.073 333.566 417.651L353.253 441.012C353.633 441.463 354.192 441.723 354.782 441.723H416.602L395.058 412.3C394.682 411.785 394.082 411.481 393.445 411.481ZM395.865 411.709C395.3 410.937 394.401 410.481 393.445 410.481L336.33 410.481C335.13 410.481 334.046 411.197 333.573 412.3L332.338 415.181C331.892 416.223 332.071 417.428 332.802 418.296L352.488 441.656C353.058 442.332 353.897 442.723 354.782 442.723H418.573L395.865 411.709Z" fill="#000C48"/>
<path d="M332.938 419.006C331.497 417.023 332.914 414.243 335.365 414.243H391.536C392.496 414.243 393.398 414.702 393.963 415.479L413.777 442.74H350.698C350.378 442.74 350.077 442.587 349.889 442.328L332.938 419.006Z" fill="white"/>
<path fill-rule="evenodd" clip-rule="evenodd" d="M391.536 415.243H335.365C333.731 415.243 332.786 417.097 333.747 418.419L350.698 441.74H411.814L393.154 416.067C392.778 415.549 392.176 415.243 391.536 415.243ZM393.963 415.479C393.398 414.702 392.496 414.243 391.536 414.243H335.365C332.914 414.243 331.497 417.023 332.938 419.006L349.889 442.328C350.077 442.587 350.378 442.74 350.698 442.74H413.777L393.963 415.479Z" fill="#000C48"/>
<path d="M376.904 426.817C379.264 430.405 379.039 434.72 376.402 436.455C373.765 438.189 369.713 436.687 367.354 433.099C364.994 429.511 365.219 425.196 367.856 423.461C370.493 421.727 374.544 423.229 376.904 426.817Z" fill="#5397F5"/>
<path d="M173 303.5C173 304.881 171.881 306 170.5 306C169.119 306 168 304.881 168 303.5C168 302.119 169.119 301 170.5 301C171.881 301 173 302.119 173 303.5Z" fill="#000C48"/>
<path d="M173 339.5C173 340.881 171.881 342 170.5 342C169.119 342 168 340.881 168 339.5C168 338.119 169.119 337 170.5 337C171.881 337 173 338.119 173 339.5Z" fill="#000C48"/>
<path d="M173 375.5C173 376.881 171.881 378 170.5 378C169.119 378 168 376.881 168 375.5C168 374.119 169.119 373 170.5 373C171.881 373 173 374.119 173 375.5Z" fill="#000C48"/>
<path fill-rule="evenodd" clip-rule="evenodd" d="M347.991 103.964C348.032 103.413 348.512 103 349.063 103.041C351.822 103.248 354.66 103.68 357.541 104.39C358.077 104.523 358.404 105.064 358.272 105.601C358.14 106.137 357.598 106.464 357.062 106.332C354.295 105.65 351.567 105.234 348.914 105.035C348.363 104.994 347.95 104.514 347.991 103.964ZM341.562 104.002C341.609 104.553 341.201 105.037 340.651 105.084C337.753 105.332 335.013 105.807 332.489 106.426C331.953 106.558 331.412 106.23 331.28 105.694C331.148 105.157 331.476 104.616 332.013 104.484C334.632 103.841 337.474 103.348 340.48 103.091C341.03 103.044 341.515 103.452 341.562 104.002ZM364.359 107.66C364.579 107.154 365.168 106.922 365.675 107.142C368.199 108.241 370.727 109.581 373.237 111.196C373.701 111.495 373.835 112.114 373.536 112.578C373.237 113.043 372.618 113.177 372.154 112.878C369.736 111.321 367.303 110.032 364.877 108.976C364.37 108.756 364.138 108.167 364.359 107.66ZM325.182 107.724C325.402 108.231 325.17 108.82 324.663 109.04C323.287 109.637 322.059 110.256 320.999 110.867C320.52 111.142 319.909 110.978 319.633 110.499C319.358 110.02 319.522 109.409 320.001 109.133C321.132 108.482 322.428 107.83 323.867 107.205C324.373 106.985 324.962 107.217 325.182 107.724ZM378.662 116.453C379.026 116.038 379.658 115.996 380.074 116.359C381.126 117.28 382.172 118.257 383.207 119.293C383.598 119.683 383.598 120.317 383.207 120.707C382.817 121.098 382.183 121.098 381.793 120.707C380.788 119.703 379.776 118.756 378.757 117.864C378.341 117.501 378.299 116.869 378.662 116.453Z" fill="#222D3D"/>
<path d="M500 253.5C500 259.299 495.299 264 489.5 264C483.701 264 479 259.299 479 253.5C479 247.701 483.701 243 489.5 243C495.299 243 500 247.701 500 253.5Z" fill="#000C48"/>
<path d="M283 193.5C283 199.299 278.299 204 272.5 204C266.701 204 262 199.299 262 193.5C262 187.701 266.701 183 272.5 183C278.299 183 283 187.701 283 193.5Z" fill="#5397F5"/>
<path d="M205 438.5C205 444.299 200.299 449 194.5 449C188.701 449 184 444.299 184 438.5C184 432.701 188.701 428 194.5 428C200.299 428 205 432.701 205 438.5Z" fill="#000C48"/>
<path d="M523 235C523 238.314 520.314 241 517 241C513.686 241 511 238.314 511 235C511 231.686 513.686 229 517 229C520.314 229 523 231.686 523 235Z" fill="#5397F5"/>
</svg>
