<svg width="201" height="262" viewBox="0 0 201 262" fill="none" xmlns="http://www.w3.org/2000/svg">
<path d="M6.95499 128.287C13.8903 118.256 43.0764 114.2 56.8026 113.426L116.51 111.549C117.974 111.549 123.234 113.075 132.565 119.178C141.895 125.281 181.237 215.452 199.742 259.774H159.953L132.565 206.495L137.198 261H27.0977V233.884C10.61 222.71 10.4737 205.678 6.95499 192.46C3.43624 179.243 -1.71415 140.827 6.95499 128.287Z" fill="#000C48"/>
<path fill-rule="evenodd" clip-rule="evenodd" d="M116.081 111.403C117.586 112.264 130.756 117.995 132.565 119.178C141.895 125.281 181.237 215.451 199.742 259.774H198.773C198.773 259.774 138.47 131.404 132.565 124.24C126.659 117.075 116.081 111.403 116.081 111.403Z" fill="white"/>
<path d="M121.277 48.5057C122.047 57.2397 116.864 65.1953 114.617 68.46L53.0414 95.227C35.22 89.2865 23.1784 77.8872 23.9812 52.5197C24.784 27.1523 36.986 16.7162 45.3348 10.4546C53.6836 4.193 72.1473 -3.99525 93.9826 6.28018C115.818 16.5556 120.313 37.5882 121.277 48.5057Z" fill="#5397F5"/>
<path fill-rule="evenodd" clip-rule="evenodd" d="M51.5403 6.61095C51.3656 6.70037 51.1926 6.79024 51.0215 6.88049C75.5239 1.28072 121.963 4.65862 119.117 60.443C120.578 56.9728 121.659 52.8348 121.277 48.5057C120.313 37.5882 115.818 16.5556 93.9826 6.28018C80.4065 -0.108598 68.1337 0.640251 58.7851 3.6258C56.4289 4.48676 54.0139 5.47921 51.5403 6.61095Z" fill="white"/>
<path d="M115.213 72.2023C114.095 62.999 110.087 48.7962 108.222 42.8452C105.602 42.8452 94.9497 38.91 89.951 36.9424C81.5949 45.1359 73.1066 49.0212 65.2991 51.4547C57.4916 53.8882 49.0757 50.1872 45.8437 48.0326L49.0123 61.721C47.7871 60.9183 44.6143 59.465 41.7245 60.0733C38.1123 60.8338 36.7814 63.6856 37.9221 67.8682C38.8347 71.2142 45.9916 76.5291 49.4559 78.7682L56.6804 113.116C56.5325 113.327 57.2127 115.005 61.1164 120.024C65.0202 125.043 77.0652 131.072 82.5997 133.459L86.5922 126.995C82.5364 120.505 91.4507 116.052 96.4149 114.637C98.6963 109.757 86.8457 106.082 83.2968 104.941C79.748 103.8 78.6073 101.709 80.1916 100.801C81.459 100.075 87.5639 100.499 90.4579 100.801C90.9327 101.303 94.1402 102.005 103.171 100.801C114.46 99.296 116.611 83.7064 115.213 72.2023Z" fill="white"/>
<path d="M79.5691 102.716C69.4454 98.0221 63.7218 88.6619 62.3079 84.6794C65.3054 89.7697 84.1408 97.8621 93.0014 101.161C89.9851 100.761 83.4716 100.044 81.5486 100.384C79.6257 100.723 79.4277 102.08 79.5691 102.716Z" fill="#BFCDE0"/>
<path fill-rule="evenodd" clip-rule="evenodd" d="M108.047 42.3385C108.579 42.1931 109.129 42.5073 109.274 43.0401C110.15 46.2517 112.164 53.6179 113.214 57.3988L113.226 57.4418C113.903 59.878 116.534 69.3473 116.666 78.8691C116.733 83.6556 116.171 88.5468 114.344 92.588C112.499 96.6697 109.359 99.8838 104.36 101.198C96.5605 103.248 87.8962 100.959 80.3483 97.4067C72.7756 93.8424 66.1559 88.9259 62.3571 85.4684C61.9486 85.0967 61.9189 84.4642 62.2906 84.0558C62.6624 83.6473 63.2948 83.6176 63.7033 83.9893C67.3781 87.334 73.8343 92.1302 81.2 95.5971C88.5906 99.0758 96.7272 101.137 103.852 99.2636C108.18 98.1256 110.886 95.3842 112.522 91.7642C114.177 88.1039 114.731 83.5472 114.667 78.8969C114.538 69.6348 111.962 60.3634 111.294 57.9594L111.287 57.9341C110.236 54.148 108.221 46.7774 107.345 43.5663C107.2 43.0335 107.514 42.4838 108.047 42.3385Z" fill="#000C48"/>
<path fill-rule="evenodd" clip-rule="evenodd" d="M89.2362 35.8873C89.5531 35.5554 90.0551 35.4818 90.4539 35.7088C96.6022 39.2069 101.604 40.8308 105.272 41.5072C108.975 42.1899 111.259 41.8978 112.004 41.6495C112.528 41.4748 113.094 41.758 113.269 42.282C113.444 42.8059 113.16 43.3722 112.636 43.5469C111.447 43.9434 108.786 44.1888 104.909 43.4741C101.139 42.7788 96.1591 41.1655 90.1404 37.8267C85.9498 42.0691 79.0394 47.4816 71.2037 50.613C63.6925 53.6146 55.1915 54.5653 47.4603 50.1868L49.9402 61.228C50.0231 61.597 49.8907 61.9812 49.598 62.2208C49.3054 62.4604 48.9026 62.5144 48.5572 62.3604C46.8624 61.6046 44.3299 60.8643 42.195 60.994C41.1392 61.0581 40.2649 61.3296 39.6272 61.8304C39.0124 62.3132 38.5169 63.0873 38.3453 64.3744C38.0094 66.8931 39.6145 69.6413 42.1285 72.1947C44.5945 74.6993 47.7007 76.7757 49.799 77.9117C50.0562 78.051 50.2395 78.2958 50.3007 78.5818L57.7752 113.502C57.8908 114.042 57.5467 114.573 57.0066 114.689C56.4666 114.805 55.9351 114.46 55.8195 113.92L48.4404 79.446C46.2346 78.2044 43.1851 76.1186 40.7033 73.5979C38.1133 70.9672 35.8959 67.6116 36.3628 64.11C36.5926 62.387 37.307 61.1095 38.392 60.2575C39.454 59.4234 40.7692 59.0769 42.0738 58.9976C43.9235 58.8853 45.9195 59.2997 47.5798 59.8453L44.9787 48.264C44.8879 47.8601 45.0555 47.442 45.4001 47.2126C45.7447 46.9831 46.1951 46.9897 46.5328 47.2292C54.0355 52.5493 62.6183 51.8901 70.4615 48.7558C78.3138 45.6178 85.2582 40.053 89.2362 35.8873Z" fill="#000C48"/>
<path fill-rule="evenodd" clip-rule="evenodd" d="M89.6316 55.5791C90.1836 55.5616 90.6453 55.9949 90.6628 56.5469C90.7391 58.9505 91.1847 62.8609 92.2705 66.7113C93.366 70.5958 95.064 74.2393 97.528 76.3023C97.9106 76.6226 97.9985 77.1759 97.7341 77.599L95.3789 81.3674C95.0861 81.8358 94.4692 81.9782 94.0009 81.6855C93.5325 81.3927 93.3901 80.7758 93.6828 80.3075L95.5948 77.2483C93.0326 74.7512 91.3865 70.9451 90.3456 67.2542C89.2097 63.2264 88.7446 59.1527 88.6638 56.6104C88.6463 56.0583 89.0796 55.5967 89.6316 55.5791Z" fill="#000C48"/>
<path fill-rule="evenodd" clip-rule="evenodd" d="M79.8428 79.8673C80.3786 79.7333 80.9215 80.0591 81.0555 80.5948C81.0763 80.6783 81.0978 80.7659 81.1202 80.8572C81.5348 82.5467 82.2609 85.5061 85.1618 87.2862C85.6325 87.5751 85.78 88.1908 85.4911 88.6616C85.2023 89.1323 84.5865 89.2797 84.1158 88.9909C80.4899 86.7659 79.5938 83.0577 79.186 81.3701C79.1607 81.2653 79.1373 81.1683 79.1152 81.0799C78.9812 80.5442 79.307 80.0012 79.8428 79.8673Z" fill="#000C48"/>
<path d="M79.9459 59.4588C80.2453 61.759 79.4599 63.7576 78.1915 63.9227C76.9231 64.0879 75.6521 62.357 75.3527 60.0568C75.0532 57.7566 75.8386 55.758 77.107 55.5929C78.3754 55.4277 79.6464 57.1586 79.9459 59.4588Z" fill="#000C48"/>
<path d="M104.676 53.8062C104.975 56.1065 104.19 58.105 102.922 58.2702C101.653 58.4353 100.382 56.7044 100.083 54.4042C99.7833 52.104 100.569 50.1054 101.837 49.9403C103.106 49.7751 104.377 51.506 104.676 53.8062Z" fill="#000C48"/>
<path d="M97.0392 48.4447C95.7971 46.9904 99.021 43.5472 100.788 42.0073L106.62 43.1434C103.944 45.5164 98.2813 49.899 97.0392 48.4447Z" fill="#000C48"/>
<path fill-rule="evenodd" clip-rule="evenodd" d="M100.131 41.2534C100.364 41.0508 100.677 40.9668 100.979 41.0258L106.811 42.1618C107.185 42.2346 107.484 42.5129 107.585 42.88C107.685 43.247 107.568 43.6391 107.283 43.8915C105.923 45.0976 103.795 46.8239 101.828 48.0733C100.853 48.6927 99.8612 49.2318 98.9936 49.5144C98.5618 49.6551 98.0961 49.7542 97.6451 49.7304C97.1757 49.7056 96.6599 49.5403 96.2789 49.0942C95.6616 48.3715 95.6897 47.4824 95.8899 46.771C96.0899 46.0603 96.5056 45.3372 96.9682 44.6815C97.902 43.3583 99.2129 42.0536 100.131 41.2534ZM101.085 43.0839C100.283 43.8205 99.3025 44.8425 98.6023 45.8347C98.1934 46.4142 97.9255 46.9208 97.8151 47.3128C97.7499 47.5448 97.7552 47.6697 97.7711 47.7339C97.8824 47.7357 98.0781 47.7092 98.3742 47.6128C99.0013 47.4085 99.8252 46.9763 100.756 46.3852C101.968 45.6151 103.265 44.6377 104.385 43.7268L101.085 43.0839ZM97.7966 47.7917C97.7978 47.7932 97.7987 47.7942 97.7992 47.7948C97.7994 47.795 97.7996 47.7951 97.7997 47.7953C97.7986 47.794 97.7976 47.7928 97.7966 47.7917Z" fill="#000C48"/>
<path d="M80.943 50.4301C81.0287 48.3313 77.3737 47.6282 75.5355 47.5391L68.736 51.0727C72.7693 51.733 80.8574 52.529 80.943 50.4301Z" fill="#000C48"/>
<path fill-rule="evenodd" clip-rule="evenodd" d="M75.1337 46.6234C75.2753 46.5612 75.4295 46.5327 75.584 46.5402C76.5693 46.588 78.0605 46.7982 79.3294 47.3014C80.5033 47.767 82.014 48.7128 81.9422 50.4709C81.9145 51.1502 81.5115 51.6237 81.077 51.9124C80.6644 52.1866 80.1515 52.351 79.6436 52.4585C78.6157 52.6762 77.2726 52.7272 75.8791 52.6942C73.0698 52.6277 69.7809 52.2105 67.7401 51.8763C67.303 51.8048 66.965 51.4542 66.9095 51.0148C66.854 50.5754 67.0942 50.1518 67.4998 49.9738L75.1337 46.6234ZM75.7162 48.5519L71.5564 50.3775C72.9898 50.5362 74.5272 50.6617 75.9264 50.6948C77.2783 50.7268 78.434 50.6703 79.2292 50.5019C79.5949 50.4245 79.8178 50.3365 79.9365 50.2675C79.884 49.9443 79.5583 49.5437 78.5921 49.1605C77.6813 48.7993 76.5545 48.6129 75.7162 48.5519Z" fill="#000C48"/>
<path fill-rule="evenodd" clip-rule="evenodd" d="M42.1677 66.2943C42.1861 65.7423 42.6485 65.3098 43.2005 65.3282C48.1583 65.4935 50.3107 69.2716 50.7701 71.1803C50.8994 71.7172 50.5689 72.2573 50.032 72.3866C49.495 72.5158 48.955 72.1853 48.8257 71.6484C48.498 70.2871 46.8959 67.4526 43.1338 67.3271C42.5818 67.3087 42.1493 66.8463 42.1677 66.2943Z" fill="#000C48"/>
<path fill-rule="evenodd" clip-rule="evenodd" d="M83.6922 1.56832C95.8275 3.92582 107.903 10.9344 115.629 25.2263C127.937 47.9975 120.55 64.2433 115.472 69.8017C115.1 70.2095 114.467 70.2381 114.059 69.8656C113.652 69.4931 113.623 68.8606 113.995 68.4528C118.501 63.5202 125.771 48.1968 113.869 26.1774C106.463 12.4752 94.9326 5.78936 83.3108 3.53161C71.6514 1.26655 59.93 3.46736 52.2677 7.51955C44.5029 11.626 37.7014 16.9275 32.8291 24.845C27.9556 32.7643 24.9575 43.3901 24.9575 58.2351C24.9575 81.552 43.4916 91.8193 52.7884 94.0328C53.3257 94.1607 53.6575 94.6999 53.5296 95.2372C53.4017 95.7745 52.8624 96.1063 52.3252 95.9784C42.5559 93.6524 22.9575 82.856 22.9575 58.2351C22.9575 43.119 26.0122 32.1062 31.1258 23.7968C36.2405 15.4854 43.3604 9.9677 51.3327 5.75156C59.4075 1.48121 71.5945 -0.781883 83.6922 1.56832Z" fill="#000C48"/>
<path d="M94.8262 109.469C97.798 111.55 97.076 113.848 96.4568 115.045C103.804 116.048 111.97 119.258 115.134 120.737C115.299 118.013 116.446 110.806 119.715 103.773C123.802 94.9814 142.004 85.199 139.156 84.3322C136.308 83.4654 118.972 95.9721 105.723 100.058C92.4734 104.145 80.9575 98.3249 79.4716 101.544C77.9856 104.764 91.1113 106.869 94.8262 109.469Z" fill="white"/>
<path fill-rule="evenodd" clip-rule="evenodd" d="M126.826 91.2119C120.497 94.7317 112.759 98.9348 106.018 101.014C99.1887 103.12 92.8274 102.666 88.0719 102.12C87.4334 102.047 86.8312 101.973 86.2643 101.903C84.6807 101.709 83.3724 101.549 82.3176 101.528C81.6077 101.515 81.1162 101.569 80.7919 101.675C80.4976 101.77 80.4187 101.879 80.3796 101.963C80.3479 102.032 80.3366 102.067 80.4083 102.186C80.5153 102.363 80.77 102.619 81.2604 102.933C82.2314 103.554 83.7477 104.168 85.5308 104.796C86.3934 105.1 87.2961 105.399 88.204 105.701L88.2587 105.719C89.1815 106.025 90.1091 106.334 90.9851 106.644C92.7039 107.254 94.3446 107.912 95.3997 108.65C97.0745 109.823 97.8294 111.155 97.9816 112.474C98.1282 113.745 97.6935 114.831 97.3451 115.505C97.0913 115.995 96.4879 116.187 95.9974 115.933C95.5069 115.68 95.3149 115.076 95.5687 114.586C95.8394 114.062 96.0752 113.401 95.9948 112.703C95.9198 112.054 95.5498 111.197 94.2527 110.289C93.4504 109.727 92.0573 109.147 90.3167 108.529C89.4629 108.227 88.5545 107.924 87.6285 107.617L87.5661 107.596C86.6638 107.297 85.7463 106.992 84.8664 106.682C83.0895 106.056 81.3708 105.378 80.1826 104.618C79.5934 104.241 79.0373 103.784 78.6964 103.22C78.3202 102.597 78.2238 101.862 78.5636 101.125C78.896 100.405 79.502 99.991 80.1737 99.7727C80.8153 99.5642 81.5708 99.5136 82.3564 99.5288C83.5226 99.5514 84.9837 99.7307 86.6083 99.93C87.1553 99.9971 87.7208 100.067 88.2999 100.133C92.9863 100.671 99.0077 101.083 105.428 99.1029C111.936 97.0958 119.491 93.0024 125.854 89.464C126.32 89.205 126.779 88.9489 127.232 88.6968C129.847 87.239 132.222 85.9156 134.147 84.9544C135.276 84.3911 136.284 83.9348 137.119 83.6464C137.536 83.5022 137.936 83.3907 138.302 83.3332C138.653 83.2781 139.061 83.2579 139.447 83.3756C139.807 83.485 140.319 83.776 140.436 84.4175C140.529 84.9282 140.297 85.3611 140.151 85.5914C139.828 86.1006 139.225 86.6752 138.546 87.2579C137.575 88.0917 136.222 89.1279 134.707 90.288C134.046 90.7941 133.354 91.3239 132.649 91.8707C130.303 93.692 127.769 95.739 125.573 97.8666C123.365 100.006 121.566 102.164 120.622 104.195C117.414 111.097 116.291 118.177 116.132 120.798C116.099 121.349 115.625 121.769 115.073 121.736C114.522 121.702 114.102 121.228 114.136 120.677C114.307 117.849 115.479 110.516 118.809 103.352C119.908 100.986 121.917 98.6243 124.182 96.4302C126.459 94.2238 129.064 92.1226 131.423 90.2909C132.165 89.7145 132.879 89.1682 133.55 88.6542C135.037 87.516 136.317 86.5363 137.243 85.7406C137.248 85.7367 137.252 85.7329 137.257 85.7291C136.636 85.9758 135.894 86.3178 135.041 86.7439C133.16 87.6828 130.833 88.9794 128.213 90.4396C127.759 90.6924 127.297 90.9502 126.826 91.2119ZM138.493 84.4641C138.493 84.4639 138.491 84.4698 138.484 84.4823C138.489 84.4705 138.492 84.4642 138.493 84.4641Z" fill="#000C48"/>
<path fill-rule="evenodd" clip-rule="evenodd" d="M115.608 112.329C115.619 111.776 116.075 111.337 116.628 111.348C119.814 111.41 127.552 113.009 133.752 118.891C134.222 119.337 134.789 120.114 135.421 121.097C136.07 122.104 136.836 123.404 137.705 124.96C139.443 128.071 141.613 132.244 144.103 137.216C149.085 147.163 155.367 160.348 162.074 174.734C175.488 203.507 190.612 237.11 200.444 259.275C200.581 259.584 200.553 259.942 200.368 260.225C200.184 260.509 199.869 260.68 199.53 260.68H160.392C159.84 260.68 159.392 260.232 159.392 259.68C159.392 259.128 159.84 258.68 160.392 258.68H197.992C188.155 236.524 173.388 203.736 160.261 175.579C153.557 161.199 147.284 148.033 142.315 138.112C139.829 133.15 137.675 129.008 135.959 125.935C135.1 124.397 134.356 123.137 133.74 122.18C133.108 121.198 132.654 120.606 132.376 120.342C126.61 114.872 119.387 113.402 116.589 113.348C116.037 113.337 115.598 112.881 115.608 112.329Z" fill="#000C48"/>
<path fill-rule="evenodd" clip-rule="evenodd" d="M57.0338 113.583C57.0971 114.132 56.7036 114.628 56.155 114.692C49.5922 115.449 39.5025 116.895 30.1895 118.991C25.532 120.039 21.0903 121.244 17.3897 122.599C13.6576 123.965 10.7989 125.442 9.20118 126.978C7.17912 128.923 5.70684 131.768 4.69793 135.287C3.69077 138.801 3.16457 142.92 2.98711 147.335C2.63215 156.168 3.6766 166.055 4.93901 174.386C5.16284 175.864 5.39128 177.466 5.63366 179.165C6.77048 187.137 8.21382 197.257 10.9256 206.757C14.2296 218.332 19.3275 228.638 27.7131 233.072C28.0407 233.245 28.2456 233.586 28.2456 233.956V259.965H136.09L130.805 204.937C130.753 204.387 131.156 203.899 131.705 203.846C132.255 203.793 132.744 204.196 132.796 204.746L138.187 260.87C138.213 261.15 138.121 261.429 137.931 261.638C137.742 261.846 137.473 261.965 137.191 261.965H27.2456C26.6933 261.965 26.2456 261.518 26.2456 260.965V234.549C17.4023 229.559 12.2592 218.715 9.00243 207.306C6.24896 197.66 4.78258 187.371 3.64677 179.402C3.40661 177.717 3.18122 176.136 2.96158 174.686C1.69189 166.306 0.626255 156.274 0.988722 147.255C1.16998 142.745 1.70936 138.455 2.77536 134.736C3.8396 131.023 5.44804 127.813 7.81495 125.537C9.72838 123.697 12.921 122.105 16.7022 120.721C20.515 119.325 25.0486 118.098 29.7505 117.04C39.1564 114.923 49.3216 113.467 55.9258 112.705C56.4744 112.641 56.9705 113.035 57.0338 113.583Z" fill="#000C48"/>
<path fill-rule="evenodd" clip-rule="evenodd" d="M87.1313 126.711C87.6081 126.99 87.7685 127.602 87.4897 128.079L46.0168 198.993C45.7994 199.365 45.3682 199.555 44.9467 199.466C44.5253 199.377 44.2083 199.028 44.1599 198.6L38.384 147.442C38.322 146.893 38.7167 146.398 39.2655 146.336C39.8143 146.274 40.3094 146.669 40.3713 147.217L45.8097 195.385L85.7633 127.07C86.0421 126.593 86.6546 126.432 87.1313 126.711Z" fill="white"/>
<path fill-rule="evenodd" clip-rule="evenodd" d="M109.953 138.563C110.475 138.746 110.749 139.317 110.566 139.838C105.54 154.157 97.2812 175.927 88.4761 195.015C84.0746 204.557 79.5258 213.453 75.1661 220.419C72.9865 223.902 70.8424 226.922 68.7755 229.305C66.7196 231.676 64.6874 233.479 62.7183 234.452C47.9841 241.734 32.3587 237.491 26.3429 234.448C25.8501 234.198 25.6527 233.597 25.902 233.104C26.1513 232.611 26.7529 232.414 27.2457 232.663C32.9193 235.533 47.8515 239.569 61.8321 232.659C63.4524 231.858 65.278 230.285 67.2646 227.995C69.2401 225.717 71.323 222.791 73.4708 219.359C77.7661 212.495 82.2743 203.685 86.66 194.178C95.4294 175.167 103.665 153.461 108.679 139.175C108.862 138.654 109.432 138.38 109.953 138.563Z" fill="white"/>
<path d="M118.108 124.036C117.817 119.756 96.9148 115.299 96.9148 115.299C96.9148 115.299 94.2275 114.574 89.8502 117.687C84.3787 121.578 84.4608 124.815 86.8653 127.239C89.0063 129.397 103.396 139.478 110.57 139.113C117.744 138.748 118.473 129.386 118.108 124.036Z" fill="#5397F5"/>
<path fill-rule="evenodd" clip-rule="evenodd" d="M95.1922 116.311C94.1339 116.492 92.5066 117.025 90.4298 118.502C87.7691 120.394 86.6615 121.992 86.3795 123.235C86.1158 124.397 86.5288 125.48 87.5753 126.535C88.0427 127.006 89.2788 127.997 91.04 129.239C92.7799 130.466 94.9779 131.9 97.3297 133.256C99.6843 134.613 102.175 135.88 104.502 136.783C106.854 137.695 108.939 138.195 110.519 138.114C112.076 138.035 113.241 137.478 114.139 136.629C115.055 135.763 115.735 134.553 116.219 133.123C117.191 130.25 117.29 126.724 117.111 124.104C117.101 123.964 116.983 123.652 116.451 123.18C115.942 122.729 115.186 122.248 114.22 121.756C112.294 120.774 109.717 119.836 107.103 119.017C104.499 118.2 101.898 117.515 99.9458 117.033C98.9705 116.792 98.1588 116.603 97.5917 116.474C97.3082 116.409 97.0859 116.36 96.9349 116.327C96.8594 116.31 96.8018 116.298 96.7633 116.289L96.72 116.28L96.707 116.277M96.6695 116.268C96.6646 116.267 96.6499 116.264 96.6257 116.26C96.5772 116.252 96.4902 116.24 96.3665 116.233C96.1195 116.218 95.7235 116.221 95.1922 116.311M97.1405 114.325C97.1284 114.322 97.1142 114.318 97.0978 114.315C97.0611 114.307 97.0138 114.297 96.9561 114.288C96.8405 114.268 96.6834 114.248 96.4868 114.236C96.093 114.212 95.5437 114.223 94.856 114.34C93.4763 114.575 91.5713 115.236 89.2708 116.872C86.46 118.871 84.8728 120.837 84.4291 122.792C83.9672 124.827 84.7975 126.575 86.1555 127.943C86.7586 128.551 88.1241 129.63 89.8873 130.873C91.6718 132.132 93.9211 133.6 96.331 134.988C98.7381 136.376 101.324 137.695 103.779 138.647C106.21 139.59 108.614 140.214 110.621 140.112C112.651 140.008 114.268 139.259 115.512 138.082C116.74 136.923 117.564 135.39 118.113 133.764C119.208 130.528 119.292 126.698 119.106 123.968C119.043 123.038 118.444 122.274 117.777 121.683C117.087 121.071 116.163 120.501 115.128 119.974C113.052 118.916 110.349 117.938 107.701 117.108C105.044 116.275 102.401 115.579 100.425 115.091C99.4362 114.847 98.6126 114.655 98.0356 114.524C97.747 114.458 97.5199 114.408 97.3645 114.373C97.2868 114.356 97.2271 114.343 97.1865 114.335L97.1405 114.325Z" fill="white"/>
<path fill-rule="evenodd" clip-rule="evenodd" d="M122.755 153.662C123.299 153.566 123.817 153.929 123.913 154.473L132.802 204.842L161.069 259.339C161.323 259.83 161.132 260.433 160.642 260.687C160.152 260.942 159.548 260.75 159.294 260.26L130.956 205.626C130.909 205.536 130.877 205.44 130.859 205.34L121.944 154.821C121.848 154.277 122.211 153.758 122.755 153.662Z" fill="white"/>
<path fill-rule="evenodd" clip-rule="evenodd" d="M56.1032 112.462C56.6174 112.26 57.1976 112.513 57.3992 113.028C59.0338 117.198 65.2712 126.589 81.893 132.664C82.4117 132.854 82.6785 133.428 82.489 133.947C82.2994 134.465 81.7252 134.732 81.2065 134.543C64.0938 128.288 57.3987 118.507 55.5371 113.758C55.3356 113.243 55.589 112.663 56.1032 112.462Z" fill="#000C48"/>
</svg>
