<svg width="260" height="282" viewBox="0 0 260 282" fill="none" xmlns="http://www.w3.org/2000/svg">
<path d="M256.769 145.601C256.769 195.306 216.475 235.601 166.769 235.601C117.064 235.601 76.7692 195.306 76.7692 145.601C76.7692 95.895 117.064 55.6006 166.769 55.6006C216.475 55.6006 256.769 95.895 256.769 145.601Z" fill="white"/>
<path d="M104.4 245.991C104.481 233.516 107.989 226.484 109.732 224.527L122.949 225.199V245.176L104.4 245.991Z" fill="white"/>
<path d="M107.821 260.349C104.886 260.233 103.682 252.292 104.442 246.206H108.98C109.817 250.968 110.756 260.465 107.821 260.349Z" fill="#000C48"/>
<path d="M34.2293 219.63C41.8595 213.315 65.0352 203.624 75.6692 199.568L102.38 190.394L126.117 184.224C126.117 184.224 124.715 195.814 124.122 203.268C123.45 211.733 123.017 224.984 123.017 224.984L109.593 224.51C105.802 228.695 104.855 235.644 104.144 248.2C103.592 257.958 106.026 260.407 107.42 260.442C107.46 260.441 107.5 260.44 107.539 260.439C107.501 260.442 107.461 260.443 107.42 260.442C90.7333 260.863 55.146 261.336 45.3147 259.886C32.9961 258.07 28.1792 253.885 24.9416 247.805C22.3515 242.941 22.8095 235.091 23.3623 231.775C23.8054 230.358 26.5992 225.945 34.2293 219.63Z" fill="#5397F5"/>
<path d="M107.952 226.84C99.0362 222.382 59.2299 224.983 40.4413 226.84C76.4469 218.353 101.879 221.589 110.095 224.268L107.952 226.84Z" fill="white"/>
<path d="M152.354 119.15C161.751 116.951 177.262 129.912 183.948 137.059L201.847 221.455C200.746 226.726 194.317 232.808 184.006 236.805C175.758 240.003 165.2 238.833 160.952 237.848L160.234 252.544C158.854 253.806 153.433 256.42 142.792 256.772C132.15 257.125 125.262 252.984 123.147 250.87C122.761 251.175 121.722 241.524 124.261 200.67C127.378 150.526 138.345 122.428 152.354 119.15Z" fill="#5397F5"/>
<path fill-rule="evenodd" clip-rule="evenodd" d="M153.563 118.952C150.098 120.739 142.192 127.323 137.698 139.74C132.042 155.369 129.207 174.603 126.53 204.937C124.42 228.855 124.955 246.529 125.506 252.668C124.45 252.012 123.659 251.382 123.147 250.87C122.761 251.175 121.722 241.524 124.261 200.67C127.378 150.526 138.345 122.428 152.354 119.15C152.747 119.058 153.15 118.993 153.563 118.952Z" fill="white"/>
<path d="M194.025 185.504C194.04 185.57 194.055 185.635 194.07 185.701L202.323 221.465C197.621 231.008 192.088 234.19 186.003 235.849C176.226 238.516 165.717 239.491 160.692 237.924L161.798 226.859C195.279 227.41 197.28 199.779 194.07 185.701L194.025 185.504Z" fill="#000C48"/>
<path d="M114.411 82.2813C119.17 80.1058 127.883 79.6911 131.645 79.7557H167.675C196.126 85.9377 198.692 92.1502 204.431 104.524C210.169 116.898 222.723 190.618 223.261 195.805C223.691 199.954 227.744 223.118 229.717 234.182L206.045 237.948L184.078 137.773C179.315 132.821 168.089 122.293 161.297 119.803C152.807 116.69 147.572 119.095 139.223 130.557C132.545 139.726 127.634 169.97 126.014 183.946L101.66 190.618C100.392 181.544 103.31 153.494 104.927 140.604C98.3654 148.786 84.594 165.592 82.0003 167.352C78.7582 169.552 69.9581 173.72 56.5263 164.225C45.7809 156.629 20.2451 112.351 8.82043 91.1612L33.7988 74.7102L69.9581 135.857C76.9827 126.13 92.4215 104.709 97.9795 96.8349C104.927 86.9927 108.463 85.0008 114.411 82.2813Z" fill="white"/>
<path d="M178.97 132.415C176.339 127.366 179.326 112.647 179.895 111.083L184.019 137.179L178.97 132.415Z" fill="#BFCDE0"/>
<path d="M116.068 177.56C107.576 179.329 104.863 156.282 104.569 144.537C102.564 151.142 101.866 178.149 101.768 190.828L126.092 184.046L130.073 156.921C128.942 163.063 124.559 175.791 116.068 177.56Z" fill="#BFCDE0"/>
<path d="M24.1275 56.9749C25.3771 63.4631 30.3353 71.7333 32.6582 75.0574L19.5017 83.5881L16.9786 75.0574C16.6902 76.3069 14.8158 77.3803 13.9147 77.7608C13.314 79.9836 9.70944 80.4642 7.84711 80.0437C6.35724 79.7072 6.14497 77.901 6.22507 77.0399C4.39878 76.0306 4.38276 74.2564 4.60304 73.4954C2.96899 71.9095 3.36148 70.1913 3.76198 69.5305C2.24008 69.5705 -0.287094 68.353 1.7795 63.1625C3.84609 57.972 12.0524 57.155 15.8972 57.3953C14.155 51.0874 18.12 39.613 19.9222 39.4928C21.7245 39.3727 22.5655 48.8646 24.1275 56.9749Z" fill="white"/>
<path d="M139.697 80.8683L140.483 67.547C136.334 68.7862 127.299 70.5211 124.358 67.547C120.682 63.8293 119.374 56.9134 119.997 44.6391C120.495 34.8197 122.505 26.0074 123.448 22.8286C131.802 24.8488 155.096 24.262 165.419 23.8231L164.479 33.5183C168.3 31.7885 172.766 33.0354 171.881 37.9032C171.173 41.7974 167.278 43.3082 165.419 43.5769L162.145 79.2993C161.797 81.9812 159.096 87.321 151.082 87.2244C143.068 87.1279 140.153 82.9468 139.697 80.8683Z" fill="white"/>
<path d="M140.682 69.9976C146.464 69.6985 150.028 64.473 151.087 61.8977C146.302 65.5861 142.157 67.256 140.682 67.6299V69.9976Z" fill="#BFCDE0"/>
<path d="M118.633 11.8869C117.364 14.3234 120.877 20.1097 123.246 22.7536C126.438 23.3623 134.744 24.5206 142.437 24.2847C150.129 24.0487 161.019 23.7931 165.502 23.6948L164.499 33.4871C165.718 32.9322 168.51 32.0845 169.926 33.1332C171.696 34.4441 174.881 39.7401 165.502 43.6925L164.011 58.1554C166.503 58.6919 172.308 57.9165 175.59 50.5225C178.872 43.1286 176.035 36.7228 174.206 34.4441C175.39 11.5546 167.491 4.46321 154.738 1.67132C144.535 -0.562181 131.239 6.3667 125.867 10.1103C123.985 9.68731 119.903 9.45041 118.633 11.8869Z" fill="#000C48"/>
<path d="M118.633 11.8869C117.364 14.3234 120.877 20.1097 123.246 22.7536C126.438 23.3623 134.744 24.5206 142.437 24.2847C150.129 24.0487 161.019 23.7931 165.502 23.6948L164.499 33.4871C165.718 32.9322 168.51 32.0845 169.926 33.1332C171.696 34.4441 174.881 39.7401 165.502 43.6925L164.011 58.1554C166.503 58.6919 172.308 57.9165 175.59 50.5225C178.872 43.1286 176.035 36.7228 174.206 34.4441C175.39 11.5546 167.491 4.46321 154.738 1.67132C144.535 -0.562181 131.239 6.3667 125.867 10.1103C123.985 9.68731 119.903 9.45041 118.633 11.8869Z" fill="#000C48"/>
<path fill-rule="evenodd" clip-rule="evenodd" d="M177.092 43.2065C176.524 48.5214 173.471 55.9723 164.177 56.5466L164.084 57.4425L166.262 58.2454C169.112 57.9534 173.086 56.1653 175.59 50.5226C176.747 47.9152 177.144 45.4306 177.092 43.2065Z" fill="white"/>
<path fill-rule="evenodd" clip-rule="evenodd" d="M123.108 22.5938C122.168 21.0759 118.246 14.7436 119.515 12.58C120.633 10.6755 124.7 11.1728 126.594 11.6595C143.86 1.30876 148.173 2.67816 152.119 1.30876C152.026 1.31473 148.718 1.30097 148.624 1.30793C146.423 1.90561 140.714 3.50782 134.641 5.2197C130.992 6.86467 127.876 8.70981 125.867 10.1096C123.985 9.68659 119.903 9.44969 118.633 11.8862C117.388 14.2776 120.749 19.8959 123.114 22.6028C123.112 22.5998 123.11 22.5968 123.108 22.5938Z" fill="white"/>
<path fill-rule="evenodd" clip-rule="evenodd" d="M123.479 22.3371C123.748 22.4013 123.913 22.6711 123.849 22.9397C122.253 29.6116 120.553 39.8232 120.313 48.8626C120.193 53.3848 120.44 57.5851 121.234 60.8933C122.034 64.2265 123.356 66.5191 125.274 67.4363C129.365 69.393 134.386 68.8937 139.074 67.4051C143.749 65.9205 147.997 63.4812 150.471 61.6927C150.695 61.5309 151.007 61.5812 151.169 61.8049C151.331 62.0287 151.281 62.3413 151.057 62.5031C148.513 64.3427 144.17 66.8361 139.377 68.3582C134.596 69.8763 129.274 70.4577 124.843 68.3385C122.499 67.2177 121.079 64.5325 120.261 61.1267C119.438 57.696 119.193 53.3963 119.313 48.8361C119.556 39.7106 121.269 29.4282 122.876 22.707C122.941 22.4385 123.21 22.2728 123.479 22.3371Z" fill="#000C48"/>
<path fill-rule="evenodd" clip-rule="evenodd" d="M122.962 22.711C123.027 22.4426 123.297 22.2776 123.565 22.3425C127.676 23.3366 135.529 23.6969 143.698 23.7479C151.845 23.7988 160.241 23.5427 165.397 23.3234C165.542 23.3173 165.682 23.3741 165.782 23.4791C165.881 23.5842 165.93 23.7272 165.916 23.8712L165.055 32.7504C166.838 32.1323 168.717 32.1007 170.159 32.7848C170.996 33.1821 171.682 33.8214 172.09 34.7133C172.496 35.6012 172.608 36.6999 172.373 37.9925C171.989 40.1012 170.741 41.557 169.366 42.5103C168.169 43.341 166.858 43.8044 165.882 44.0031L162.643 79.3448C162.643 79.3482 162.643 79.3516 162.642 79.3551C162.642 79.3579 162.641 79.3608 162.641 79.3636C162.453 80.8081 161.644 82.9207 159.835 84.6637C158.013 86.4193 155.205 87.774 151.076 87.7243C142.872 87.6254 139.723 83.32 139.209 80.9753C139.199 80.9301 139.195 80.8837 139.198 80.8376L140.011 67.5692C140.028 67.2936 140.265 67.0838 140.54 67.1007C140.816 67.1176 141.026 67.3547 141.009 67.6303L140.201 80.8264C140.648 82.6689 143.357 86.6312 151.088 86.7243C154.973 86.7711 157.522 85.5042 159.141 83.9436C160.77 82.3743 161.485 80.4815 161.648 79.2439L164.921 43.5311C164.942 43.3008 165.118 43.115 165.347 43.0819C166.21 42.9572 167.573 42.537 168.796 41.6887C170.011 40.8458 171.064 39.5992 171.389 37.8136C171.596 36.6724 171.482 35.7897 171.18 35.1289C170.88 34.472 170.377 33.9949 169.73 33.6882C168.418 33.0656 166.506 33.1492 164.685 33.9737C164.522 34.0473 164.333 34.0286 164.188 33.9248C164.042 33.8209 163.964 33.6476 163.981 33.4699L164.866 24.3466C159.664 24.5604 151.565 24.7971 143.692 24.7479C135.544 24.697 127.573 24.3406 123.33 23.3145C123.062 23.2496 122.897 22.9794 122.962 22.711Z" fill="#000C48"/>
<path fill-rule="evenodd" clip-rule="evenodd" d="M138.662 4.11916C133.436 6.02383 128.807 8.67079 126.153 10.5205C126.038 10.6007 125.894 10.6289 125.757 10.5981C124.859 10.3962 123.429 10.2392 122.088 10.4217C120.731 10.6064 119.599 11.1163 119.077 12.1179C118.838 12.5773 118.797 13.2591 118.976 14.1415C119.152 15.0114 119.527 16.0036 120.025 17.0232C121.02 19.0625 122.464 21.1317 123.619 22.4199C123.803 22.6256 123.786 22.9417 123.58 23.1259C123.374 23.3102 123.058 23.2929 122.874 23.0872C121.659 21.7315 120.163 19.5856 119.126 17.4617C118.608 16.3997 118.195 15.3233 117.996 14.3403C117.799 13.3699 117.795 12.4147 118.19 11.6559C118.937 10.221 120.481 9.63112 121.953 9.43085C123.335 9.24275 124.774 9.37887 125.76 9.57645C128.502 7.69054 133.119 5.07513 138.32 3.17961C143.625 1.24614 149.606 0.0362163 154.844 1.18287C161.284 2.59252 166.589 5.10785 170.111 10.2381C173.603 15.3251 175.282 22.896 174.715 34.283C176.629 36.7904 179.352 43.2778 176.047 50.7254C174.364 54.5185 172.09 56.6056 169.875 57.6633C167.67 58.7159 165.559 58.7319 164.215 58.4426C163.945 58.3844 163.774 58.1185 163.832 57.8485C163.89 57.5786 164.156 57.4068 164.426 57.465C165.574 57.7122 167.457 57.7095 169.444 56.7609C171.42 55.8173 173.535 53.9206 175.133 50.3197C178.322 43.1349 175.556 36.9257 173.816 34.757C173.739 34.6613 173.7 34.5408 173.707 34.4183C174.296 23.0199 172.617 15.6554 169.286 10.8041C165.966 5.96828 160.945 3.54198 154.631 2.15974C149.666 1.0729 143.898 2.21066 138.662 4.11916Z" fill="#000C48"/>
<path fill-rule="evenodd" clip-rule="evenodd" d="M137.792 34.3847C138.065 34.4256 138.253 34.6802 138.213 34.9533C137.863 37.2894 137.259 40.9207 136.586 44.2255C136.249 45.8773 135.893 47.4539 135.541 48.7488C135.196 50.0218 134.838 51.0858 134.48 51.6647C134.21 52.102 134.233 52.332 134.276 52.4417C134.327 52.5698 134.476 52.7232 134.811 52.8608C135.482 53.1362 136.526 53.1943 137.314 53.1458C137.589 53.1288 137.826 53.3385 137.843 53.6142C137.86 53.8898 137.651 54.127 137.375 54.1439C136.543 54.1951 135.314 54.1485 134.431 53.7859C133.989 53.6045 133.541 53.3056 133.346 52.807C133.143 52.2898 133.271 51.7187 133.629 51.1392C133.9 50.7012 134.227 49.7741 134.576 48.4866C134.92 47.221 135.271 45.6677 135.606 44.0257C136.275 40.7426 136.876 37.1293 137.224 34.8052C137.264 34.5321 137.519 34.3438 137.792 34.3847Z" fill="#000C48"/>
<path fill-rule="evenodd" clip-rule="evenodd" d="M168.658 36.0525C168.734 36.318 168.58 36.5947 168.314 36.6706C168.181 36.7086 167.362 37.2111 167.269 39.2123C167.256 39.4882 167.022 39.7014 166.746 39.6886C166.47 39.6757 166.257 39.4417 166.27 39.1659C166.372 36.9558 167.316 35.9159 168.04 35.7091C168.305 35.6332 168.582 35.787 168.658 36.0525Z" fill="#000C48"/>
<path fill-rule="evenodd" clip-rule="evenodd" d="M152.5 49.8339C152.759 49.9294 152.892 50.2168 152.796 50.476C152.358 51.6662 150.399 54.8759 145.632 56.0389C145.363 56.1043 145.093 55.9399 145.027 55.6716C144.962 55.4033 145.126 55.1328 145.395 55.0674C149.786 53.9961 151.514 51.0626 151.858 50.1303C151.953 49.8712 152.241 49.7385 152.5 49.8339Z" fill="#000C48"/>
<path d="M167.267 80.1908C167.003 78.5675 164.034 78.8201 162.441 79.1486C160.841 83.5344 158.986 87.0459 150.211 87.2104C143.191 87.3421 140.156 82.5855 139.517 80.1908C137.359 79.0391 132.771 77.3389 131.674 79.752C130.303 82.7683 137.323 95.053 150.211 94.6691C163.099 94.2852 167.596 82.2199 167.267 80.1908Z" fill="#000C48"/>
<path fill-rule="evenodd" clip-rule="evenodd" d="M133.186 79.1242C132.683 79.2558 132.329 79.5183 132.129 79.9589C132.013 80.214 131.964 80.6276 132.044 81.2065C132.122 81.7756 132.319 82.458 132.64 83.2138C133.281 84.7246 134.399 86.482 135.96 88.1432C139.079 91.4636 143.926 94.3561 150.196 94.1693C156.466 93.9825 160.685 90.9608 163.307 87.7317C164.62 86.1141 165.53 84.4473 166.09 83.0672C166.369 82.377 166.559 81.7645 166.669 81.2712C166.782 80.7616 166.799 80.4275 166.773 80.2708C166.735 80.0379 166.609 79.8666 166.373 79.7283C166.12 79.5801 165.755 79.4811 165.302 79.4352C164.501 79.3541 163.556 79.4514 162.813 79.5859C162.034 81.6865 161.132 83.6713 159.334 85.1488C157.453 86.6943 154.668 87.6269 150.22 87.7103C143.118 87.8435 139.896 83.1493 139.095 80.5344C138.043 79.9931 136.511 79.3678 135.113 79.1273C134.37 78.9995 133.706 78.9878 133.186 79.1242ZM135.282 78.1418C136.908 78.4214 138.646 79.1594 139.752 79.7497C139.874 79.8149 139.964 79.9279 140 80.0617C140.594 82.2883 143.463 86.8369 150.201 86.7105C154.529 86.6294 157.058 85.7241 158.699 84.3762C160.346 83.0226 161.173 81.1647 161.971 78.9773C162.03 78.8144 162.17 78.6939 162.34 78.6589C163.159 78.49 164.356 78.3343 165.403 78.4403C165.925 78.4932 166.451 78.6148 166.879 78.8655C167.323 79.1261 167.666 79.532 167.76 80.1107C167.817 80.4613 167.765 80.9481 167.645 81.4882C167.521 82.0446 167.313 82.7106 167.016 83.4429C166.422 84.9077 165.464 86.6617 164.083 88.362C161.317 91.7688 156.843 94.9717 150.226 95.1688C143.608 95.366 138.5 92.308 135.231 88.828C133.597 87.0889 132.411 85.2336 131.719 83.6047C131.374 82.7906 131.146 82.0214 131.053 81.3429C130.961 80.6741 130.992 80.044 131.219 79.5451C131.567 78.7791 132.198 78.3492 132.932 78.1569C133.648 77.9694 134.471 78.0023 135.282 78.1418Z" fill="#000C48"/>
<path d="M149.991 34.8793C149.991 36.479 149.336 37.7759 148.528 37.7759C147.72 37.7759 147.065 36.479 147.065 34.8793C147.065 33.2795 147.72 31.9827 148.528 31.9827C149.336 31.9827 149.991 33.2795 149.991 34.8793Z" fill="#000C48"/>
<path d="M131.527 33.8475C131.527 35.4473 130.872 36.7441 130.064 36.7441C129.256 36.7441 128.601 35.4473 128.601 33.8475C128.601 32.2478 129.256 30.9509 130.064 30.9509C130.872 30.9509 131.527 32.2478 131.527 33.8475Z" fill="#000C48"/>
<path d="M145.256 29.6138C144.859 28.6881 146.261 27.7094 148.298 27.2332C150.335 26.757 152.901 26.836 153.06 28.1325C153.218 29.429 150.547 29.8255 149.303 30.09C148.06 30.3546 145.653 30.5395 145.256 29.6138Z" fill="#000C48"/>
<path fill-rule="evenodd" clip-rule="evenodd" d="M152.798 26.9529C153.189 27.1945 153.494 27.5623 153.556 28.0718C153.621 28.6007 153.382 29.0193 153.05 29.3192C152.732 29.6063 152.304 29.8124 151.879 29.9678C151.189 30.2207 150.373 30.3842 149.776 30.5039C149.641 30.531 149.516 30.5559 149.407 30.5791C148.755 30.7178 147.799 30.8365 146.94 30.7977C146.512 30.7784 146.079 30.719 145.711 30.5862C145.35 30.4558 144.974 30.2248 144.797 29.8108C144.455 29.014 144.958 28.3134 145.563 27.8561C146.194 27.3791 147.127 26.9935 148.184 26.7463C149.244 26.4986 150.457 26.39 151.449 26.5225C151.943 26.5884 152.42 26.719 152.798 26.9529ZM151.317 27.5137C150.477 27.4015 149.39 27.4915 148.412 27.72C147.432 27.9491 146.646 28.291 146.166 28.6538C145.66 29.0363 145.66 29.2879 145.716 29.4168C145.737 29.4656 145.81 29.5587 146.051 29.6457C146.285 29.7303 146.606 29.7816 146.985 29.7987C147.739 29.8328 148.608 29.7268 149.199 29.601C149.328 29.5736 149.468 29.5455 149.614 29.5161C150.211 29.396 150.925 29.2522 151.535 29.0288C151.915 28.8899 152.202 28.7372 152.379 28.5771C152.543 28.4297 152.578 28.3126 152.563 28.1933C152.546 28.0545 152.471 27.9262 152.272 27.8033C152.061 27.6726 151.739 27.57 151.317 27.5137Z" fill="#000C48"/>
<path d="M133.935 28.7364C134.332 27.8107 132.93 26.832 130.893 26.3557C128.856 25.8795 126.29 25.9586 126.132 27.2551C125.973 28.5516 128.645 28.9481 129.888 29.2126C131.131 29.4771 133.539 29.662 133.935 28.7364Z" fill="#000C48"/>
<path fill-rule="evenodd" clip-rule="evenodd" d="M126.393 26.0754C126.003 26.3171 125.698 26.6849 125.635 27.1943C125.571 27.7233 125.81 28.1419 126.142 28.4418C126.46 28.7289 126.888 28.9349 127.312 29.0903C128.003 29.3432 128.819 29.5068 129.415 29.6264C129.551 29.6536 129.675 29.6785 129.784 29.7017C130.436 29.8404 131.392 29.9591 132.252 29.9203C132.68 29.901 133.113 29.8415 133.48 29.7087C133.841 29.5783 134.217 29.3474 134.395 28.9333C134.736 28.1366 134.233 27.436 133.628 26.9786C132.997 26.5016 132.064 26.116 131.007 25.8689C129.948 25.6212 128.734 25.5126 127.742 25.645C127.248 25.711 126.771 25.8415 126.393 26.0754ZM127.874 26.6362C128.714 26.5241 129.802 26.6141 130.779 26.8426C131.759 27.0716 132.545 27.4135 133.025 27.7764C133.531 28.1589 133.531 28.4104 133.476 28.5394C133.455 28.5882 133.381 28.6812 133.14 28.7682C132.906 28.8529 132.585 28.9042 132.207 28.9213C131.452 28.9554 130.583 28.8493 129.992 28.7235C129.863 28.6961 129.724 28.6681 129.577 28.6386C128.981 28.5185 128.266 28.3747 127.656 28.1513C127.277 28.0125 126.989 27.8598 126.812 27.6997C126.649 27.5523 126.613 27.4352 126.628 27.3158C126.645 27.1771 126.721 27.0488 126.919 26.9259C127.131 26.7952 127.452 26.6926 127.874 26.6362Z" fill="#000C48"/>
<path fill-rule="evenodd" clip-rule="evenodd" d="M166.782 79.5657C166.8 79.2901 167.038 79.0813 167.313 79.0992C171.055 79.3427 177.635 80.8829 184.025 83.5112C190.399 86.133 196.705 89.8862 199.778 94.6246C205.084 102.806 208.678 114.939 212.937 136.351C215.706 150.276 218.763 168.165 222.751 191.496C224.898 204.063 227.316 218.208 230.104 234.164C230.151 234.436 229.969 234.695 229.697 234.743L205.818 238.935C205.556 238.981 205.304 238.814 205.245 238.555C200.958 220.022 194.528 191.414 189.17 165.819C186.491 153.022 184.079 140.975 182.336 131.317C180.598 121.679 179.516 114.368 179.516 111.078C179.516 110.802 179.739 110.578 180.016 110.578C180.292 110.578 180.516 110.802 180.516 111.078C180.516 114.26 181.577 121.473 183.32 131.139C185.06 140.784 187.47 152.821 190.149 165.614C195.461 190.988 201.827 219.329 206.112 237.868L229.033 233.844C226.278 218.074 223.887 204.083 221.761 191.644C217.776 168.325 214.723 150.458 211.956 136.546C207.695 115.121 204.128 103.169 198.939 95.1687C196.04 90.699 189.98 87.042 183.645 84.436C177.325 81.8367 170.853 80.3317 167.249 80.0971C166.973 80.0792 166.764 79.8413 166.782 79.5657Z" fill="#000C48"/>
<path fill-rule="evenodd" clip-rule="evenodd" d="M33.9314 74.0242C34.0654 74.0553 34.1806 74.1402 34.25 74.2589L70.0191 135.464C78.0328 123.533 95.1028 98.6673 102.697 89.5969C106.645 84.8815 112.27 82.2013 117.657 80.7578C123.045 79.3138 128.244 79.0938 131.403 79.3378C131.678 79.359 131.884 79.5995 131.863 79.8748C131.842 80.1501 131.601 80.3561 131.326 80.3348C128.272 80.0989 123.187 80.3111 117.916 81.7237C112.643 83.1367 107.232 85.7372 103.463 90.2388C95.7678 99.4308 78.2252 125.02 70.4051 136.683C70.3092 136.826 70.1465 136.91 69.9744 136.905C69.8023 136.899 69.645 136.806 69.5582 136.657L33.6536 75.2204L9.41704 91.2917C15.5918 103.164 25.5541 121.034 35.6443 136.575C40.7468 144.433 45.8753 151.685 50.558 157.262C52.8994 160.051 55.1226 162.412 57.1693 164.219C59.2225 166.032 61.0682 167.26 62.6536 167.818C70.9015 170.721 76.5789 169.519 80.4636 167.35C83.5918 165.604 85.5704 163.239 86.8543 161.704C87.1833 161.31 87.4667 160.972 87.7121 160.712C88.6042 159.767 91.5594 156.091 94.9352 151.849C96.1144 150.367 97.3423 148.819 98.5468 147.301C100.778 144.489 102.929 141.778 104.539 139.777C104.712 139.561 105.027 139.527 105.242 139.7C105.457 139.873 105.491 140.188 105.318 140.403C103.71 142.403 101.563 145.108 99.3337 147.918C98.1286 149.437 96.8994 150.986 95.7177 152.471C92.3618 156.689 89.369 160.414 88.4391 161.398C88.2318 161.618 87.9785 161.921 87.6753 162.285C86.4077 163.805 84.2664 166.372 80.9511 168.223C76.7977 170.542 70.8198 171.752 62.3216 168.761C60.5577 168.14 58.5979 166.815 56.5075 164.969C54.4106 163.118 52.1521 160.716 49.7921 157.905C45.0719 152.283 39.9182 144.993 34.8056 137.119C24.5792 121.369 14.4899 103.242 8.32234 91.3536C8.20469 91.1268 8.27693 90.8478 8.48985 90.7066L33.542 74.0945C33.6566 74.0185 33.7975 73.9931 33.9314 74.0242Z" fill="#000C48"/>
<path fill-rule="evenodd" clip-rule="evenodd" d="M108.283 118.599C108.555 118.647 108.736 118.907 108.687 119.179C106.135 133.474 101.287 168.461 102.142 190.375C102.153 190.651 101.938 190.883 101.662 190.894C101.386 190.905 101.154 190.69 101.143 190.414C100.284 168.386 105.148 133.31 107.703 119.003C107.751 118.731 108.011 118.55 108.283 118.599Z" fill="#000C48"/>
<path fill-rule="evenodd" clip-rule="evenodd" d="M168.448 123.227C174.897 127.364 180.853 133.253 184.37 137.417C184.548 137.628 184.522 137.943 184.311 138.122C184.1 138.3 183.784 138.273 183.606 138.062C180.132 133.949 174.249 128.137 167.908 124.069C164.737 122.035 161.474 120.452 158.357 119.725C155.244 118.999 152.307 119.133 149.743 120.488C143.176 123.959 137.971 132.326 133.976 144.912C129.989 157.472 127.245 174.116 125.51 193.969C122.763 225.405 123.316 244.685 123.945 250.588C126.055 252.474 132.329 256.161 141.416 256.31C150.454 256.458 157.08 253.74 159.444 252.28L165.986 151.648C166.004 151.373 166.241 151.164 166.517 151.182C166.793 151.2 167.001 151.438 166.984 151.713L160.425 252.598C160.415 252.755 160.332 252.897 160.201 252.984C157.862 254.52 150.908 257.465 141.4 257.309C131.862 257.153 125.275 253.208 123.127 251.194C123.04 251.113 122.985 251.004 122.972 250.885C122.323 245.115 121.735 225.685 124.514 193.882C126.251 173.998 129.004 157.271 133.023 144.609C137.033 131.974 142.341 123.27 149.276 119.604C152.113 118.104 155.312 117.988 158.584 118.751C161.852 119.513 165.223 121.158 168.448 123.227Z" fill="#000C48"/>
<path fill-rule="evenodd" clip-rule="evenodd" d="M126.294 184.078C126.36 184.346 126.197 184.617 125.929 184.684C108.964 188.903 83.462 196.484 62.095 205.51C51.4089 210.023 41.7804 214.889 34.774 219.863C31.2708 222.35 28.4407 224.852 26.4623 227.337C24.4829 229.822 23.3803 232.259 23.2716 234.624C22.9865 240.823 24.0217 245.391 25.8499 248.789C27.6761 252.184 30.3139 254.45 33.302 256.014C36.2973 257.582 39.6428 258.444 42.871 259.021C44.4839 259.309 46.0608 259.525 47.547 259.724C47.671 259.74 47.7944 259.757 47.9172 259.773C49.2617 259.952 50.5311 260.121 51.6647 260.322C53.5801 260.66 57.0879 260.859 61.5458 260.954C65.9916 261.049 71.3482 261.04 76.9407 260.971C87.3981 260.84 98.6687 260.495 106.328 260.216C105.551 259.5 104.981 258.547 104.57 257.453C103.95 255.804 103.671 253.79 103.589 251.649C103.443 247.797 103.935 243.42 104.34 239.818C104.385 239.419 104.429 239.029 104.47 238.651C105.132 232.654 106.199 229.334 107.189 227.307C107.684 226.291 108.155 225.611 108.529 225.094C108.566 225.042 108.602 224.993 108.636 224.946C108.762 224.772 108.867 224.627 108.953 224.5C94.0481 221.479 74.5088 219.345 40.4853 227.27C40.2163 227.333 39.9475 227.165 39.8849 226.896C39.8223 226.627 39.9895 226.359 40.2584 226.296C74.9315 218.22 94.6885 220.537 109.805 223.653C109.945 223.682 110.066 223.77 110.137 223.893C110.209 224.017 110.224 224.166 110.179 224.301C110.039 224.72 109.756 225.109 109.458 225.516C109.419 225.57 109.379 225.625 109.339 225.679C108.983 226.173 108.548 226.802 108.087 227.746C107.164 229.637 106.118 232.835 105.464 238.76C105.422 239.14 105.379 239.529 105.334 239.927C104.928 243.54 104.445 247.84 104.589 251.611C104.668 253.703 104.94 255.597 105.506 257.101C106.07 258.601 106.907 259.669 108.095 260.202C108.307 260.297 108.425 260.526 108.381 260.754C108.336 260.982 108.141 261.149 107.909 261.158C100.273 261.446 88.1493 261.831 76.9532 261.971C71.3554 262.04 65.9862 262.049 61.5244 261.954C57.0747 261.859 53.493 261.66 51.4909 261.306C50.3791 261.11 49.1306 260.944 47.78 260.764C47.659 260.747 47.5372 260.731 47.4146 260.715C45.928 260.516 44.3318 260.298 42.6951 260.005C39.424 259.421 35.9641 258.537 32.8382 256.9C29.7052 255.26 26.9059 252.863 24.9693 249.263C23.0348 245.667 21.9815 240.909 22.2726 234.578C22.3943 231.93 23.6232 229.297 25.68 226.714C27.7378 224.13 30.6487 221.565 34.1951 219.047C41.2881 214.012 50.9933 209.113 61.7059 204.588C83.1364 195.536 108.692 187.941 125.688 183.713C125.956 183.646 126.227 183.81 126.294 184.078Z" fill="#000C48"/>
<path fill-rule="evenodd" clip-rule="evenodd" d="M109.095 224.425C109.111 224.15 109.347 223.939 109.623 223.954L122.832 224.702C123.107 224.718 123.318 224.954 123.303 225.23C123.287 225.505 123.051 225.716 122.775 225.701L109.566 224.953C109.291 224.937 109.08 224.701 109.095 224.425Z" fill="#000C48"/>
<path fill-rule="evenodd" clip-rule="evenodd" d="M123.303 245.297C123.319 245.573 123.108 245.809 122.833 245.825L104.32 246.908C104.045 246.924 103.808 246.714 103.792 246.438C103.776 246.163 103.986 245.926 104.262 245.91L122.774 244.827C123.05 244.811 123.286 245.021 123.303 245.297Z" fill="#000C48"/>
<path fill-rule="evenodd" clip-rule="evenodd" d="M109.069 246.13C109.345 246.113 109.583 246.321 109.601 246.597C109.715 248.35 109.829 249.86 109.927 251.172C109.981 251.889 110.031 252.546 110.074 253.153C110.194 254.86 110.261 256.166 110.213 257.188C110.164 258.211 109.998 259.003 109.612 259.652C109.221 260.308 108.64 260.758 107.884 261.165C107.641 261.296 107.338 261.205 107.207 260.962C107.076 260.719 107.167 260.415 107.41 260.284C108.086 259.92 108.492 259.578 108.752 259.14C109.017 258.696 109.168 258.093 109.214 257.14C109.259 256.186 109.197 254.935 109.076 253.224C109.034 252.626 108.985 251.972 108.931 251.257C108.832 249.941 108.717 248.419 108.603 246.662C108.585 246.386 108.794 246.148 109.069 246.13Z" fill="#000C48"/>
<path d="M127.272 261.138C129.546 258.674 128.314 254.505 128.22 254.031C141.334 258.428 152.445 256.306 156.362 254.695C156.046 261.391 155.073 275.313 153.708 277.436C152.003 280.089 89.6547 282.931 86.6225 279.899C83.5904 276.867 124.998 263.602 127.272 261.138Z" fill="white"/>
<path fill-rule="evenodd" clip-rule="evenodd" d="M127.889 253.656C128.023 253.538 128.209 253.501 128.379 253.557C141.376 257.915 152.364 255.798 156.171 254.232C156.329 254.167 156.51 254.187 156.65 254.286C156.789 254.384 156.869 254.547 156.861 254.718C156.703 258.072 156.38 263.235 155.926 267.829C155.699 270.126 155.438 272.287 155.147 274.012C155.002 274.874 154.848 275.634 154.685 276.252C154.525 276.854 154.345 277.37 154.129 277.706C153.999 277.909 153.781 278.042 153.596 278.133C153.393 278.233 153.14 278.326 152.851 278.413C152.272 278.587 151.491 278.756 150.546 278.92C148.654 279.249 146.052 279.567 142.981 279.864C136.837 280.457 128.779 280.967 120.683 281.299C112.588 281.631 104.446 281.785 98.1346 281.666C94.9803 281.607 92.2732 281.48 90.2542 281.27C89.2459 281.166 88.3965 281.039 87.7436 280.887C87.4173 280.811 87.1292 280.727 86.8899 280.63C86.6589 280.537 86.4337 280.418 86.269 280.253C86.1034 280.087 85.9907 279.877 85.968 279.631C85.9462 279.395 86.0126 279.174 86.1107 278.985C86.2995 278.622 86.6616 278.268 87.0986 277.929C87.9883 277.237 89.4055 276.442 91.1553 275.586C94.6672 273.867 99.6477 271.841 104.776 269.84C107.219 268.886 109.691 267.94 112.058 267.034C114.676 266.032 117.166 265.078 119.351 264.217C121.427 263.399 123.21 262.67 124.543 262.071C125.21 261.771 125.757 261.507 126.168 261.282C126.598 261.048 126.825 260.885 126.905 260.799C127.913 259.707 128.168 258.206 128.134 256.851C128.106 255.717 127.879 254.767 127.774 254.325C127.754 254.241 127.738 254.175 127.729 254.13C127.694 253.955 127.755 253.774 127.889 253.656ZM128.899 254.779C129.003 255.308 129.114 256.032 129.134 256.826C129.171 258.29 128.905 260.106 127.639 261.477C127.435 261.699 127.071 261.929 126.647 262.16C126.203 262.402 125.63 262.679 124.953 262.983C123.598 263.593 121.797 264.328 119.718 265.148C117.538 266.007 115.034 266.965 112.406 267.971C110.035 268.879 107.564 269.825 105.139 270.771C100.01 272.773 95.0651 274.786 91.5948 276.484C89.8535 277.336 88.5154 278.094 87.7122 278.718C87.3026 279.037 87.0838 279.281 86.9981 279.446C86.974 279.493 86.9669 279.521 86.9648 279.533C86.9672 279.536 86.9708 279.54 86.9761 279.546C87.0009 279.57 87.081 279.629 87.2639 279.703C87.4386 279.773 87.6728 279.844 87.9702 279.913C88.5646 280.052 89.3672 280.173 90.3573 280.275C92.335 280.481 95.0096 280.608 98.1534 280.667C104.438 280.785 112.558 280.631 120.642 280.3C128.726 279.968 136.765 279.46 142.885 278.869C145.947 278.573 148.519 278.257 150.375 277.935C151.304 277.773 152.04 277.612 152.563 277.455C152.825 277.376 153.02 277.302 153.153 277.237C153.254 277.187 153.291 277.155 153.297 277.151C153.42 276.952 153.565 276.573 153.718 275.996C153.87 275.42 154.018 274.692 154.161 273.845C154.446 272.153 154.704 270.018 154.931 267.731C155.35 263.494 155.657 258.763 155.825 255.433C151.389 256.991 141.043 258.623 128.899 254.779ZM86.9604 279.527C86.9604 279.527 86.9606 279.527 86.961 279.528Z" fill="#000C48"/>
<path fill-rule="evenodd" clip-rule="evenodd" d="M201.798 221.282C202.068 221.341 202.24 221.607 202.181 221.877C201.546 224.806 198.159 230.633 188.514 235.456C183.654 237.886 178.035 238.883 173.006 239.15C167.976 239.418 163.499 238.958 160.9 238.446C160.629 238.392 160.452 238.13 160.506 237.859C160.559 237.588 160.822 237.411 161.093 237.465C163.611 237.961 168.005 238.415 172.953 238.152C177.904 237.888 183.373 236.908 188.066 234.561C197.526 229.832 200.65 224.216 201.204 221.665C201.262 221.395 201.529 221.224 201.798 221.282Z" fill="#000C48"/>
<path d="M212.56 250.129C208.838 249.322 208.631 241.677 208.993 237.955L226.439 234.621V240.669C237.631 244.106 259.828 251.385 259.083 252.998C258.339 254.61 249.21 253.67 244.738 252.998C241.714 256.875 217.212 251.137 212.56 250.129Z" fill="white"/>
<path fill-rule="evenodd" clip-rule="evenodd" d="M226.758 234.236C226.873 234.331 226.939 234.472 226.939 234.621V240.3C232.533 242.022 240.683 244.643 247.405 247.047C250.836 248.273 253.905 249.447 256.075 250.418C257.156 250.902 258.034 251.344 258.625 251.726C258.916 251.914 259.168 252.107 259.339 252.303C259.486 252.471 259.718 252.816 259.537 253.207C259.361 253.589 258.983 253.813 258.617 253.955C258.233 254.103 257.752 254.202 257.218 254.269C256.147 254.402 254.765 254.413 253.288 254.354C250.444 254.24 247.173 253.861 244.929 253.531C244.424 254.022 243.658 254.326 242.785 254.517C241.766 254.74 240.502 254.831 239.087 254.827C236.255 254.818 232.735 254.428 229.185 253.889C222.997 252.95 216.655 251.546 213.589 250.867C213.135 250.767 212.753 250.682 212.454 250.617C211.348 250.378 210.537 249.633 209.953 248.668C209.373 247.709 208.995 246.497 208.754 245.229C208.27 242.69 208.311 239.797 208.495 237.907C208.517 237.686 208.681 237.506 208.899 237.464L226.345 234.13C226.492 234.102 226.643 234.141 226.758 234.236ZM209.457 238.375C209.31 240.199 209.306 242.784 209.736 245.042C209.966 246.251 210.315 247.334 210.809 248.151C211.3 248.963 211.91 249.476 212.666 249.64C212.968 249.705 213.353 249.791 213.81 249.892C216.88 250.571 223.184 251.967 229.335 252.901C232.869 253.437 236.332 253.818 239.091 253.827C240.471 253.831 241.654 253.741 242.571 253.54C243.509 253.335 244.077 253.033 244.344 252.69C244.455 252.548 244.634 252.476 244.813 252.503C247.038 252.838 250.419 253.238 253.329 253.355C254.786 253.413 256.105 253.399 257.095 253.276C257.592 253.215 257.981 253.128 258.256 253.022C258.379 252.975 258.462 252.93 258.519 252.892C258.429 252.808 258.288 252.699 258.082 252.566C257.558 252.227 256.736 251.81 255.666 251.331C253.533 250.376 250.494 249.213 247.069 247.988C240.224 245.541 231.884 242.864 226.292 241.147C226.083 241.082 225.939 240.889 225.939 240.669V235.225L209.457 238.375ZM258.623 253.01C258.623 253.01 258.621 253.007 258.617 253C258.622 253.007 258.624 253.01 258.623 253.01Z" fill="#000C48"/>
<path fill-rule="evenodd" clip-rule="evenodd" d="M229.844 247.473C229.873 247.198 230.119 246.999 230.393 247.028C232.669 247.266 236.123 247.833 239.092 248.766C240.575 249.231 241.963 249.795 243.028 250.47C244.076 251.135 244.91 251.971 245.093 253.015C245.141 253.286 244.959 253.546 244.687 253.594C244.415 253.641 244.156 253.46 244.108 253.188C243.999 252.568 243.468 251.934 242.492 251.315C241.533 250.706 240.238 250.173 238.793 249.72C235.906 248.814 232.523 248.256 230.289 248.022C230.014 247.994 229.815 247.748 229.844 247.473Z" fill="#000C48"/>
<path fill-rule="evenodd" clip-rule="evenodd" d="M22.2881 44.8883C22.7604 48.1612 23.4103 52.6643 24.9168 57.8452C26.4641 63.1664 28.5017 67.2977 30.1514 70.1448C30.9762 71.5681 31.7044 72.6712 32.2278 73.4438C32.332 73.5976 32.4296 73.7406 32.5186 73.871C32.6504 74.064 32.7634 74.2296 32.8512 74.3621C32.925 74.4734 32.9892 74.5738 33.0362 74.6565C33.0595 74.6973 33.0842 74.7437 33.1045 74.791L33.1047 74.7916C33.1179 74.8223 33.1597 74.9197 33.1597 75.04C33.1597 75.3161 32.9358 75.54 32.6597 75.54C32.4273 75.54 32.232 75.3816 32.1759 75.1669C32.1735 75.1624 32.1705 75.1571 32.167 75.1509C32.1377 75.0994 32.0893 75.0227 32.0175 74.9143C31.9328 74.7864 31.827 74.6314 31.6996 74.4449C31.6103 74.3141 31.5105 74.1679 31.3998 74.0046C30.8691 73.2211 30.1269 72.097 29.2862 70.6461C27.6049 67.7446 25.5309 63.5387 23.9566 58.1244C22.4303 52.8755 21.7721 48.3141 21.2996 45.0399C21.2856 44.9425 21.2717 44.8463 21.2579 44.7512C21.0182 43.0925 20.8274 41.82 20.5926 40.9648C20.4742 40.5339 20.3572 40.2587 20.2479 40.1021C20.196 40.0277 20.1587 39.999 20.1424 39.9892C20.1321 39.983 20.1284 39.9823 20.1185 39.9828C20.0862 39.9842 19.9479 40.0206 19.7051 40.2556C19.4771 40.4761 19.2146 40.8161 18.9346 41.2765C18.3762 42.1947 17.7869 43.5273 17.2814 45.1607C16.271 48.4259 15.6159 52.8275 16.177 57.391C16.1951 57.5381 16.147 57.6857 16.0457 57.7938C15.9444 57.902 15.8003 57.9597 15.6523 57.9512C14.1326 57.8647 11.662 57.9652 9.22857 58.5492C6.78125 59.1366 4.46281 60.191 3.13563 61.9417C1.43506 64.185 1.42928 66.0023 1.90835 67.2247C2.15344 67.8501 2.53272 68.3407 2.91436 68.6707C3.3151 69.0173 3.65358 69.1342 3.80312 69.1342C3.90728 69.1342 4.13588 69.1044 4.48614 69.0284C4.82438 68.955 5.24506 68.8456 5.71703 68.7034C6.66162 68.4189 7.79456 68.0084 8.8632 67.5066C9.93847 67.0017 10.9168 66.419 11.5772 65.8003C12.2491 65.1708 12.4881 64.6087 12.3758 64.1097C12.3304 63.9078 12.2423 63.7795 12.1294 63.6887C12.0091 63.5921 11.8299 63.5141 11.5721 63.473C11.0446 63.3888 10.3077 63.477 9.44416 63.7032C7.73218 64.1516 5.74012 65.082 4.42558 65.8081C4.18386 65.9416 3.87967 65.8539 3.74615 65.6122C3.61263 65.3705 3.70034 65.0663 3.94206 64.9328C5.29237 64.1869 7.36611 63.2138 9.19077 62.7359C10.0955 62.4989 10.9947 62.3682 11.7297 62.4855C12.1031 62.5451 12.4617 62.6729 12.7558 62.9092C13.0571 63.1513 13.2598 63.483 13.3514 63.8902C13.5818 64.914 13.0213 65.8176 12.2609 66.53C11.4889 67.2533 10.402 67.8888 9.28824 68.4118C8.1679 68.9378 6.98813 69.3649 6.00546 69.6609C5.5138 69.809 5.06721 69.9256 4.6982 70.0057C4.3412 70.0831 4.02255 70.1342 3.80312 70.1342C3.30549 70.1342 2.73982 69.8419 2.26021 69.4271C1.7615 68.9958 1.28422 68.3728 0.977297 67.5896C0.352362 65.9949 0.460783 63.8149 2.33873 61.3376C3.87436 59.3119 6.46686 58.1836 8.9952 57.5769C11.2448 57.037 13.516 56.8926 15.119 56.9296C14.66 52.415 15.3239 48.1037 16.3261 44.865C16.8486 43.1768 17.4679 41.7637 18.0802 40.7569C18.3855 40.255 18.6988 39.8377 19.0098 39.5369C19.3058 39.2505 19.6696 39.0013 20.0751 38.9837C20.5223 38.9643 20.8492 39.2162 21.0681 39.53C21.2771 39.8296 21.4301 40.2385 21.5568 40.6999C21.8121 41.6292 22.0115 42.9739 22.2477 44.6082C22.261 44.7005 22.2745 44.7939 22.2881 44.8883Z" fill="#000C48"/>
<path fill-rule="evenodd" clip-rule="evenodd" d="M12.3262 66.6205C13.0525 66.8081 13.8749 67.2771 14.1209 68.3017C14.2384 68.7914 14.2313 69.3003 14.0475 69.8065C13.8649 70.3091 13.5199 70.7767 13.0126 71.2077C12.0102 72.0593 10.3192 72.8143 7.74246 73.4552C6.42426 73.7831 5.41472 73.8171 4.64914 73.619C3.86185 73.4153 3.35456 72.9707 3.0676 72.4161C2.79126 71.8821 2.73948 71.2871 2.76647 70.789C2.79369 70.2866 2.90346 69.8382 2.99306 69.5619C3.07825 69.2992 3.36024 69.1553 3.62292 69.2405C3.88559 69.3257 4.02948 69.6077 3.94429 69.8703C3.87517 70.0835 3.78656 70.4453 3.765 70.8431C3.74321 71.2453 3.79228 71.6407 3.95573 71.9565C4.10854 72.2518 4.37996 72.5165 4.8996 72.6509C5.44096 72.7909 6.26659 72.7919 7.50109 72.4848C10.0297 71.8559 11.54 71.1466 12.3651 70.4456C12.7716 70.1004 12.9969 69.7696 13.1075 69.4651C13.2169 69.164 13.2257 68.8569 13.1485 68.5351C13.0233 68.0136 12.6142 67.7277 12.0761 67.5888C11.8099 67.52 11.5344 67.4953 11.2974 67.4977C11.0509 67.5003 10.8837 67.5316 10.8272 67.5505C10.5652 67.6378 10.282 67.4962 10.1947 67.2342C10.1074 66.9722 10.249 66.6891 10.5109 66.6018C10.7057 66.5369 10.9885 66.5008 11.2871 66.4978C11.5953 66.4946 11.9602 66.526 12.3262 66.6205Z" fill="#000C48"/>
<path fill-rule="evenodd" clip-rule="evenodd" d="M13.386 71.2472C13.9612 71.4914 14.5019 71.9759 14.6425 72.8196C14.8079 73.812 14.4424 74.8437 13.4791 75.697C12.5299 76.538 11.0036 77.2088 8.8003 77.5761C7.8721 77.7308 7.09383 77.6645 6.45095 77.4232C5.80519 77.1809 5.32653 76.7732 4.98398 76.2958C4.31169 75.3589 4.16665 74.1634 4.22277 73.3589C4.24199 73.0834 4.48089 72.8757 4.75636 72.8949C5.03183 72.9141 5.23957 73.153 5.22035 73.4285C5.174 74.0929 5.30565 75.0289 5.79645 75.7128C6.03545 76.0459 6.35993 76.321 6.80233 76.487C7.2476 76.6541 7.8425 76.7219 8.63588 76.5897C10.7366 76.2395 12.0591 75.6191 12.816 74.9485C13.559 74.2903 13.7571 73.5901 13.6561 72.984C13.5835 72.5488 13.3283 72.3091 12.9952 72.1677C12.6399 72.0168 12.2206 71.9949 11.9512 72.0255C11.6768 72.0566 11.4291 71.8594 11.398 71.585C11.3669 71.3106 11.5641 71.063 11.8385 71.0319C12.2317 70.9873 12.8331 71.0124 13.386 71.2472Z" fill="#000C48"/>
<path fill-rule="evenodd" clip-rule="evenodd" d="M12.1697 75.5194C12.2322 75.2505 12.501 75.0831 12.77 75.1457C13.023 75.2045 13.2902 75.3988 13.5238 75.6802C13.769 75.9756 14.0098 76.4044 14.1969 77.0045C14.4998 77.9757 13.9477 78.9913 13.0626 79.6839C12.153 80.3958 10.7928 80.8682 9.1657 80.7971C7.78569 80.7368 6.93137 80.1135 6.46631 79.3133C6.02096 78.547 5.96041 77.6698 6.03429 77.0901C6.06921 76.8162 6.31957 76.6224 6.5935 76.6573C6.86743 76.6923 7.06118 76.9426 7.02627 77.2165C6.97221 77.6407 7.02386 78.2825 7.3309 78.8108C7.61823 79.3052 8.15651 79.7521 9.20935 79.7981C10.6233 79.8599 11.7432 79.4467 12.4464 78.8964C13.1741 78.3269 13.3675 77.704 13.2423 77.3022C13.0869 76.8039 12.9021 76.4969 12.7543 76.3189C12.62 76.157 12.5328 76.1196 12.5336 76.1177C12.5337 76.1173 12.5369 76.1182 12.5434 76.1197C12.2745 76.0571 12.1071 75.7884 12.1697 75.5194Z" fill="#000C48"/>
<path fill-rule="evenodd" clip-rule="evenodd" d="M16.8945 74.1033C17.1171 74.1018 17.3139 74.2477 17.3772 74.4612L20.0932 83.6244C20.1717 83.8892 20.0207 84.1674 19.756 84.2459C19.4912 84.3244 19.213 84.1734 19.1345 83.9086L16.7881 75.9925C16.5041 76.4144 16.1654 76.7807 15.8233 77.0882C15.1763 77.6699 14.4826 78.073 14.0238 78.2718C13.7705 78.3816 13.4761 78.2651 13.3663 78.0118C13.2565 77.7584 13.3729 77.464 13.6263 77.3542C13.9906 77.1964 14.5918 76.8506 15.1547 76.3446C15.7188 75.8375 16.2098 75.2008 16.4166 74.4675C16.477 74.2533 16.6719 74.1048 16.8945 74.1033Z" fill="#000C48"/>
</svg>
