<svg width="152" height="330" viewBox="0 0 152 330" fill="none" xmlns="http://www.w3.org/2000/svg">
<path d="M62.2061 154.56L73.1081 83.899L91.6555 81.3918L112.477 149.917L62.2061 154.56Z" fill="#000C48"/>
<path d="M38.8052 159.552C44.1312 162.922 52.1957 162.768 55.5623 162.269L54.6112 170.376C44.2852 167.768 39.6425 163.319 38.8052 159.552Z" fill="#000C48"/>
<path d="M46.9693 284.568C45.7905 275.793 52.12 199.559 55.5033 162.342L64.5749 159.778L66.1304 149.565C69.8953 150.535 79.3322 152.257 86.961 151.391C94.5899 150.526 102.449 146.612 105.424 144.763L109.144 154.638L118.348 157.364C128.334 171.061 148.798 200.027 150.763 206.314C153.218 214.172 135.865 266.56 133.573 268.033C131.281 269.507 128.825 269.507 116.383 264.432C103.941 259.357 100.667 253.136 99.0296 249.861C97.3925 246.587 114.419 211.389 114.255 205.332C114.124 200.486 99.6845 182.248 92.4812 173.735C91.3024 174.914 87.6244 174.881 85.9327 174.718C87.2424 210.68 89.6981 282.997 89.0432 284.568C88.2246 286.533 73.4906 292.917 60.2299 291.608C49.6214 290.56 46.9693 286.478 46.9693 284.568Z" fill="white"/>
<path d="M106.103 146.984C91.7001 156.882 73.1389 155.09 65.6587 152.957V148.861C65.6587 148.861 68.8573 153.181 85.9804 151.288C103.103 149.396 106.103 143.741 106.103 143.741V146.984Z" fill="#BFCDE0"/>
<path d="M14.6664 80.8679C10.3314 72.4202 37.1702 34.9956 51.5739 17.3036C53.9236 19.2404 58.8264 24.0373 59.6402 27.7307C50.5217 41.3847 32.8689 69.7911 35.2059 74.1847C38.1272 79.6767 59.3702 83.3688 74.6896 82.1183C71.6329 107.313 65.3805 158.009 64.8247 159.231C64.13 160.76 57.7386 162.01 51.3473 162.427C46.2342 162.761 40.6024 160.436 38.4256 159.231C53.7093 136.306 54.1261 110.185 52.5978 108.517C51.0694 106.85 20.0852 91.4275 14.6664 80.8679Z" fill="#5397F5"/>
<path fill-rule="evenodd" clip-rule="evenodd" d="M52.5117 18.1112C39.9486 34.4946 14.9532 69.2355 14.3867 78.5833L14.2156 78.0149C14.9364 66.0174 38.4316 33.4465 51.574 17.3036C51.8541 17.5344 52.1703 17.8058 52.5117 18.1112Z" fill="white"/>
<path d="M58.815 45.1944C54.2293 49.8299 56.655 56.9286 58.4411 59.8985V55.1344L67.3147 77.6304L66.6132 82.5991H75.7322L90.3499 80.8886L113.227 75.4633C110.983 59.4416 99.6734 55.4923 97.2948 52.9342C94.9163 50.3762 97.3846 46.4269 95.2753 41.4902C93.166 36.5536 89.1269 37.5409 85.8059 36.8677C82.4849 36.1945 83.562 34.3097 79.1639 32.0657C74.7658 29.8218 69.5939 33.2316 65.9801 36.2223C62.3664 39.213 64.5471 39.3999 58.815 45.1944Z" fill="#000C48"/>
<path fill-rule="evenodd" clip-rule="evenodd" d="M58.4411 58.0203C57.4204 55.0561 56.2416 50.7646 57.8398 48.8335C58.5964 47.9193 59.4402 47.0196 60.3013 46.1016C62.2382 44.0367 64.2619 41.8793 65.5738 39.2555C67.4689 35.4653 72.2661 31.6333 74.5709 31.6845C74.9904 31.6938 75.2033 31.5799 75.2665 31.3845C71.9427 31.7325 68.5633 34.0845 65.9801 36.2223C64.2925 37.619 63.8686 38.4042 63.3123 39.4346C62.6774 40.6106 61.8701 42.106 58.815 45.1943C54.2293 49.8299 56.655 56.9286 58.4411 59.8984V58.0203Z" fill="white"/>
<path d="M53.4572 7.37842C54.2914 7.3784 56.8226 15.4293 62.1789 22.4046C62.1789 22.4046 58.7337 19.549 56.8226 17.4275C55.2242 15.653 53.0779 12.5926 53.0779 12.5926C52.7303 10.7123 52.6229 7.37844 53.4572 7.37842Z" fill="white"/>
<path fill-rule="evenodd" clip-rule="evenodd" d="M52.7974 7.21211C52.9397 7.03498 53.1608 6.87843 53.4571 6.87842C53.7029 6.87841 53.8812 7.01843 53.973 7.10326C54.0789 7.2011 54.1762 7.32631 54.2648 7.45614C54.4438 7.71846 54.6442 8.08487 54.8645 8.51908C55.1122 9.00708 55.4026 9.61686 55.7333 10.3112C55.9891 10.8482 56.2689 11.4357 56.5717 12.0566C57.9737 14.9318 59.9282 18.6526 62.5755 22.1C62.7305 22.3019 62.7091 22.588 62.5258 22.7646C62.3425 22.9412 62.0558 22.9519 61.8599 22.7895L61.8493 22.7808L61.8195 22.756L61.7057 22.6606C61.6069 22.5777 61.4638 22.457 61.2863 22.3057C60.9315 22.0031 60.4384 21.5775 59.885 21.0851C58.7823 20.1038 57.4261 18.8444 56.4511 17.7621C55.6357 16.8569 54.6882 15.6328 53.9501 14.6436C53.5798 14.1472 53.2598 13.7068 53.0323 13.3903C52.9185 13.2321 52.8278 13.1047 52.7654 13.0168L52.6938 12.9155L52.6691 12.8803C52.6279 12.8216 52.5993 12.754 52.5863 12.6834C52.4065 11.7108 52.2894 10.3714 52.3246 9.26452C52.3421 8.71586 52.3977 8.18969 52.5179 7.78604C52.5773 7.58634 52.6633 7.37892 52.7974 7.21211ZM53.5504 12.3949L53.5811 12.4383C53.6424 12.5246 53.7318 12.6503 53.8443 12.8066C54.0691 13.1194 54.3856 13.555 54.7516 14.0456C55.4863 15.0302 56.4111 16.2236 57.1941 17.0928C57.8229 17.7908 58.6256 18.5744 59.4175 19.3097C57.8697 16.8661 56.6365 14.471 55.6729 12.4949C55.3588 11.8508 55.0762 11.2574 54.821 10.7213C54.4972 10.0414 54.2174 9.45363 53.9728 8.9716C53.7734 8.57865 53.6091 8.27984 53.4753 8.07467C53.3924 8.35491 53.3406 8.77846 53.3241 9.29629C53.2926 10.2866 53.3935 11.4965 53.5504 12.3949ZM53.2826 7.82802C53.2826 7.82777 53.285 7.82939 53.2898 7.83364C53.2851 7.83039 53.2827 7.82827 53.2826 7.82802Z" fill="#020E49"/>
<path d="M100.884 2.93672C101.663 2.89461 101.221 5.23258 101.01 5.90657L95.9761 10.5826C97.3522 8.04804 100.26 2.9704 100.884 2.93672Z" fill="white"/>
<path d="M84.3624 21.2669C86.3722 21.2669 88.9603 21.8041 90.0032 22.0727L101.996 13.3036C103.844 9.25873 107.305 1.20688 106.357 1.35856C105.171 1.54816 93.7953 13.4932 90.9986 15.6262C88.2019 17.7593 80.9496 19.2761 81.1866 20.2715C81.4236 21.2669 81.8502 21.2669 84.3624 21.2669H84.3624Z" fill="white"/>
<path d="M75.9164 75.5308C61.4149 84.6489 58.288 65.841 58.5103 55.1507L65.3356 54.4717L71.6964 50.934L74.162 51.3627C78.0785 55.365 83.9176 55.7462 86.3475 55.4365L87.7412 59.403C88.7298 59.3196 90.8501 59.6389 91.4218 61.5828C91.9936 63.5268 89.5636 65.2754 88.2772 65.9067L88.5273 79.057C88.9919 79.2119 90.0067 79.8146 90.3498 80.9867C90.7786 82.4518 86.9907 90.4563 82.7026 91.0281C78.4144 91.5998 74.0522 84.4437 75.2671 82.514C76.2391 80.9703 76.2488 76.9087 75.9164 75.5308Z" fill="white"/>
<path d="M148.6 322.861C148.6 326.727 115.469 329.861 74.5996 329.861C33.7305 329.861 0.599609 326.727 0.599609 322.861C0.599609 318.995 33.7305 315.861 74.5996 315.861C115.469 315.861 148.6 318.995 148.6 322.861Z" fill="#D1D1D1"/>
<path fill-rule="evenodd" clip-rule="evenodd" d="M105.915 2.22372C105.874 2.25613 105.831 2.29048 105.786 2.32676C105.369 2.6655 104.826 3.14739 104.19 3.7351C102.919 4.90918 101.304 6.48174 99.6321 8.12058C99.2482 8.497 98.8614 8.87689 98.4753 9.25608C97.1828 10.5253 95.8983 11.7868 94.7583 12.8839C93.2857 14.3012 92.0285 15.4696 91.302 16.0238C90.5524 16.5955 89.5286 17.1096 88.4492 17.5716C87.3642 18.0359 86.1894 18.4613 85.1249 18.8457L85.0818 18.8613C84.0245 19.2431 83.0925 19.5796 82.4345 19.8804C82.0974 20.0344 81.8662 20.1643 81.7327 20.2681C81.7236 20.2752 81.7155 20.2817 81.7082 20.2878C81.7487 20.4231 81.7863 20.4926 81.8193 20.5336C81.8499 20.5716 81.9022 20.6184 82.0546 20.6605C82.2215 20.7066 82.4697 20.7364 82.8594 20.7517C83.2444 20.7668 83.7307 20.7669 84.3626 20.7669C86.2975 20.7669 88.7235 21.2457 89.8972 21.5308L101.595 12.9771C102.515 10.9607 103.805 8.01442 104.759 5.57521C105.247 4.32822 105.641 3.22955 105.853 2.45906C105.876 2.37498 105.897 2.29655 105.915 2.22372ZM105.691 5.93946C104.708 8.45118 103.377 11.4847 102.451 13.5114C102.415 13.5893 102.36 13.6567 102.291 13.7072L90.2984 22.4763C90.1776 22.5646 90.0236 22.5942 89.8786 22.5569C88.85 22.2919 86.3097 21.7669 84.3626 21.7669H84.3525C83.7329 21.7669 83.2271 21.7669 82.8203 21.7509C82.416 21.7351 82.0717 21.7027 81.7883 21.6244C81.4905 21.5421 81.2346 21.4022 81.04 21.1603C80.8572 20.933 80.7651 20.6592 80.7003 20.3873C80.6468 20.1622 80.7117 19.9624 80.8013 19.8167C80.8861 19.6788 81.0047 19.5675 81.1185 19.4789C81.3472 19.301 81.6655 19.1324 82.0188 18.9709C82.7149 18.6527 83.6789 18.3046 84.708 17.9331L84.7853 17.9051C85.8539 17.5193 87.0017 17.1033 88.0557 16.6522C89.1153 16.1988 90.0468 15.7234 90.6955 15.2286C91.3673 14.7162 92.5809 13.5916 94.0649 12.1634C95.2008 11.0702 96.4801 9.81384 97.7718 8.54538C98.1586 8.1655 98.5465 7.78454 98.932 7.40654C100.602 5.76879 102.228 4.18623 103.511 3.00064C104.152 2.4085 104.714 1.90942 105.156 1.5503C105.377 1.37127 105.575 1.22066 105.744 1.10928C105.828 1.05362 105.912 1.00316 105.992 0.962999C106.066 0.926025 106.166 0.882584 106.278 0.864793C106.388 0.847143 106.526 0.853451 106.662 0.923372C106.797 0.992975 106.881 1.1002 106.93 1.1964C107.016 1.36604 107.021 1.55403 107.017 1.67987C107.007 1.95605 106.928 2.32203 106.817 2.72519C106.59 3.54817 106.181 4.68683 105.691 5.93946Z" fill="#020E49"/>
<path fill-rule="evenodd" clip-rule="evenodd" d="M98.8072 6.403C97.7285 8.19627 96.5951 10.3372 95.9032 11.7114C95.7791 11.958 95.4784 12.0573 95.2318 11.9331C94.9852 11.8089 94.8859 11.5083 95.0101 11.2617C95.7084 9.87474 96.8541 7.70983 97.9503 5.88754C98.4972 4.97826 99.0395 4.14144 99.5125 3.5271C99.7479 3.22146 99.9778 2.95549 100.192 2.76116C100.299 2.66398 100.414 2.57398 100.535 2.50597C100.651 2.44054 100.807 2.37487 100.988 2.37488C101.4 2.37489 101.727 2.56285 101.933 2.86969C102.119 3.14707 102.187 3.48864 102.203 3.8009C102.237 4.43123 102.072 5.17227 101.851 5.73137C101.749 5.98809 101.459 6.11375 101.202 6.01203C100.945 5.91031 100.819 5.61973 100.921 5.363C101.105 4.89877 101.229 4.30367 101.205 3.85369C101.193 3.62579 101.146 3.49117 101.103 3.42738C101.084 3.39986 101.069 3.38272 101.026 3.37701C100.992 3.3962 100.938 3.43452 100.864 3.50214C100.713 3.63854 100.525 3.85121 100.305 4.13721C99.8668 4.70612 99.3477 5.50451 98.8072 6.403ZM101.047 3.36648C101.047 3.36651 101.046 3.36681 101.045 3.36728C101.046 3.36668 101.047 3.36645 101.047 3.36648Z" fill="#020E49"/>
<path d="M69.4437 25.1999C69.7977 27.2646 60.2412 27.9725 59.8283 27.9725C59.2581 26.6944 56.926 22.8286 52.1596 17.5903C46.2016 11.0424 46.6003 3.98829 47.8533 4.14048C49.1063 4.29267 53.503 17.5903 63.6627 23.4302C66.1329 24.8502 69.0898 23.1353 69.4437 25.1999Z" fill="white"/>
<path fill-rule="evenodd" clip-rule="evenodd" d="M47.0099 4.14155C47.176 3.87531 47.4776 3.59117 47.9136 3.64412C48.1753 3.67591 48.3704 3.85168 48.4854 3.97068C48.6196 4.10965 48.7553 4.29187 48.8915 4.49595C49.1652 4.9061 49.4893 5.47927 49.8616 6.15662C49.9838 6.37904 50.112 6.6141 50.2465 6.8605C50.9378 8.12798 51.793 9.69569 52.8429 11.389C55.3539 15.4386 58.9397 20.1386 63.9118 22.9967C64.9099 23.5704 65.9961 23.5715 67.043 23.5725C67.1457 23.5726 67.2481 23.5727 67.35 23.5733C67.8836 23.5767 68.4607 23.5954 68.9302 23.7903C69.1787 23.8934 69.4082 24.0493 69.5895 24.2821C69.7697 24.5134 69.8814 24.7938 69.9365 25.1154C70.0187 25.5949 69.7937 25.989 69.4936 26.2743C69.2008 26.5525 68.7903 26.7778 68.3417 26.9654C67.4377 27.3436 66.2201 27.6333 65.0129 27.8524C62.5967 28.291 60.0733 28.4725 59.8284 28.4725C59.631 28.4725 59.4521 28.3565 59.3717 28.1762C58.8313 26.965 56.5369 23.144 51.7897 17.9268C48.7467 14.5825 47.3163 11.0972 46.8111 8.44644C46.5594 7.12545 46.5338 5.99225 46.6661 5.17688C46.7315 4.77438 46.8411 4.41227 47.0099 4.14155ZM47.7935 8.25924C48.2652 10.7345 49.6144 14.0502 52.5294 17.2538C56.9852 22.1507 59.3467 25.8783 60.1354 27.4545C60.1951 27.4503 60.262 27.4453 60.3357 27.4396C60.6316 27.4165 61.0331 27.3812 61.503 27.3323C62.4438 27.2345 63.6526 27.083 64.8343 26.8685C66.0235 26.6526 67.1545 26.3781 67.9557 26.0429C68.3597 25.8739 68.6409 25.7051 68.8046 25.5494C68.961 25.4008 68.9572 25.3211 68.9509 25.2844C68.9176 25.0899 68.8595 24.9722 68.8006 24.8966C68.7428 24.8224 68.6639 24.7625 68.5468 24.7139C68.2852 24.6052 67.9023 24.5768 67.3437 24.5733C67.244 24.5727 67.1401 24.5729 67.0325 24.5731C66.012 24.5753 64.6566 24.5783 63.4135 23.8637C58.226 20.8819 54.5335 16.0132 51.993 11.9159C50.9271 10.1968 50.057 8.60154 49.3657 7.33412C49.2322 7.08948 49.1055 6.85705 48.9852 6.6383C48.6104 5.95634 48.306 5.42004 48.0597 5.05104C47.9668 4.91173 47.8889 4.80667 47.825 4.73106C47.7642 4.85293 47.6997 5.05079 47.6532 5.33712C47.5446 6.00621 47.5568 7.01724 47.7935 8.25924ZM47.902 4.61294C47.902 4.61314 47.9006 4.61458 47.8978 4.6167C47.9006 4.61381 47.902 4.61275 47.902 4.61294ZM47.7062 4.61092C47.7052 4.61036 47.7048 4.61004 47.7048 4.61002Z" fill="#020E49"/>
<path d="M139.265 76.798C139.378 67.3977 114.366 30.7109 101.845 13.5425L90.1677 21.7444L117.393 74.6476L90.4756 80.6901C95.1383 103.764 106.128 150.685 108.998 154.271C112.584 158.755 135.42 157.831 135.77 158.329C127.305 146.565 119.974 115.946 117.393 101.714C124.636 97.3256 139.152 86.1982 139.265 76.798Z" fill="#5397F5"/>
<path d="M139.265 76.798C139.378 67.3977 114.366 30.7109 101.845 13.5425L90.1677 21.7444L117.393 74.6476L90.4756 80.6901C95.1383 103.764 106.128 150.685 108.998 154.271C112.584 158.755 135.42 157.831 135.77 158.329C127.305 146.565 119.974 115.946 117.393 101.714C124.636 97.3256 139.152 86.1982 139.265 76.798Z" fill="#5397F5"/>
<path fill-rule="evenodd" clip-rule="evenodd" d="M111.598 155.884L113.835 156.222C106.549 141.495 95.4971 100.478 90.8818 81.8099L91.7988 87.0777C96.9551 111.458 106.373 150.991 108.998 154.271C109.511 154.913 110.418 155.444 111.598 155.884Z" fill="white"/>
<path fill-rule="evenodd" clip-rule="evenodd" d="M138.873 74.2048C138.923 76.6452 138.853 78.6018 138.719 79.9969C138.719 79.9996 138.718 80.0022 138.717 80.0049C136.442 67.9705 112.306 32.0623 99.9861 14.8481L101.845 13.5425C113.415 29.4071 135.651 61.9382 138.873 74.2048Z" fill="white"/>
<path fill-rule="evenodd" clip-rule="evenodd" d="M101.558 13.1332C101.781 12.9765 102.088 13.0275 102.249 13.2478C108.514 21.8384 117.904 35.3124 125.717 47.8183C129.622 54.0704 133.139 60.0889 135.673 65.1385C136.941 67.6629 137.967 69.9537 138.673 71.9157C139.376 73.8659 139.78 75.5364 139.765 76.8039C139.735 79.2778 138.76 81.8252 137.245 84.3007C135.727 86.7799 133.646 89.2207 131.354 91.4906C126.894 95.9092 121.589 99.7243 117.946 101.962C119.25 109.076 121.697 120.091 124.855 130.805C128.068 141.71 131.997 152.229 136.174 158.035C136.176 158.037 136.177 158.039 136.179 158.042C136.337 158.267 136.284 158.577 136.059 158.737C135.898 158.852 135.691 158.857 135.528 158.767C135.499 158.761 135.455 158.755 135.393 158.747C135.224 158.728 134.973 158.711 134.643 158.695C133.985 158.664 133.057 158.642 131.932 158.615L131.925 158.615C129.68 158.562 126.675 158.49 123.566 158.294C120.457 158.097 117.228 157.775 114.543 157.216C113.2 156.937 111.979 156.595 110.97 156.174C109.971 155.756 109.132 155.24 108.607 154.584C108.384 154.305 108.151 153.859 107.91 153.308C107.664 152.746 107.391 152.033 107.097 151.191C106.508 149.507 105.822 147.279 105.068 144.644C103.559 139.371 101.768 132.441 99.9233 124.907C96.2329 109.839 92.3182 92.3337 89.9854 80.7891C89.9315 80.5225 90.1006 80.2617 90.3659 80.2022L116.652 74.3013L89.7229 21.9731C89.6087 21.751 89.6758 21.4787 89.8801 21.3351L101.558 13.1332ZM135.364 158.621C135.365 158.622 135.365 158.623 135.366 158.624C135.365 158.623 135.365 158.622 135.364 158.621ZM134.727 157.698C130.684 151.601 126.949 141.449 123.895 131.088C120.676 120.165 118.194 108.934 116.9 101.803C116.863 101.6 116.956 101.394 117.133 101.287C120.73 99.1076 126.136 95.2519 130.651 90.7801C132.908 88.5445 134.93 86.1667 136.392 83.7786C137.856 81.3867 138.738 79.0181 138.765 76.7919C138.778 75.7093 138.425 74.1771 137.733 72.2546C137.044 70.344 136.037 68.0922 134.78 65.5871C132.265 60.5776 128.767 54.5888 124.869 48.3481C117.192 36.0593 107.983 22.8261 101.73 14.234L90.8115 21.903L117.837 74.4187C117.908 74.5564 117.911 74.7191 117.845 74.8593C117.78 74.9995 117.653 75.1015 117.502 75.1354L91.0627 81.0707C93.403 92.6019 97.2578 109.82 100.895 124.67C102.739 132.198 104.525 139.114 106.029 144.368C106.782 146.996 107.461 149.203 108.041 150.861C108.331 151.691 108.594 152.377 108.826 152.907C109.063 153.449 109.253 153.79 109.388 153.959C109.76 154.424 110.419 154.86 111.356 155.251C112.284 155.639 113.438 155.965 114.747 156.237C117.363 156.782 120.537 157.1 123.629 157.296C126.718 157.491 129.707 157.562 131.954 157.616L131.955 157.616L131.958 157.616C133.078 157.642 134.018 157.665 134.69 157.696C134.702 157.697 134.715 157.697 134.727 157.698Z" fill="#020E49"/>
<path fill-rule="evenodd" clip-rule="evenodd" d="M58.3821 54.6829C58.6582 54.6841 58.8811 54.909 58.8798 55.1852C58.8672 57.911 59.1468 62.2291 60.024 66.3024C60.4625 68.3387 61.0473 70.2991 61.8115 71.9634C62.578 73.6329 63.5083 74.9679 64.6178 75.7965C66.8311 77.4495 69.6828 77.3269 72.4561 76.4041C75.2198 75.4845 77.7888 73.8045 79.3018 72.5395C79.5136 72.3624 79.8289 72.3906 80.0061 72.6024C80.1832 72.8143 80.155 73.1296 79.9432 73.3067C78.3599 74.6305 75.6829 76.3843 72.7718 77.353C69.8702 78.3184 66.6181 78.5385 64.0194 76.5978C62.7229 75.6295 61.7048 74.1277 60.9027 72.3807C60.0982 70.6285 59.4943 68.5925 59.0464 66.5129C58.1508 62.3543 57.867 57.9621 57.8798 55.1806C57.8811 54.9044 58.106 54.6816 58.3821 54.6829Z" fill="#020E49"/>
<path fill-rule="evenodd" clip-rule="evenodd" d="M67.572 53.7458C67.5174 53.7809 67.462 53.8164 67.4059 53.8524C64.0207 56.024 59.7997 55.7443 58.2999 55.5374C58.0264 55.4997 57.8352 55.2474 57.8729 54.9738C57.9106 54.7003 58.163 54.5091 58.4365 54.5468C59.8808 54.746 63.7945 54.9811 66.8659 53.0107C66.9628 52.9486 67.0575 52.8878 67.1501 52.8284C68.9637 51.6645 69.9753 51.0153 70.7472 50.6873C71.6267 50.3135 72.2255 50.3434 73.1907 50.4206C73.5348 50.4481 73.862 50.5883 74.1657 50.7628C74.4717 50.9387 74.7928 51.1729 75.1256 51.4268C75.2523 51.5235 75.3819 51.6239 75.5153 51.7273C76.096 52.1773 76.7479 52.6824 77.5344 53.1679C79.4425 54.3456 82.1287 55.3944 86.188 54.9146C86.4278 54.8863 86.6536 55.0334 86.7246 55.2641L87.8254 58.8419C88.5041 58.8148 89.3671 58.8946 90.1219 59.2196C90.5888 59.4206 91.0344 59.7244 91.3584 60.1749C91.6864 60.6308 91.8655 61.2038 91.8478 61.8958C91.7859 64.3111 89.9641 65.6693 88.8142 66.1785L89.249 78.8594C89.5407 79.0309 89.8777 79.2857 90.1677 79.6183C90.5618 80.07 90.8963 80.6994 90.8575 81.4756C90.8435 81.7558 90.7263 82.1276 90.5717 82.5159C90.4098 82.9224 90.1827 83.4053 89.9057 83.9301C89.3517 84.9799 88.5859 86.2206 87.7126 87.3849C86.8424 88.5452 85.8485 89.6525 84.8342 90.4157C83.8386 91.1649 82.712 91.6646 81.6257 91.3749C79.7661 90.879 77.8519 89.2792 76.4711 87.6431C75.7736 86.8166 75.1904 85.9555 74.8034 85.1784C74.6099 84.7899 74.4603 84.412 74.3723 84.0623C74.286 83.7188 74.2497 83.3659 74.3218 83.046C74.4279 82.5748 74.5707 82.2359 74.744 81.9669C74.9037 81.7189 75.0794 81.5484 75.2142 81.4176C75.2238 81.4083 75.2331 81.3993 75.2422 81.3904C75.3811 81.2551 75.4771 81.1551 75.5614 81.0051C75.6464 80.854 75.7343 80.6237 75.7963 80.2268C75.8955 79.5922 75.8607 78.6863 75.7656 77.78C75.6716 76.8842 75.5236 76.0319 75.4171 75.5261C75.3602 75.2558 75.5332 74.9907 75.8034 74.9338C76.0736 74.8769 76.3388 75.0498 76.3957 75.3201C76.5086 75.8562 76.6622 76.7425 76.7602 77.6756C76.857 78.5983 76.9045 79.6119 76.7843 80.3812C76.7092 80.8619 76.5914 81.2136 76.4331 81.4953C76.274 81.7781 76.0889 81.9617 75.9399 82.1068L75.9249 82.1214C75.7828 82.2597 75.681 82.3588 75.5847 82.5084C75.4872 82.6598 75.3832 82.8843 75.2974 83.2656C75.2734 83.372 75.2752 83.552 75.3421 83.8184C75.4075 84.0785 75.5265 84.3872 75.6985 84.7326C76.0423 85.423 76.5769 86.218 77.2353 86.9982C78.5665 88.5754 80.3167 89.9909 81.8833 90.4087C82.5101 90.5758 83.306 90.3142 84.2329 89.6167C85.1411 88.9333 86.0697 87.9087 86.9126 86.7849C87.7525 85.6651 88.4904 84.4693 89.0213 83.4633C89.2869 82.9602 89.4975 82.5105 89.6426 82.146C89.7949 81.7635 89.8537 81.5262 89.8588 81.4257C89.8809 80.9836 89.6952 80.5978 89.4141 80.2755C89.1294 79.9491 88.7752 79.723 88.5523 79.6217C88.3795 79.5431 88.266 79.3734 88.2595 79.1836L87.8027 65.8593C87.7951 65.6379 87.9341 65.4379 88.1443 65.3679C89.045 65.0677 90.7951 63.9387 90.8481 61.8702C90.8608 61.3745 90.7348 61.0205 90.5466 60.7588C90.3544 60.4916 90.073 60.2872 89.7264 60.138C89.0203 59.834 88.1301 59.797 87.5222 59.8671C87.2829 59.8947 87.0578 59.7477 86.987 59.5175L85.89 55.9522C81.8016 56.3449 79.0123 55.2552 77.0092 54.0188C76.1729 53.5026 75.4711 52.9585 74.889 52.5072C74.7598 52.4071 74.6365 52.3115 74.519 52.2218C74.1892 51.9702 73.9125 51.7707 73.6674 51.6298C73.42 51.4876 73.2427 51.428 73.111 51.4174C72.1727 51.3424 71.7817 51.3342 71.1384 51.6076C70.4465 51.9016 69.5011 52.5082 67.572 53.7458Z" fill="#020E49"/>
<path fill-rule="evenodd" clip-rule="evenodd" d="M69.8463 60.0217C70.1224 60.0232 70.3451 60.2482 70.3437 60.5243C70.3374 61.7448 70.2908 63.619 70.1708 65.2772C70.1109 66.1051 70.0321 66.8896 69.9287 67.5155C69.8772 67.8278 69.8178 68.1116 69.748 68.3465C69.6993 68.5105 69.6346 68.6907 69.5403 68.8431C69.5449 68.8446 69.5496 68.8461 69.5544 68.8476C69.8881 68.9517 70.412 68.9941 70.8108 68.9941C71.0869 68.9941 71.3108 69.218 71.3108 69.4941C71.3108 69.7702 71.0869 69.9941 70.8108 69.9941C70.3811 69.9941 69.7363 69.9519 69.2566 69.8022C69.0408 69.7349 68.7254 69.6077 68.551 69.3354C68.4486 69.1755 68.4063 68.9824 68.4463 68.7812C68.4831 68.5962 68.5817 68.442 68.6895 68.3188C68.6893 68.319 68.6895 68.3187 68.6901 68.3177C68.6958 68.3082 68.7362 68.2408 68.7894 68.0617C68.8425 67.8829 68.8939 67.6443 68.9421 67.3526C69.0382 66.7706 69.1144 66.0208 69.1734 65.2051C69.2913 63.576 69.3375 61.7254 69.3437 60.5191C69.3451 60.243 69.5701 60.0203 69.8463 60.0217Z" fill="#020E49"/>
<path fill-rule="evenodd" clip-rule="evenodd" d="M78.4343 64.3636C78.6978 64.281 78.9784 64.4276 79.061 64.691C79.3993 65.7693 79.3538 68.3128 76.9776 70.6441C76.7805 70.8375 76.4639 70.8345 76.2705 70.6374C76.0771 70.4403 76.0802 70.1237 76.2773 69.9303C78.3853 67.8621 78.3326 65.71 78.1069 64.9904C78.0242 64.7269 78.1708 64.4463 78.4343 64.3636Z" fill="#020E49"/>
<path fill-rule="evenodd" clip-rule="evenodd" d="M90.0872 60.8713C90.206 61.1207 90.1001 61.419 89.8508 61.5377C89.5246 61.693 89.2299 62.0039 88.9885 62.3762C88.7504 62.7435 88.5951 63.1228 88.5284 63.3452C88.449 63.6097 88.1703 63.7598 87.9058 63.6804C87.6413 63.6011 87.4912 63.3224 87.5705 63.0579C87.6625 62.7514 87.8561 62.2846 88.1494 61.8322C88.4395 61.3849 88.8586 60.9026 89.4209 60.6349C89.6702 60.5161 89.9685 60.622 90.0872 60.8713Z" fill="#020E49"/>
<path d="M78.3428 59.8701C78.3428 61.1259 77.8759 62.1439 77.3 62.1439C76.7242 62.1439 76.2573 61.1259 76.2573 59.8701C76.2573 58.6143 76.7242 57.5963 77.3 57.5963C77.8759 57.5963 78.3428 58.6143 78.3428 59.8701Z" fill="#000C48"/>
<path d="M64.2771 62.1439C64.2771 63.3997 63.8103 64.4177 63.2344 64.4177C62.6585 64.4177 62.1917 63.3997 62.1917 62.1439C62.1917 60.8881 62.6585 59.8701 63.2344 59.8701C63.8103 59.8701 64.2771 60.8881 64.2771 62.1439Z" fill="#000C48"/>
<path d="M72.8451 55.9693C72.4771 54.9951 73.711 54.4539 74.8366 54.2808C75.9623 54.1077 78.062 53.8046 78.2785 54.8653C78.4949 55.9259 76.3086 56.0991 75.5726 56.229C74.8366 56.3589 73.213 56.9434 72.8451 55.9693Z" fill="#000C48"/>
<path fill-rule="evenodd" clip-rule="evenodd" d="M78.0247 53.8516C78.3739 54.02 78.6757 54.3114 78.7684 54.7652C78.8646 55.2366 78.676 55.6172 78.385 55.8792C78.119 56.1185 77.7613 56.2699 77.4326 56.3732C76.926 56.5323 76.3263 56.6209 75.9366 56.6784C75.8244 56.695 75.7296 56.709 75.6595 56.7213C75.5512 56.7405 75.4285 56.769 75.2802 56.8034C75.1946 56.8233 75.1005 56.8451 74.9957 56.8683C74.7282 56.9275 74.4166 56.9887 74.108 57.0117C73.8051 57.0343 73.4616 57.0241 73.1486 56.9076C72.8141 56.7832 72.5262 56.54 72.3773 56.1459C72.2436 55.7918 72.2465 55.4409 72.3831 55.122C72.5136 54.817 72.7469 54.5858 72.9964 54.4133C73.4886 54.073 74.1637 53.8783 74.7606 53.7865C75.3161 53.7011 76.1721 53.5728 76.9238 53.6109C77.2981 53.6299 77.6927 53.6916 78.0247 53.8516ZM76.8731 54.6096C76.2394 54.5775 75.4828 54.6872 74.9126 54.7749C74.3839 54.8562 73.8792 55.0187 73.5651 55.2359C73.4114 55.3421 73.3349 55.4396 73.3024 55.5155C73.2759 55.5775 73.2626 55.6596 73.3128 55.7925C73.3479 55.8855 73.4009 55.9345 73.4973 55.9704C73.6152 56.0143 73.7927 56.0324 74.0336 56.0145C74.2689 55.9969 74.5242 55.9485 74.7797 55.8919C74.8559 55.8751 74.9359 55.8566 75.0159 55.838C75.1839 55.7991 75.3521 55.7601 75.4857 55.7366C75.5962 55.7171 75.7224 55.6983 75.8588 55.6781C76.2444 55.6208 76.7114 55.5515 77.1328 55.4191C77.4156 55.3303 77.6099 55.2313 77.716 55.1359C77.797 55.0629 77.8006 55.0241 77.7886 54.9652C77.7729 54.8886 77.7311 54.8202 77.5905 54.7524C77.4328 54.6764 77.1916 54.6258 76.8731 54.6096Z" fill="#020E49"/>
<path d="M65.4095 56.9875C65.4235 55.9463 64.0791 55.8579 62.9618 56.0788C61.8445 56.2996 59.7672 56.7302 59.9251 57.8012C60.0831 58.8721 62.1976 58.2899 62.9338 58.1612C63.67 58.0325 65.3956 58.0287 65.4095 56.9875Z" fill="#000C48"/>
<path fill-rule="evenodd" clip-rule="evenodd" d="M59.8184 56.7617C59.5474 57.039 59.363 57.4158 59.4306 57.874C59.5008 58.35 59.8078 58.6436 60.1707 58.7906C60.5023 58.925 60.8902 58.9454 61.2344 58.9305C61.7648 58.9075 62.3589 58.7864 62.7448 58.7077C62.856 58.685 62.9499 58.6659 63.02 58.6536C63.1283 58.6347 63.2534 58.6197 63.4046 58.6015C63.4918 58.591 63.5877 58.5795 63.6942 58.5656C63.9658 58.5301 64.2796 58.4814 64.5775 58.3979C64.8701 58.3159 65.1895 58.1893 65.4441 57.9731C65.7161 57.7421 65.904 57.4154 65.9096 56.9941C65.9147 56.6156 65.7923 56.2868 65.5553 56.0335C65.3286 55.7912 65.0305 55.6533 64.7371 55.5762C64.1584 55.424 63.4574 55.4711 62.865 55.5882C62.3136 55.6971 61.4651 55.8682 60.7714 56.1602C60.426 56.3056 60.076 56.4981 59.8184 56.7617ZM61.1594 57.0819C61.7442 56.8357 62.4929 56.681 63.0589 56.5692C63.5837 56.4654 64.1135 56.4462 64.4828 56.5433C64.6635 56.5908 64.7687 56.6564 64.8251 56.7167C64.8711 56.7659 64.9116 56.8386 64.9097 56.9807C64.9084 57.08 64.8752 57.1442 64.7968 57.2108C64.701 57.2922 64.5403 57.3698 64.3077 57.435C64.0805 57.4987 63.8239 57.5401 63.5645 57.574C63.4871 57.5842 63.4056 57.594 63.3241 57.6038C63.1528 57.6245 62.9814 57.6452 62.8478 57.6686C62.7373 57.6879 62.6122 57.7133 62.4771 57.7407C62.0951 57.8183 61.6324 57.9123 61.1911 57.9314C60.8949 57.9443 60.6786 57.9175 60.5463 57.8639C60.4452 57.8229 60.4287 57.7876 60.4199 57.7281C60.4085 57.6508 60.4245 57.5722 60.5336 57.4606C60.656 57.3354 60.8655 57.2056 61.1594 57.0819Z" fill="#020E49"/>
<path fill-rule="evenodd" clip-rule="evenodd" d="M68.0406 77.6526C68.2543 77.8275 68.2858 78.1425 68.1109 78.3562C67.3657 79.267 66.4234 80.7667 67.1798 82.3635C67.298 82.6131 67.1915 82.9112 66.9419 83.0295C66.6924 83.1477 66.3942 83.0412 66.276 82.7916C65.238 80.6002 66.5869 78.6397 67.337 77.7229C67.5118 77.5092 67.8268 77.4777 68.0406 77.6526Z" fill="#020E49"/>
<path fill-rule="evenodd" clip-rule="evenodd" d="M72.4685 32.6433C70.2444 33.5601 68.0942 35.1219 66.299 36.6075C65.4169 37.3375 64.9064 37.8815 64.5434 38.3695C64.225 38.7974 64.0129 39.19 63.7537 39.6698C63.7142 39.743 63.6735 39.8182 63.6312 39.8959C62.9846 41.0841 62.068 42.617 59.1705 45.546C57.013 47.727 56.4891 50.4954 56.7365 53.1242C56.9847 55.7613 58.0076 58.2072 58.8697 59.6407C59.012 59.8774 58.9356 60.1846 58.6989 60.3269C58.4623 60.4692 58.1551 60.3928 58.0128 60.1561C57.0888 58.6198 56.0057 56.0314 55.7409 53.2179C55.4754 50.3959 56.0315 47.2972 58.4596 44.8427C61.2943 41.9772 62.1534 40.5195 62.7529 39.4179C62.7928 39.3446 62.832 39.2719 62.871 39.1996C63.1288 38.7218 63.3766 38.2625 63.7411 37.7726C64.1646 37.2033 64.7367 36.6024 65.6615 35.8371C67.4801 34.3321 69.7227 32.6935 72.0874 31.7188C74.4546 30.743 77.0121 30.4065 79.3912 31.6203C81.6337 32.7644 82.5244 33.8355 83.2326 34.687C83.2462 34.7034 83.2597 34.7197 83.2732 34.7359C83.6233 35.1566 83.8996 35.4766 84.2737 35.7403C84.6403 35.9986 85.1276 36.22 85.9054 36.3777C86.6082 36.5201 87.3455 36.5853 88.1227 36.654C88.2261 36.6631 88.3302 36.6723 88.435 36.6818C89.3138 36.761 90.2346 36.8577 91.125 37.0973C92.022 37.3387 92.8992 37.7275 93.695 38.3974C94.4909 39.0675 95.1821 39.9992 95.7352 41.2937C96.8112 43.812 96.744 46.0867 96.6882 47.977C96.6868 48.0245 96.6854 48.0717 96.684 48.1187C96.6267 50.0823 96.6332 51.4882 97.6611 52.5938C97.9209 52.8731 98.3212 53.1896 98.8598 53.5718C99.1962 53.8106 99.5694 54.0632 99.9795 54.3408C100.225 54.5069 100.483 54.6819 100.755 54.8682C102.193 55.8542 103.927 57.1071 105.66 58.7914C109.135 62.1693 112.583 67.2606 113.722 75.3939C113.76 75.6674 113.57 75.9201 113.296 75.9584C113.023 75.9967 112.77 75.8061 112.732 75.5326C111.627 67.6443 108.298 62.7501 104.963 59.5084C103.291 57.8829 101.611 56.6675 100.189 55.6929C99.9302 55.5152 99.677 55.3437 99.4333 55.1787C99.0152 54.8956 98.6252 54.6316 98.281 54.3873C97.7371 54.0013 97.2637 53.6349 96.9288 53.2747C95.5782 51.8221 95.6295 49.9743 95.6844 48.0896L95.6874 47.9885C95.7432 46.0853 95.8043 44.0007 94.8156 41.6866C94.3141 40.5129 93.7094 39.7167 93.051 39.1624C92.3924 38.608 91.6568 38.276 90.8652 38.063C90.067 37.8482 89.2236 37.7569 88.3451 37.6777C88.2427 37.6685 88.1396 37.6594 88.0361 37.6503C87.2657 37.5824 86.4685 37.5121 85.7067 37.3577C84.824 37.1788 84.2005 36.9121 83.6976 36.5576C83.2022 36.2084 82.8501 35.7908 82.5046 35.3756C82.488 35.3556 82.4713 35.3355 82.4545 35.3154C81.7893 34.5151 80.9974 33.5624 78.9368 32.5111C76.9178 31.481 74.6903 31.7275 72.4685 32.6433Z" fill="#020E49"/>
<path fill-rule="evenodd" clip-rule="evenodd" d="M59.9178 27.6603C60.15 27.8097 60.2171 28.1191 60.0677 28.3513C55.4355 35.5508 48.6458 46.5222 43.3309 56.0382C40.6723 60.7982 38.3896 65.182 36.9299 68.543C36.1989 70.2262 35.6831 71.6332 35.4265 72.6934C35.2979 73.2249 35.2402 73.6463 35.2444 73.96C35.2487 74.2864 35.3187 74.4165 35.3555 74.4572C35.6903 74.8276 36.325 75.2793 37.2564 75.7809C38.1769 76.2766 39.349 76.8012 40.7224 77.3294C43.4685 78.3855 46.9912 79.4453 50.8553 80.3124C58.5977 82.0499 67.6339 82.9971 74.5029 81.6431C74.7738 81.5897 75.0368 81.766 75.0902 82.037C75.1436 82.3079 74.9672 82.5708 74.6963 82.6242C67.6256 84.018 58.4291 83.037 50.6364 81.2882C46.7329 80.4122 43.1624 79.3392 40.3635 78.2628C38.9644 77.7247 37.751 77.1831 36.7823 76.6613C35.8245 76.1455 35.0663 75.6285 34.6136 75.1277C34.3353 74.8198 34.25 74.3926 34.2444 73.9733C34.2387 73.5414 34.3165 73.0287 34.4546 72.4582C34.7314 71.3144 35.274 69.8456 36.0127 68.1446C37.4925 64.7372 39.7946 60.3189 42.4578 55.5506C47.7865 46.01 54.5881 35.0196 59.2267 27.8102C59.3762 27.578 59.6855 27.5108 59.9178 27.6603Z" fill="#020E49"/>
<path fill-rule="evenodd" clip-rule="evenodd" d="M51.8896 16.9159C52.1038 17.0902 52.136 17.4051 51.9617 17.6193C44.7692 26.4538 34.4711 40.2165 26.516 52.8193C22.5372 59.1226 19.1548 65.1197 17.0385 70.057C15.9798 72.5268 15.2462 74.7128 14.9085 76.5283C14.5679 78.3597 14.646 79.7328 15.1113 80.6396C16.4142 83.1786 19.2931 86.0668 22.977 89.0183C26.6457 91.9576 31.0559 94.9157 35.356 97.6033C39.6547 100.29 43.8332 102.7 47.0378 104.545L47.2157 104.648C48.7391 105.525 50.0373 106.273 51.0084 106.855C51.5126 107.157 51.9341 107.418 52.2559 107.632C52.5605 107.834 52.823 108.023 52.9664 108.18C53.1495 108.379 53.2616 108.682 53.3414 108.981C53.4272 109.301 53.4972 109.705 53.5513 110.178C53.6596 111.126 53.7091 112.397 53.6773 113.931C53.6137 117.003 53.224 121.169 52.3074 125.996C50.4991 135.52 46.6341 147.649 39.1468 159.048C41.5527 160.273 46.6757 162.231 51.3148 161.928C54.4925 161.721 57.6614 161.307 60.1131 160.758C61.3409 160.483 62.3717 160.179 63.129 159.857C63.5078 159.696 63.8038 159.536 64.0176 159.384C64.2328 159.23 64.3303 159.107 64.3674 159.029C64.3659 159.032 64.3664 159.03 64.3687 159.021C64.3733 159.004 64.3855 158.958 64.4042 158.87C64.4305 158.747 64.4628 158.575 64.5009 158.355C64.5769 157.917 64.6733 157.302 64.7882 156.527C65.0178 154.978 65.3192 152.802 65.6752 150.143C66.387 144.827 67.316 137.59 68.3233 129.602C70.3378 113.627 72.665 94.6551 74.1933 82.0581C74.2265 81.784 74.4757 81.5887 74.7499 81.622C75.024 81.6552 75.2193 81.9044 75.186 82.1786C73.6576 94.7765 71.3302 113.75 69.3154 129.727C68.308 137.715 67.3787 144.956 66.6663 150.276C66.3102 152.936 66.008 155.118 65.7774 156.674C65.6621 157.451 65.5643 158.075 65.4862 158.526C65.4472 158.751 65.4124 158.937 65.3823 159.078C65.3568 159.198 65.3241 159.341 65.2799 159.438C65.1416 159.743 64.8869 159.992 64.599 160.197C64.3053 160.407 63.9381 160.599 63.5202 160.777C62.6839 161.133 61.5872 161.453 60.3314 161.734C57.8159 162.297 54.5934 162.716 51.3798 162.926C46.129 163.268 40.3972 160.893 38.1836 159.669C38.0613 159.601 37.9729 159.486 37.9398 159.35C37.9068 159.214 37.9321 159.07 38.0096 158.954C45.6055 147.56 49.5105 135.366 51.325 125.809C52.2321 121.032 52.6152 116.922 52.6775 113.911C52.7087 112.404 52.6594 111.181 52.5577 110.292C52.5068 109.846 52.4439 109.495 52.3754 109.239C52.3411 109.111 52.3076 109.015 52.2773 108.946C52.2503 108.884 52.2322 108.86 52.2292 108.855C52.2287 108.855 52.2287 108.855 52.2292 108.855C52.1815 108.803 52.0229 108.677 51.703 108.465C51.4004 108.264 50.9942 108.012 50.4943 107.713C49.5304 107.135 48.2382 106.391 46.7085 105.51L46.5387 105.412C43.3346 103.567 39.1418 101.149 34.826 98.4513C30.5117 95.7548 26.0643 92.7731 22.3517 89.7987C18.6543 86.8364 15.6281 83.8369 14.2216 81.0962C13.6032 79.891 13.5717 78.2467 13.9254 76.3454C14.282 74.4282 15.0464 72.1663 16.1193 69.663C18.2662 64.6544 21.6809 58.6058 25.6704 52.2855C33.6518 39.641 43.975 25.8454 51.1862 16.9879C51.3605 16.7738 51.6755 16.7415 51.8896 16.9159Z" fill="#020E49"/>
<path fill-rule="evenodd" clip-rule="evenodd" d="M105.812 144.643C105.965 144.873 105.903 145.183 105.673 145.336C102.838 147.226 94.8947 151.163 85.5693 151.949C76.2698 152.733 68.7019 150.972 66.0387 149.974C65.7801 149.877 65.6491 149.589 65.7461 149.33C65.843 149.071 66.1312 148.94 66.3898 149.037C68.9138 149.984 76.3331 151.724 85.4852 150.952C94.6114 150.183 102.396 146.32 105.119 144.504C105.348 144.351 105.659 144.413 105.812 144.643Z" fill="#020E49"/>
<path fill-rule="evenodd" clip-rule="evenodd" d="M38.4146 158.853C38.6903 158.838 38.9259 159.05 38.9407 159.325C39.0341 161.063 41.3759 166.237 54.8415 170.138C55.1068 170.215 55.2595 170.492 55.1827 170.757C55.1058 171.022 54.8285 171.175 54.5633 171.098C41.0072 167.171 38.0721 161.797 37.9421 159.379C37.9273 159.103 38.1388 158.868 38.4146 158.853Z" fill="#020E49"/>
<path fill-rule="evenodd" clip-rule="evenodd" d="M135.912 158.17C136.164 158.283 136.276 158.579 136.163 158.831C136.075 159.025 135.887 159.227 135.704 159.402C135.501 159.596 135.232 159.823 134.911 160.073C134.266 160.574 133.386 161.188 132.339 161.847C130.244 163.163 127.456 164.673 124.507 165.829C124.25 165.93 123.96 165.803 123.859 165.546C123.758 165.289 123.885 164.999 124.142 164.898C127.021 163.769 129.753 162.291 131.806 161C132.833 160.355 133.685 159.76 134.296 159.284C134.603 159.045 134.843 158.841 135.013 158.678C135.18 158.519 135.239 158.437 135.249 158.423C135.251 158.421 135.251 158.42 135.251 158.42C135.364 158.169 135.66 158.056 135.912 158.17Z" fill="#020E49"/>
<path fill-rule="evenodd" clip-rule="evenodd" d="M118.053 156.96C118.276 156.797 118.589 156.846 118.752 157.069C123.747 163.921 131.363 174.592 137.977 184.337C141.284 189.21 144.343 193.855 146.699 197.677C149.041 201.477 150.726 204.522 151.24 206.165C151.581 207.258 151.564 209.032 151.32 211.217C151.073 213.429 150.584 216.144 149.924 219.172C148.602 225.229 146.588 232.575 144.427 239.713C142.265 246.852 139.955 253.793 138.041 259.044C137.084 261.669 136.224 263.878 135.529 265.479C135.182 266.279 134.873 266.937 134.61 267.422C134.479 267.664 134.356 267.871 134.24 268.036C134.135 268.186 134.002 268.352 133.843 268.454C133.231 268.847 132.585 269.156 131.754 269.299C130.931 269.44 129.958 269.412 128.694 269.18C126.181 268.719 122.412 267.431 116.194 264.895C109.92 262.335 105.932 259.476 103.3 256.823C100.665 254.168 99.4092 251.738 98.5824 250.085C98.415 249.75 98.3984 249.301 98.4342 248.849C98.4719 248.373 98.5772 247.795 98.7343 247.14C99.049 245.826 99.5861 244.14 100.27 242.207C101.637 238.34 103.612 233.433 105.626 228.453C105.752 228.143 105.877 227.833 106.003 227.522C107.897 222.841 109.797 218.145 111.246 214.212C112.018 212.115 112.658 210.243 113.1 208.711C113.547 207.161 113.773 206.016 113.755 205.345C113.741 204.838 113.533 204.095 113.118 203.13C112.708 202.177 112.116 201.053 111.379 199.801C109.907 197.297 107.875 194.312 105.616 191.203C101.226 185.162 96.001 178.686 92.4091 174.425C92.0927 174.625 91.7234 174.774 91.3415 174.888C90.7621 175.061 90.1038 175.167 89.4455 175.228C88.3883 175.326 87.2934 175.313 86.4528 175.26C87.1067 193.24 88.0358 219.987 88.7244 242.524C89.0723 253.91 89.3589 264.223 89.5176 271.788C89.5969 275.57 89.6443 278.668 89.6513 280.87C89.6548 281.971 89.6483 282.852 89.6304 283.485C89.6215 283.8 89.6096 284.06 89.5941 284.256C89.5864 284.354 89.5773 284.442 89.5662 284.517C89.5571 284.578 89.5409 284.674 89.5048 284.76C89.4165 284.972 89.2574 285.167 89.082 285.341C88.9005 285.52 88.6708 285.706 88.4035 285.896C87.8685 286.276 87.1499 286.694 86.2848 287.128C84.5523 287.997 82.193 288.948 79.4497 289.794C73.9678 291.483 66.8992 292.769 60.1808 292.105C54.8231 291.576 51.4167 290.276 49.335 288.821C47.282 287.386 46.485 285.771 46.4695 284.603C46.3198 283.452 46.2928 281.275 46.3589 278.312C46.426 275.308 46.59 271.459 46.8304 266.975C47.3112 258.008 48.0979 246.489 49.027 234.084C50.8851 209.273 53.3136 180.907 55.0054 162.297C55.0304 162.022 55.2736 161.819 55.5487 161.844C55.8237 161.869 56.0263 162.112 56.0013 162.387C54.3098 180.994 51.8819 209.354 50.0242 234.158C49.0953 246.561 48.3092 258.072 47.829 267.029C47.5888 271.508 47.4254 275.345 47.3587 278.334C47.2917 281.338 47.3236 283.45 47.4648 284.502C47.4678 284.524 47.4693 284.546 47.4693 284.568C47.4693 285.307 48.003 286.67 49.9079 288.001C51.8044 289.327 55.0283 290.592 60.2791 291.11C66.8214 291.756 73.7501 290.504 79.1551 288.838C81.8552 288.006 84.1617 287.074 85.8365 286.234C86.6749 285.814 87.3453 285.421 87.8246 285.081C88.0644 284.91 88.2482 284.759 88.3789 284.63C88.4962 284.514 88.5511 284.435 88.5732 284.393C88.5743 284.387 88.5756 284.38 88.5771 284.369C88.5835 284.327 88.5904 284.264 88.5972 284.177C88.6107 284.006 88.6221 283.765 88.6308 283.456C88.6483 282.84 88.6548 281.971 88.6513 280.873C88.6443 278.68 88.597 275.589 88.5178 271.809C88.3592 264.248 88.0728 253.94 87.7249 242.554C87.0292 219.785 86.0879 192.716 85.433 174.736C85.4278 174.592 85.485 174.452 85.5899 174.353C85.6949 174.255 85.8374 174.206 85.9809 174.22C86.803 174.299 88.113 174.347 89.3531 174.232C89.9731 174.174 90.5611 174.077 91.0557 173.93C91.559 173.78 91.9181 173.591 92.1276 173.382C92.2265 173.283 92.3623 173.23 92.502 173.236C92.6417 173.241 92.7726 173.306 92.8629 173.412C96.4698 177.675 101.889 184.373 106.425 190.615C108.692 193.735 110.745 196.75 112.241 199.294C112.989 200.566 113.604 201.729 114.036 202.734C114.464 203.727 114.736 204.614 114.755 205.318C114.777 206.162 114.507 207.442 114.061 208.988C113.609 210.554 112.959 212.451 112.184 214.557C110.73 218.506 108.824 223.216 106.931 227.893C106.805 228.205 106.679 228.516 106.553 228.828C104.536 233.813 102.571 238.698 101.212 242.541C100.532 244.463 100.009 246.111 99.7068 247.373C99.5554 248.005 99.4629 248.525 99.4311 248.928C99.3974 249.353 99.4397 249.563 99.4769 249.638C100.287 251.258 101.487 253.576 104.009 256.119C106.534 258.664 110.404 261.453 116.572 263.969C122.796 266.507 126.476 267.757 128.874 268.196C130.067 268.415 130.915 268.428 131.585 268.313C132.248 268.199 132.768 267.956 133.302 267.613C133.298 267.616 133.298 267.615 133.303 267.611C133.314 267.599 133.354 267.558 133.421 267.462C133.506 267.341 133.609 267.17 133.731 266.946C133.973 266.498 134.269 265.87 134.612 265.082C135.295 263.506 136.147 261.318 137.101 258.702C139.008 253.47 141.313 246.547 143.47 239.423C145.627 232.298 147.633 224.98 148.946 218.959C149.603 215.947 150.085 213.269 150.326 211.106C150.57 208.917 150.558 207.334 150.285 206.463C149.817 204.963 148.207 202.029 145.848 198.202C143.502 194.397 140.453 189.766 137.15 184.899C130.544 175.165 122.935 164.504 117.944 157.659C117.781 157.435 117.83 157.123 118.053 156.96Z" fill="#020E49"/>
<path d="M99.1561 268.952C98.9707 268.234 102.085 260.619 103.665 256.901C105.152 258.267 108.995 261.385 112.479 262.921C115.962 264.458 118.301 265.341 119.034 265.591C118.136 269.242 116.183 276.707 115.557 277.356C114.775 278.167 99.3879 269.851 99.1561 268.952Z" fill="white"/>
<path fill-rule="evenodd" clip-rule="evenodd" d="M103.56 256.412C103.718 256.378 103.884 256.423 104.004 256.533C105.476 257.886 109.272 260.96 112.681 262.464C116.156 263.997 118.48 264.874 119.196 265.118C119.441 265.201 119.582 265.459 119.52 265.71C119.07 267.539 118.356 270.324 117.675 272.735C117.335 273.94 117.001 275.057 116.712 275.916C116.568 276.345 116.432 276.718 116.31 277.008C116.25 277.152 116.189 277.283 116.13 277.393C116.076 277.495 116.005 277.611 115.917 277.703C115.786 277.839 115.623 277.883 115.518 277.9C115.407 277.917 115.294 277.913 115.194 277.902C114.991 277.881 114.751 277.822 114.491 277.743C113.968 277.583 113.281 277.312 112.497 276.969C110.925 276.283 108.909 275.285 106.918 274.238C104.925 273.19 102.947 272.086 101.449 271.187C100.702 270.738 100.067 270.336 99.6084 270.014C99.3803 269.854 99.186 269.707 99.0407 269.58C98.9685 269.517 98.8991 269.45 98.8414 269.383C98.7949 269.328 98.7092 269.221 98.6722 269.077C98.6343 268.931 98.6498 268.774 98.6636 268.672C98.68 268.551 98.7093 268.411 98.7467 268.26C98.8218 267.958 98.9391 267.572 99.086 267.131C99.3804 266.247 99.8051 265.102 100.282 263.871C101.238 261.406 102.414 258.567 103.205 256.705C103.269 256.556 103.401 256.446 103.56 256.412ZM103.853 257.739C103.083 259.567 102.061 262.049 101.215 264.232C100.739 265.459 100.322 266.585 100.035 267.447C99.8911 267.879 99.7832 268.235 99.7173 268.501C99.6868 268.624 99.6674 268.719 99.657 268.789C99.6692 268.801 99.6833 268.813 99.6996 268.828C99.8055 268.92 99.9664 269.044 100.183 269.195C100.613 269.497 101.224 269.886 101.964 270.33C103.441 271.217 105.402 272.311 107.383 273.353C109.365 274.395 111.357 275.38 112.897 276.053C113.67 276.39 114.315 276.643 114.784 276.786C114.992 276.85 115.15 276.887 115.258 276.902C115.295 276.832 115.339 276.738 115.389 276.62C115.497 276.363 115.624 276.017 115.764 275.598C116.046 274.761 116.374 273.662 116.713 272.463C117.337 270.252 117.991 267.72 118.44 265.911C117.406 265.533 115.256 264.693 112.277 263.379C109.079 261.968 105.612 259.272 103.853 257.739ZM99.5938 268.723C99.594 268.723 99.5958 268.725 99.5986 268.729C99.595 268.725 99.5936 268.723 99.5938 268.723Z" fill="#020E49"/>
<path d="M92.0674 280.589C91.3988 278.426 96.3444 271.887 98.9008 268.889L115.194 277.604C119.948 283.859 123.784 306.211 119.865 308.296C116.729 309.965 107.99 296.419 104.013 289.438C103.243 289.798 101.319 290.588 99.7856 290.863C97.8684 291.208 92.9031 283.293 92.0674 280.589Z" fill="#000C48"/>
<path fill-rule="evenodd" clip-rule="evenodd" d="M98.5203 268.564C98.6728 268.385 98.9293 268.337 99.1366 268.448L115.43 277.163C115.493 277.197 115.548 277.244 115.592 277.301C116.833 278.934 117.985 281.57 118.957 284.592C119.932 287.627 120.74 291.097 121.276 294.435C121.81 297.769 122.076 300.991 121.956 303.524C121.897 304.789 121.74 305.906 121.461 306.787C121.187 307.651 120.764 308.384 120.099 308.738C119.524 309.044 118.875 308.968 118.256 308.714C117.638 308.46 116.976 308.001 116.297 307.413C114.935 306.234 113.399 304.446 111.856 302.413C108.879 298.489 105.809 293.565 103.805 290.079C102.867 290.486 101.235 291.111 99.874 291.355C99.4584 291.43 99.0419 291.273 98.6843 291.062C98.314 290.845 97.9264 290.522 97.5377 290.14C96.7583 289.373 95.9117 288.304 95.1108 287.155C93.517 284.869 92.0308 282.164 91.5897 280.736C91.4719 280.355 91.4893 279.924 91.5734 279.492C91.6586 279.055 91.8205 278.575 92.0334 278.074C92.459 277.072 93.1117 275.931 93.8547 274.781C95.3426 272.477 97.2327 270.074 98.5203 268.564ZM99.0215 269.52C97.7676 271.014 96.055 273.217 94.6947 275.323C93.9654 276.452 93.3472 277.539 92.9537 278.465C92.757 278.928 92.6223 279.338 92.555 279.683C92.4866 280.035 92.4957 280.281 92.5451 280.441C92.9397 281.718 94.354 284.321 95.9311 286.583C96.7156 287.708 97.522 288.722 98.239 289.427C98.5985 289.78 98.9199 290.041 99.1913 290.201C99.4755 290.368 99.6336 290.383 99.6973 290.371C101.167 290.107 103.044 289.339 103.802 288.985C104.038 288.874 104.319 288.964 104.448 289.19C106.43 292.67 109.597 297.781 112.653 301.808C114.183 303.825 115.669 305.547 116.951 306.657C117.594 307.214 118.161 307.594 118.636 307.789C119.111 307.984 119.421 307.966 119.63 307.855C119.945 307.687 120.26 307.266 120.508 306.484C120.75 305.719 120.9 304.699 120.958 303.477C121.073 301.038 120.817 297.89 120.288 294.593C119.76 291.3 118.963 287.879 118.005 284.898C117.06 281.961 115.974 279.496 114.86 277.992L99.0215 269.52Z" fill="#020E49"/>
<path d="M60.137 303.298C59.1758 302.337 59.2159 295.168 59.356 291.703C59.356 291.703 63.2748 292.56 69.8972 291.703C75.9085 290.926 79.5414 289.24 79.5414 289.24L78.8805 302.397C78.7404 302.697 77.3786 303.598 73.0532 304.8C67.6464 306.302 61.3385 304.499 60.137 303.298Z" fill="white"/>
<path fill-rule="evenodd" clip-rule="evenodd" d="M79.3311 288.787C79.4899 288.713 79.6757 288.728 79.8209 288.826C79.9661 288.924 80.0495 289.09 80.0407 289.265L79.3799 302.422C79.3767 302.486 79.3609 302.55 79.3336 302.608C79.277 302.729 79.1879 302.828 79.1104 302.901C79.0261 302.98 78.9217 303.061 78.7994 303.144C78.5546 303.31 78.2099 303.501 77.7451 303.715C76.8143 304.142 75.3653 304.676 73.187 305.282C70.3923 306.058 67.3852 305.977 64.9335 305.555C63.7052 305.344 62.6047 305.046 61.7273 304.719C60.8711 304.401 60.1644 304.032 59.7835 303.651C59.5722 303.44 59.439 303.122 59.3438 302.813C59.243 302.485 59.1618 302.085 59.0953 301.642C58.9621 300.754 58.8805 299.639 58.8339 298.459C58.7406 296.096 58.786 293.424 58.8565 291.683C58.8624 291.535 58.9335 291.398 59.0504 291.308C59.1673 291.217 59.3182 291.183 59.4625 291.215L59.4626 291.215C59.4627 291.215 59.4627 291.215 59.4628 291.215L59.4635 291.215L59.4699 291.216L59.4997 291.222C59.5271 291.228 59.5695 291.236 59.6265 291.246C59.7405 291.267 59.9132 291.296 60.1422 291.329C60.6002 291.394 61.2833 291.473 62.1728 291.525C63.9516 291.631 66.5554 291.631 69.8331 291.207C72.806 290.823 75.1885 290.214 76.8244 289.703C77.6422 289.447 78.2731 289.216 78.6975 289.05C78.9096 288.967 79.0701 288.9 79.1765 288.855C79.2297 288.832 79.2694 288.814 79.2952 288.803L79.3236 288.79L79.3299 288.787L79.3309 288.787L79.3311 288.787L79.3311 288.787ZM79.0023 290.005C78.5597 290.176 77.9275 290.406 77.1226 290.657C75.4392 291.183 72.9996 291.806 69.9613 292.199C66.6166 292.632 63.9498 292.632 62.1136 292.524C61.1956 292.469 60.4852 292.387 60.0015 292.319C59.9425 292.31 59.8869 292.302 59.8347 292.294C59.778 293.998 59.7508 296.335 59.8331 298.42C59.8791 299.585 59.959 300.659 60.0842 301.494C60.147 301.912 60.2193 302.257 60.2997 302.519C60.3858 302.799 60.4616 302.915 60.4906 302.944C60.7104 303.164 61.2427 303.472 62.0762 303.782C62.8884 304.084 63.9281 304.368 65.1028 304.57C67.4571 304.974 70.3074 305.044 72.9194 304.318C75.0666 303.722 76.4611 303.204 77.3275 302.806C77.7614 302.607 78.0538 302.441 78.2389 302.316C78.3055 302.271 78.3546 302.233 78.3896 302.204L79.0023 290.005Z" fill="#020E49"/>
<path d="M124.462 165.572L118.493 157.442C124.119 157.185 135.267 158.008 135.781 158.369C136.926 159.17 128.372 163.737 124.462 165.572Z" fill="#000C48"/>
<path d="M83.7808 317.502C84.9554 316.151 81.089 306.71 79.0089 302.158C78.6908 302.599 76.645 303.817 71.0069 305.168C65.3688 306.519 60.9249 304.018 59.4077 302.599C51.0141 308.154 35.1961 320.086 39.0723 323.375C42.9485 326.663 61.7324 321.172 70.6399 318.015C70.8356 318.456 71.5208 319.586 72.6954 320.585C74.1637 321.833 82.3125 319.19 83.7808 317.502Z" fill="#000C48"/>
<path fill-rule="evenodd" clip-rule="evenodd" d="M39.1437 323.433C39.6847 319.386 49.656 310.225 56.1787 304.801C48.4734 310.205 38.1337 318.477 38.4799 322.241L38.9899 323.3C39.0164 323.326 39.0439 323.35 39.0725 323.375C39.0957 323.394 39.1194 323.414 39.1437 323.433Z" fill="white"/>
<path fill-rule="evenodd" clip-rule="evenodd" d="M79.0582 301.661C79.2353 301.678 79.3898 301.788 79.4638 301.95C80.5077 304.235 82.001 307.748 83.0876 310.866C83.6301 312.422 84.0771 313.896 84.3136 315.076C84.4315 315.664 84.5013 316.199 84.4984 316.644C84.4956 317.062 84.4298 317.517 84.1582 317.83C83.7156 318.339 82.8432 318.857 81.8481 319.324C80.829 319.802 79.6032 320.26 78.3809 320.624C77.1606 320.987 75.9256 321.262 74.89 321.365C74.373 321.416 73.8891 321.426 73.4737 321.376C73.0709 321.328 72.6661 321.216 72.3717 320.966C71.4024 320.142 70.7444 319.23 70.3976 318.631C65.9234 320.199 59.206 322.28 53.0748 323.601C49.916 324.282 46.8946 324.765 44.4082 324.868C43.1653 324.92 42.0398 324.877 41.0898 324.711C40.1471 324.545 39.3299 324.249 38.7489 323.756C38.1169 323.22 37.8979 322.497 37.9925 321.706C38.0836 320.945 38.4621 320.112 39.0132 319.252C40.1193 317.526 42.0362 315.517 44.3035 313.466C48.8487 309.354 54.9244 304.966 59.1318 302.182C59.3248 302.054 59.5803 302.075 59.7493 302.234C61.1714 303.564 65.4493 305.986 70.8905 304.682C73.6916 304.011 75.5851 303.376 76.8091 302.861C77.4214 302.603 77.8597 302.378 78.1577 302.197C78.3067 302.107 78.4159 302.03 78.4923 301.969C78.5303 301.938 78.5579 301.913 78.5771 301.894C78.5958 301.876 78.6031 301.866 78.6037 301.865L78.6037 301.865C78.7079 301.721 78.881 301.643 79.0582 301.661ZM77.197 303.783C75.909 304.325 73.9605 304.975 71.1235 305.654C65.6159 306.974 61.1997 304.749 59.3655 303.227C55.1963 306.004 49.3549 310.244 44.9743 314.207C42.7224 316.245 40.887 318.182 39.8551 319.792C39.3372 320.6 39.0503 321.282 38.9854 321.825C38.9242 322.337 39.0588 322.707 39.3958 322.993C39.7839 323.323 40.4016 323.574 41.2628 323.726C42.1168 323.876 43.1644 323.919 44.3667 323.869C46.7708 323.769 49.7289 323.299 52.8641 322.623C59.1308 321.273 66.0322 319.118 70.4729 317.544C70.719 317.457 70.9908 317.574 71.0969 317.812C71.2635 318.187 71.9043 319.256 73.0193 320.204C73.092 320.266 73.2631 320.344 73.5927 320.384C73.9097 320.422 74.3147 320.417 74.7911 320.37C75.7423 320.275 76.9115 320.018 78.0955 319.665C79.2775 319.313 80.4559 318.872 81.4236 318.418C82.4152 317.954 83.1121 317.509 83.4036 317.173C83.4256 317.148 83.4959 317.013 83.4984 316.638C83.5007 316.29 83.445 315.831 83.3331 315.273C83.11 314.16 82.6806 312.736 82.1433 311.195C81.1601 308.374 79.8353 305.213 78.8232 302.96C78.7763 302.99 78.7275 303.021 78.6771 303.052C78.3257 303.265 77.8407 303.512 77.197 303.783Z" fill="#020E49"/>
<path fill-rule="evenodd" clip-rule="evenodd" d="M116.003 278.835C120.363 286.361 123.559 306.331 119.864 308.296C119.846 308.306 119.827 308.316 119.807 308.325C122.585 300.678 118.199 285.639 116.003 278.835Z" fill="white"/>
</svg>
