<svg width="78" height="78" viewBox="0 0 78 78" fill="none" xmlns="http://www.w3.org/2000/svg">
<circle cx="39.5" cy="38.5" r="37.5" fill="white"/>
<path d="M30.75 23.9167H48.25C48.6367 23.9167 49.0077 24.0703 49.2812 24.3438C49.5546 24.6173 49.7083 24.9882 49.7083 25.375V51.625C49.7083 52.0118 49.5546 52.3827 49.2812 52.6562C49.0077 52.9297 48.6367 53.0833 48.25 53.0833H30.75C30.3632 53.0833 29.9923 52.9297 29.7188 52.6562C29.4453 52.3827 29.2916 52.0118 29.2916 51.625V25.375C29.2916 24.9882 29.4453 24.6173 29.7188 24.3438C29.9923 24.0703 30.3632 23.9167 30.75 23.9167ZM39.5 45.7917C39.1132 45.7917 38.7423 45.9453 38.4688 46.2188C38.1953 46.4923 38.0416 46.8632 38.0416 47.25C38.0416 47.6368 38.1953 48.0077 38.4688 48.2812C38.7423 48.5547 39.1132 48.7083 39.5 48.7083C39.8867 48.7083 40.2577 48.5547 40.5312 48.2812C40.8046 48.0077 40.9583 47.6368 40.9583 47.25C40.9583 46.8632 40.8046 46.4923 40.5312 46.2188C40.2577 45.9453 39.8867 45.7917 39.5 45.7917Z" fill="#2B2E3C"/>
<circle opacity="0.6" cx="62.5" cy="13.5" r="11.5" fill="#6BDBFF"/>
</svg>
