<svg width="78" height="78" viewBox="0 0 78 78" fill="none" xmlns="http://www.w3.org/2000/svg">
<path d="M76 39.5C76 60.2107 59.2107 77 38.5 77C17.7893 77 1 60.2107 1 39.5C1 18.7893 17.7893 2 38.5 2C59.2107 2 76 18.7893 76 39.5Z" fill="white"/>
<path d="M48.7083 54.0833H28.2916C27.1313 54.0833 26.0185 53.6224 25.198 52.8019C24.3776 51.9814 23.9166 50.8686 23.9166 49.7083V26.375C23.9166 25.9882 24.0703 25.6173 24.3438 25.3438C24.6173 25.0703 24.9882 24.9167 25.375 24.9167H45.7916C46.1784 24.9167 46.5493 25.0703 46.8228 25.3438C47.0963 25.6173 47.25 25.9882 47.25 26.375V36.5833H53.0833V49.7083C53.0833 50.8686 52.6224 51.9814 51.8019 52.8019C50.9814 53.6224 49.8686 54.0833 48.7083 54.0833ZM47.25 39.5V49.7083C47.25 50.0951 47.4036 50.466 47.6771 50.7395C47.9506 51.013 48.3215 51.1667 48.7083 51.1667C49.0951 51.1667 49.466 51.013 49.7395 50.7395C50.013 50.466 50.1666 50.0951 50.1666 49.7083V39.5H47.25ZM28.2916 30.75V39.5H37.0416V30.75H28.2916ZM28.2916 40.9583V43.875H42.875V40.9583H28.2916ZM28.2916 45.3333V48.25H42.875V45.3333H28.2916ZM31.2083 33.6667H34.125V36.5833H31.2083V33.6667Z" fill="#2B2E3C"/>
<path opacity="0.6" d="M63.0571 1.73427C63.6984 0.755247 65.3016 0.755243 65.9429 1.73426L77.7743 19.7972C78.4156 20.7762 77.614 22 76.3314 22H52.6686C51.386 22 50.5844 20.7762 51.2257 19.7972L63.0571 1.73427Z" fill="#6BDBFF"/>
</svg>
