<svg width="78" height="78" viewBox="0 0 78 78" fill="none" xmlns="http://www.w3.org/2000/svg">
<path d="M5 14.2419C5 11.3469 7.34689 9 10.2419 9H64.7581C67.6531 9 70 11.3469 70 14.2419V68.7581C70 71.6531 67.6531 74 64.7581 74H10.2419C7.34689 74 5 71.6531 5 68.7581V14.2419Z" fill="white"/>
<path d="M45.3881 51.7083C44.2564 48.2098 42.0675 46.0427 39.1668 43.5387C42.0053 41.2696 45.5326 40.036 49.1666 40.0417V28.375H50.6366C51.4358 28.375 52.0833 29.024 52.0833 29.8231V53.1769C52.0806 53.5599 51.9274 53.9264 51.6567 54.1974C51.386 54.4683 51.0196 54.6219 50.6366 54.625H24.3633C23.9795 54.6246 23.6115 54.4719 23.3403 54.2003C23.069 53.9288 22.9166 53.5607 22.9166 53.1769V29.8231C22.9193 29.4401 23.0725 29.0736 23.3432 28.8026C23.6139 28.5316 23.9803 28.378 24.3633 28.375H28.75V25.4583H31.6666V31.2917H25.8333V41.5C33.4458 41.5 39.9237 45.0904 42.3314 51.7083H45.3881ZM46.25 25.4583V31.2917H34.5833V28.375H43.3333V25.4583H46.25ZM44.0625 38.5833C43.4823 38.5833 42.9259 38.3529 42.5157 37.9426C42.1054 37.5324 41.875 36.976 41.875 36.3958C41.875 35.8157 42.1054 35.2593 42.5157 34.849C42.9259 34.4388 43.4823 34.2083 44.0625 34.2083C44.6426 34.2083 45.199 34.4388 45.6093 34.849C46.0195 35.2593 46.25 35.8157 46.25 36.3958C46.25 36.976 46.0195 37.5324 45.6093 37.9426C45.199 38.3529 44.6426 38.5833 44.0625 38.5833Z" fill="#2B2E3C"/>
<path opacity="0.6" d="M52.3164 5.69355C52.3164 4.75823 53.0746 4 54.01 4H71.6229C72.5582 4 73.3164 4.75823 73.3164 5.69355V23.3065C73.3164 24.2418 72.5582 25 71.6229 25H54.01C53.0746 25 52.3164 24.2418 52.3164 23.3065V5.69355Z" fill="#6BDBFF"/>
</svg>
