<svg width="151" height="139" viewBox="0 0 151 139" fill="none" xmlns="http://www.w3.org/2000/svg">
<path fill-rule="evenodd" clip-rule="evenodd" d="M85 130C120.346 130 149 101.346 149 66C149 30.6538 120.346 2 85 2C49.6538 2 21 30.6538 21 66C21 79.0226 24.8895 91.1367 31.5701 101.244L7 134L46.7232 117.297C57.3985 125.276 70.6475 130 85 130Z" fill="white"/>
<path fill-rule="evenodd" clip-rule="evenodd" d="M85 4C50.7583 4 23 31.7583 23 66C23 78.6185 26.7675 90.351 33.2385 100.141L34.0156 101.317L13.0291 129.295L47.0034 115.01L47.9205 115.695C58.2619 123.424 71.0937 128 85 128C119.242 128 147 100.242 147 66C147 31.7583 119.242 4 85 4ZM19 66C19 29.5492 48.5492 0 85 0C121.451 0 151 29.5492 151 66C151 102.451 121.451 132 85 132C70.6142 132 57.2985 127.395 46.4536 119.58L0.970825 138.705L29.1342 101.158C22.7145 90.9784 19 78.9202 19 66Z" fill="#000C48"/>
<path d="M52 62C52 61.4477 52.4477 61 53 61H126C126.552 61 127 61.4477 127 62V67C127 67.5523 126.552 68 126 68H53C52.4477 68 52 67.5523 52 67V62Z" fill="#5397F5"/>
<path d="M52 41C52 40.4477 52.4477 40 53 40H74C74.5523 40 75 40.4477 75 41V46C75 46.5523 74.5523 47 74 47H53C52.4477 47 52 46.5523 52 46V41Z" fill="#000C48"/>
<path d="M52 83C52 82.4477 52.4477 82 53 82H97C97.5523 82 98 82.4477 98 83V88C98 88.5523 97.5523 89 97 89H53C52.4477 89 52 88.5523 52 88V83Z" fill="#000C48"/>
</svg>
